<?xml version="1.0" encoding="UTF-8"?>
<svg width="275px" height="236px" viewBox="0 0 275 236" version="1.1" xmlns="http://www.w3.org/2000/svg" xmlns:xlink="http://www.w3.org/1999/xlink">
    <!-- Generator: Sketch 56.3 (81716) - https://sketch.com -->
    <title>Artboard</title>
    <desc>Created with Sketch.</desc>
    <defs>
        <path d="M131.668,0.917 C135.09,0.648 138.523,0.707897568 141.953,0.724 C144.025,0.69 146.087,0.97 148.159,0.947 C154.352,1.279 160.564,1.679 166.679,2.78 C175.903,4.445 184.966,7.098 193.514,10.964 C198.331,13.146 203.103,15.435 207.803,17.859 C211.075,19.554 214.228,21.473 217.224,23.619 C220.262,25.797 223.314,27.955 226.302,30.2 C229.779,32.844 233.021,35.775 236.271,38.691 C239.692,41.777 243.11,44.874 246.366,48.137 C249.308,51.188 252.192,54.297 255.005,57.468 C258.661,61.466 261.547,66.116 263.753,71.051 C264.626,73.093 265.402,75.18 266.349,77.19 C268.022,80.757 268.957,84.601 270.227,88.315 C271.081,91.009 271.594,93.793 272.029,96.583 C272.499,99.548 272.948,102.521 273.333,105.501 C273.772,107.765 274.615,109.927 275.152,112.168 C276.563,117.808 277.727,123.517 278.489,129.281 C279.247,135.48 279.661,141.714 279.854,147.955 C280.228,153.253 279.829,158.566 279.268,163.837 C278.729,168.457 277.872,173.049 276.55,177.514 C275.166,182.273 273.45,186.926 271.702,191.563 C268.872,198.928 265.676,206.191 261.528,212.92 C259.468,216.335 257.192,219.614 254.781,222.79 C251.773,226.735 248.842,230.754 245.457,234.388 C242.864,237.101 240.236,239.799 237.305,242.15 C233.786,245.047 230,247.592 226.276,250.21 C220.172,254.533 213.942,258.678 207.601,262.644 C203.604,265.092 199.526,267.42 195.299,269.441 C190.925,271.475 186.458,273.294 181.953,275.017 C178.609,276.307 175.208,277.453 171.738,278.358 C166.828,279.678 161.933,281.078 156.924,281.982 C151.052,283.098 145.188,284.353 139.22,284.836 C136.069,285.112 132.91,285.336 129.743,285.285 C124.136,285.041 118.586,283.977 113.206,282.397 C108.566,281.041 103.946,279.615 99.373,278.052 C95.663,276.751 91.896,275.62 88.223,274.218 C83.716,272.49 79.317,270.482 75.037,268.26 C72.073,266.688 69.146,265.041 66.092,263.647 C62.33,261.899 58.622,260.014 55.078,257.854 C48.075,253.474 41.993,247.668 37.157,240.98 C32.562,234.675 28.019,228.25 24.795,221.111 C20.652,212.397 17.622,203.226 14.513,194.11 C12.875,189.266 11.282,184.404 9.721,179.533 C8.251,175.022 6.782,170.506 5.626,165.902 C4.351,160.912 3.429,155.842 2.547,150.769 C1.605,145.417 1.016,140.007 0.562,134.593 C0.385,132.295 0.185,129.999 0.175,127.691 C-0.334,121.412 0.302,115.086 1.608,108.935 C3.499,99.657 6.28,90.553 10.011,81.846 C13.212,74.27 17.281,67.092 21.711,60.172 C26.103,53.303 31.517,47.156 37.175,41.312 C40.821,37.498 44.862,34.097 48.945,30.767 C55.006,25.728 61.765,21.631 68.572,17.698 C76.637,13.072 85.185,9.268 94.086,6.564 C101.961,4.224 110.074,2.665 118.254,1.887 C122.719,1.484 127.187,1.076 131.668,0.917" id="path-1"></path>
    </defs>
    <g id="Artboard" stroke="none" stroke-width="1" fill="none" fill-rule="evenodd">
        <g id="Group-40" transform="translate(0.000000, -31.000000)">
            <mask id="mask-2" fill="white">
                <use xlink:href="#path-1"></use>
            </mask>
            <g id="Clip-6"></g>
            <path d="M95.086,43.69 C95.325,42.549 96.553,41.841 97.668,42.048 C98.981,42.294 100.059,43.143 101.098,43.929 C103.174,45.591 105.239,47.278 107.073,49.212 C109.043,51.256 110.8,53.504 112.354,55.881 C114.207,58.739 116.026,61.641 117.357,64.786 C118.633,64.227 119.941,63.664 121.346,63.544 C121.537,62.716 121.814,61.907 122.254,61.176 C123.251,59.477 124.344,57.776 125.907,56.537 C127.406,55.293 128.935,53.999 130.753,53.254 C131.369,53.373 132.031,53.771 131.972,54.493 C131.689,55.647 131.351,56.792 131.22,57.978 C134.059,54.769 137.515,52.125 141.314,50.155 C143.322,49.201 145.317,48.193 147.435,47.499 C149.934,46.757 152.449,46.064 154.985,45.446 C157.187,44.8 159.495,44.49 161.792,44.6 C162.466,44.694 163.247,44.676 163.79,45.152 C164.358,45.63 164.342,46.598 163.781,47.074 C163.272,47.518 162.641,47.782 162.07,48.131 C160.121,49.17 158.298,50.438 156.553,51.792 C153.12,54.771 149.775,57.907 147.044,61.558 C151.254,59.104 156.22,57.889 161.087,58.309 C161.939,58.38 162.79,59.119 162.645,60.036 C162.666,60.889 161.827,61.33 161.238,61.774 C159.634,63.011 158.031,64.252 156.466,65.538 C158.006,65.326 159.603,64.891 161.137,65.42 C162.461,62.024 164.413,58.93 166.386,55.881 C168.82,52.141 171.791,48.738 175.237,45.895 C176.591,44.791 177.899,43.612 179.398,42.701 C180.285,42.191 181.396,41.751 182.398,42.214 C183.692,42.736 183.847,44.331 184.196,45.506 C184.251,48.067 184.799,50.571 185.067,53.111 C185.541,58.624 185.714,64.25 184.519,69.689 C184.104,71.494 183.877,73.382 183.021,75.048 C182.762,75.669 182.831,76.441 183.196,77.009 C185.638,80.198 187.052,84.028 188.096,87.87 C188.974,90.932 189.3,94.112 189.663,97.266 C189.822,99.416 190.144,101.552 190.233,103.706 C190.51,104.989 190.282,106.317 190.56,107.598 C190.716,112.764 190.599,117.937 190.125,123.08 C189.544,126.261 189.502,129.531 188.643,132.664 C188.052,134.766 187.401,136.883 186.279,138.772 C184.543,141.624 182.61,144.371 180.327,146.814 C179.704,147.592 178.945,148.295 178.511,149.201 C178.446,151.413 178.322,153.645 178.662,155.841 C179.336,161.078 180.27,166.278 180.842,171.526 C181.582,177.711 182.309,183.904 183.511,190.021 C184.514,195.021 185.315,200.063 186.427,205.044 C187.546,210.502 188.612,215.969 189.76,221.42 C191.082,226.905 191.739,232.526 193.13,237.998 C194.374,242.882 195.436,247.809 196.7,252.687 C197.951,257.57 199.055,262.49 200.262,267.385 C201.321,270.619 202.603,273.782 204,276.887 C203.469,277.76 202.749,278.484 201.958,279.126 C200.374,277.549 199.851,275.293 198.797,273.383 C197.588,271.309 197.432,268.862 196.496,266.684 C195.177,262.665 194.194,258.547 193.075,254.474 C191.624,249.029 190.192,243.583 188.645,238.166 C187.44,233.851 186.561,229.458 185.622,225.08 C184.164,218.928 183.169,212.682 181.872,206.497 C180.665,201.159 179.743,195.763 178.63,190.406 C177.723,186.038 176.823,181.67 176.113,177.268 C175.444,173.297 174.991,169.295 174.441,165.308 C173.929,161.632 174.002,157.915 174.09,154.213 C173.462,154.217 172.722,154.199 172.368,153.585 C171.873,152.617 172.319,151.507 172.733,150.597 C172.956,150.275 173.168,149.946 173.372,149.615 C174.839,147.534 176.309,145.458 177.825,143.417 C180.115,140.449 182.612,137.48 183.741,133.839 C184.573,131.471 184.828,128.96 185.088,126.48 C185.334,123.719 185.597,120.955 185.571,118.18 C185.583,112.649 185.465,107.099 184.636,101.621 C184.061,97.616 183.311,93.625 182.196,89.734 C181.288,85.98 180.139,82.281 179.35,78.499 C179.193,77.09 179.49,75.685 179.385,74.278 C179.235,72.375 180.088,70.604 180.414,68.761 C181.748,63.117 181.389,57.279 181.166,51.539 C179.453,56.017 177.662,60.473 176.207,65.045 C175.52,66.956 174.993,68.924 174.188,70.793 C173.871,71.577 173.657,72.444 173,73.03 C172.745,72.924 172.489,72.825 172.236,72.735 C171.628,70.8 171.436,68.715 171.81,66.712 C172.949,59.544 176.483,53.042 180.435,47.056 C177.046,49.72 173.589,52.378 170.898,55.785 C168.455,58.937 166.267,62.291 164.314,65.772 C163.666,66.797 163.225,68 162.321,68.832 C161.624,69.186 160.951,68.77 160.721,68.084 C158.293,68.407 155.86,68.958 153.672,70.094 C152.564,70.621 151.516,71.338 150.3,71.588 C149.237,71.813 148.478,70.609 148.745,69.664 C149.067,68.533 149.925,67.666 150.481,66.652 C151.621,65.222 153.026,64.027 154.412,62.843 C153.711,62.965 153.02,63.144 152.407,63.519 C150.249,64.546 148.021,65.455 146.02,66.783 C144.446,67.659 142.981,69.032 141.053,68.924 C140.487,68.292 140.115,67.441 140.317,66.586 C140.706,64.174 142.2,62.171 143.614,60.256 C145.336,57.875 147.465,55.829 149.534,53.75 C150.801,52.583 151.976,51.237 153.536,50.451 C153.739,50.205 153.943,49.961 154.157,49.722 C152.373,50.116 150.686,50.824 148.954,51.387 C146.205,52.403 143.611,53.775 141.022,55.137 C137.238,57.53 133.892,60.53 130.634,63.583 C130.02,64.172 129.443,64.813 128.693,65.234 C128.073,64.983 127.482,64.565 127.323,63.873 C126.833,62.137 127.663,60.42 128.128,58.773 C128.01,58.785 127.778,58.811 127.663,58.822 C126.762,60.254 125.732,61.595 124.659,62.9 C124.017,63.691 123.382,64.51 123.038,65.48 C122.775,66.186 122.031,66.51 121.359,66.708 C120.281,66.986 119.173,67.105 118.081,67.305 C117.973,67.832 117.973,68.469 117.516,68.836 C116.886,69.128 116.164,68.843 115.869,68.232 C114.515,66.05 113.352,63.751 111.936,61.606 C110.239,59.045 108.554,56.452 106.462,54.187 C104.05,51.474 101.121,49.311 98.303,47.051 C101.997,52.651 105.312,58.675 106.68,65.308 C107.273,67.788 107.291,70.418 106.48,72.853 C106.045,72.807 105.54,72.899 105.223,72.533 C103.192,67.618 101.854,62.455 99.864,57.525 C99.098,55.587 98.45,53.603 97.594,51.702 C97.282,57.617 97.02,63.647 98.479,69.448 C98.813,71.041 99.5,72.595 99.358,74.255 C99.268,75.288 99.45,76.324 99.307,77.354 C99.197,78.15 99.186,78.957 99.063,79.754 C97.751,85.362 95.974,90.859 94.854,96.514 C94.013,100.859 93.344,105.255 93.141,109.681 C92.813,115.886 92.794,122.128 93.534,128.308 C93.767,130.45 94.077,132.6 94.796,134.639 C95.983,138.345 98.564,141.345 100.889,144.385 C102.374,146.426 103.873,148.461 105.282,150.56 C105.88,151.47 106.466,152.505 106.333,153.641 C106.321,154.33 105.673,154.923 104.99,154.896 C104.262,154.972 103.735,154.404 103.243,153.964 C103.278,156.44 103.372,158.931 103.087,161.396 C102.703,166.885 102.089,172.356 101.468,177.824 C100.742,184.05 99.647,190.225 98.5,196.384 C96.594,207.026 94.235,217.578 92.325,228.221 C91.215,234.071 90.23,239.95 89.061,245.792 C87.883,251.647 86.559,257.476 85.074,263.263 C84.104,267.265 82.724,271.148 81.665,275.123 C80.752,278.183 79.244,281.013 78.104,283.985 C77.986,284.362 77.614,284.542 77.237,284.48 C76.267,283.53 74.639,283.413 74.025,282.101 C73.882,281.473 74.386,281.009 74.694,280.535 C76.432,278.194 76.968,275.266 77.781,272.532 C78.117,271.33 78.676,270.198 78.975,268.987 C80.048,264.088 81.306,259.229 82.294,254.313 C84.524,243.302 86.214,232.193 88.187,221.135 C90.044,211.116 91.672,201.058 93.475,191.031 C94.396,185.997 95.171,180.937 95.884,175.867 C96.548,170.895 97.13,165.913 97.891,160.954 C98.484,157.045 98.567,153.047 99.613,149.215 C98.388,147.645 96.974,146.235 95.762,144.653 C94.555,143.081 93.454,141.428 92.406,139.75 C91.111,137.671 90.394,135.306 89.766,132.961 C89.015,130.089 88.989,127.103 88.46,124.197 C88.139,121.817 88.069,119.417 88.044,117.02 C87.669,111.66 88.074,106.29 88.582,100.956 C88.996,96.468 89.364,91.925 90.693,87.594 C91.674,84.191 92.987,80.81 95.134,77.963 C95.831,77.246 95.985,76.134 95.773,75.195 C94.778,73.186 94.514,70.926 94.04,68.758 C93.178,64.602 93.272,60.339 93.422,56.121 C93.626,53.893 93.762,51.656 94.173,49.454 C94.583,47.541 94.227,45.499 95.086,43.69" id="Fill-5" fill="#2C2C2E" mask="url(#mask-2)"></path>
            <path d="M129.618,69.423 C130.443,69.069 131.381,69.466 131.981,70.06 C132.376,70.722 132.179,71.508 132.117,72.228 C131.976,73.453 132.358,74.66 132.326,75.888 C132.355,76.968 131.086,77.8 130.096,77.433 C129.268,77.193 128.714,76.412 128.479,75.619 C128.123,74.296 127.967,72.906 128.123,71.545 C128.305,70.687 128.753,69.761 129.618,69.423" id="Fill-7" fill="#2C2C2E" mask="url(#mask-2)"></path>
            <path d="M136.961,69.875 C137.508,69.43 138.229,69.462 138.885,69.586 C138.979,70.007 139.186,70.43 139.097,70.871 C138.763,71.391 138.345,71.86 138.124,72.444 C137.54,73.74 137.781,75.255 137.165,76.538 C136.954,77.12 136.257,76.947 135.786,76.977 C134.898,76.058 135.34,74.72 135.395,73.595 C135.616,72.28 135.703,70.66 136.961,69.875" id="Fill-8" fill="#2C2C2E" mask="url(#mask-2)"></path>
            <path d="M143.504,72.604 C144.441,72.409 145.603,72.234 146.407,72.89 C146.895,73.508 147.186,74.501 146.594,75.152 C145.984,75.818 145.069,76.074 144.38,76.639 C143.262,77.439 142.747,78.878 141.515,79.541 C140.715,79.929 139.798,79.302 139.588,78.508 C139.182,77.527 139.735,76.508 140.214,75.667 C141.087,74.451 142.105,73.23 143.504,72.604" id="Fill-9" fill="#2C2C2E" mask="url(#mask-2)"></path>
            <path d="M155.527,111.005 C155.401,111.573 155.323,112.221 155.767,112.681 C156.957,114.164 158.401,115.421 159.686,116.819 C160.144,117.279 160.597,117.918 161.335,117.845 C161.427,117.707 161.61,117.431 161.702,117.295 C160.884,115.504 159.481,114.051 158.218,112.566 C157.481,111.828 156.741,110.635 155.527,111.005 Z M106.999,110.941 C106.464,111.465 106.65,112.318 107.128,112.817 C108.43,114.353 109.933,115.704 111.299,117.185 C111.642,117.498 112.044,118.026 112.577,117.778 C112.678,117.661 112.883,117.429 112.984,117.313 C112.115,115.475 110.683,113.969 109.363,112.442 C108.701,111.785 108.069,110.787 106.999,110.941 Z M166.732,103.584 C166.362,104.989 167.402,106.159 168.19,107.193 C168.958,108.106 169.581,109.168 170.489,109.95 L170.282,110.017 C170.625,110.352 171.051,110.547 171.54,110.479 C171.589,110.044 171.521,109.621 171.314,109.239 C170.623,107.733 169.811,106.281 168.853,104.929 C168.306,104.273 167.728,103.322 166.732,103.584 Z M117.998,103.577 C117.881,104.195 117.881,104.867 118.237,105.416 C119.141,107.019 120.44,108.352 121.509,109.844 L121.592,109.842 C121.725,110.09 121.92,110.297 122.118,110.504 C122.343,110.479 122.571,110.458 122.801,110.442 C122.849,110.012 122.773,109.596 122.566,109.221 C121.879,107.725 121.07,106.281 120.118,104.936 C119.571,104.278 118.996,103.331 117.998,103.577 Z M157.819,102.255 C157.388,103.522 158.266,104.653 158.889,105.676 C161.682,110.056 165.31,113.798 168.747,117.663 C169.26,118.215 169.823,118.868 170.657,118.824 L170.593,118.502 L170.934,118.539 C170.57,117.139 169.499,116.07 168.781,114.844 C167.377,112.495 165.644,110.371 164.018,108.175 C162.873,106.632 161.781,105.037 160.415,103.676 C159.712,102.97 158.958,101.947 157.819,102.255 Z M109.078,102.26 C108.621,103.71 109.738,104.947 110.432,106.104 C113.147,110.265 116.617,113.844 119.899,117.546 C120.449,118.127 121.024,118.87 121.918,118.822 L121.856,118.502 L122.196,118.537 C121.829,117.139 120.759,116.07 120.042,114.844 C118.575,112.389 116.75,110.18 115.06,107.878 C113.996,106.435 112.959,104.954 111.683,103.683 C110.977,102.977 110.221,101.94 109.078,102.26 Z M156.95,94.629 C159.933,94.374 162.933,94.385 165.924,94.475 C168.687,94.712 171.411,95.326 174.085,96.045 C176.226,96.931 177.851,98.682 179.363,100.381 C180.775,101.984 181.069,104.186 181.159199,106.239 C181.18,110.775 179.538,115.067 177.984,119.259 C177.014,121.61 175.356,123.595 173.552,125.358 C170.62,128.011 166.423,129.489 162.498,128.549 C160.507,128.156 158.541,127.471 156.863,126.314 C155.159,124.972 153.39,123.693 151.945,122.059 C150.21,120.468 149.164,118.33 147.911,116.375 C146.513,114.522 145.363,112.47 144.575,110.283 C142.251,109.57 139.8,109.734 137.404,109.773 C136.062,109.752 134.88,110.46 133.705,111.014 C132.9,113.123 131.827,115.136 130.459,116.934 C129.153,118.916 128.112,121.121 126.334,122.749 C125.137,124.091 123.729,125.218 122.304,126.308 C120.483,127.898 118.147,128.767 115.803,129.232 C111.766,130.204 107.432,128.629 104.484,125.818 C103.11,124.399 101.767,122.902 100.864,121.13 C100.001,119.56 99.579,117.806 98.917,116.153 C97.581,112.189 96.516,107.885 97.544,103.722 C97.985,101.853 99.39,100.455 100.721,99.163 C102,97.933 103.471,96.765 105.262,96.441 C108.046,95.802 110.86,95.11 113.738,95.124 C117.499,95.059 121.277,95.167 125.003,95.719 C127.013,95.995 128.905,96.818 130.615,97.887 C131.631,98.528 132.553,99.388 133.024,100.515 C133.815,102.621 134.6,104.807 134.461,107.097 C136.606,105.888 139.161,105.701 141.563,105.979 C142.34,106.108 143.085,106.37 143.813,106.665 C143.655,104.228 144.446,101.88 145.336,99.65 C146.134,97.958 147.851,96.997 149.465,96.211 C151.773,95.034 154.408,94.825 156.95,94.629 L156.95,94.629 Z" id="Fill-10" fill="#2C2C2E" mask="url(#mask-2)"></path>
            <path d="M134.643,123.47 C130.827,124.192 127.668,126.781 125.245,129.701 C122.348,133.625 121.005,138.628 121.304,143.477 C121.387,145.702 122.378,147.741 123.429,149.659 C124.318,151.3 125.617,152.659 126.845,154.047 C128.316,155.689 130.187,156.914 132.158,157.877 C133.753,158.71 135.457,159.333 137.228,159.673 C139.053,160.041 140.993,160.409 142.828,159.97 C145.129,159.754 147.292,158.79 149.265,157.627 C150.849,156.664 152.444,155.65 153.697,154.264 C155.015,152.695 156.171,150.976 157.024,149.109 C158.235,146.583 158.225,143.702 158.201,140.959 C158.077,138.71 157.638,136.444 156.602,134.425 C154.693,130.694 151.518,127.774 147.993,125.585 L147.978,125.54 C146.414,124.565 144.681,123.917 142.936,123.355 C140.214,122.688 137.367,122.962 134.643,123.47 Z M136.844,120.475 C137.876,120.38 138.91,120.261 139.949,120.22 C142.513,120.357 145.127,120.537 147.534,121.516 C151.079,122.914 154.475,124.907 157.065,127.74 C158.475,129.363 159.802,131.094 160.678,133.071 C161.682,135.253 162.107,137.648 162.325,140.025 C162.396,142.573 162.42,145.166 161.763,147.647 C160.994,150.355 159.381,152.693 158.008,155.114 C156.477,157.88 153.957,159.903 151.339,161.579 C148.716,163.354 145.628,164.347 142.501,164.724 C141.565,164.827 140.623,164.786 139.694,164.936 C138.231,165.138 136.776,164.809 135.326,164.691 C133.468,164.43 131.7,163.722 130.103,162.754 C126.199,160.698 123.295,157.273 120.571,153.894 C119.449,152.514 118.913,150.799 118.194,149.203 C116.124,144.438 116.511,138.844 118.64,134.168 C119.587,131.832 121.012,129.714 122.723,127.871 C124.021,126.482 125.318,125.031 126.994,124.089 C130.038,122.353 133.284,120.707 136.844,120.475 L136.844,120.475 Z" id="Fill-11" fill="#2C2C2E" mask="url(#mask-2)"></path>
            <path d="M144.387,130.912 C145.102,130.14 146.074,128.928 147.246,129.586 C147.23,130.262 147.283,130.988 146.906,131.59 C146.113,133.004 145.35,134.446 144.375,135.747 C143.4,136.991 142.552,138.405 141.184,139.265 C141.4,141.281 140.876,143.369 141.563,145.325 C142.046,147.212 143.372,148.982 145.263,149.61 C147.317,150.082 149.52,149.886 151.458,149.047 C153.433,147.95 153.682,145.525 154.394,143.612 C154.607,143.607 155.033,143.596 155.247,143.589 C155.261,144.313 155.247,145.042 155.196,145.769 C154.775,147.086 154.387,148.436 153.677,149.631 C152.78,150.948 151.27,151.661 149.819,152.201 C148.419,152.735 146.901,152.567 145.441,152.493 C143.173,151.659 141.184,150.192 139.706,148.281 C139.11,149.401 138.457,150.537 137.452,151.344 C136.832,151.87 136.08,152.199 135.347,152.532 C133.487,152.652 131.517,152.831 129.778,152.02 C127.971,151.199 126.44,149.615 125.932,147.665 C125.516,146.047 124.682,144.32 125.403,142.66 C126.429,143.173 126.351,144.463 126.868,145.353 C127.622,147.27 129.498,148.385 131.275,149.222 C132.344,149.504 133.526,149.525 134.602,149.254 C136.602,148.139 137.754,145.727 137.593,143.472 C137.496,142.03 137.637,140.589 137.533,139.152 C137.011,138.883 136.574,138.49 136.245,138.009 C134.896,136.143 133.335,134.435 132.101,132.487 C131.675,131.687 131.165,130.809 131.335,129.871 C131.583,129.379 132.199,129.602 132.636,129.531 C134.215,130.839 135.156,132.729 136.763,134.009 C137.776,134.823 138.438,135.977 139.448,136.793 C141.058,134.802 142.777,132.903 144.387,130.912" id="Fill-12" fill="#2C2C2E" mask="url(#mask-2)"></path>
            <path d="M165.353,163.968 C165.443,163.016 166.28,162.021 167.316,162.197 C167.894,162.207 168.335,162.641 168.637,163.099 C169.317,165.282 168.687,167.628 169.312,169.821 C169.517,170.563 170.039,171.329 169.708,172.12 C169.377,172.716 168.648,172.819 168.041,172.681 C167.034,172.166 166.287,171.219 166.031,170.117 C165.576,168.108 165.135,166.041 165.353,163.968" id="Fill-13" fill="#2C2C2E" mask="url(#mask-2)"></path>
            <path d="M112.124,166.947 C112.483,166.467 113.216,166.441 113.72,166.683 C114.764,167.397 114.598,168.814 114.727,169.918 C114.729,171.458 115.159,173.297 114.002,174.548 C113.639,175.019 113.014,174.891 112.501,174.881 C112.324,174.605 112.06,174.368 112.014,174.035 C111.749,172.439 111.899,170.821 111.766,169.216 C111.747,168.458 111.604,167.579 112.124,166.947" id="Fill-14" fill="#2C2C2E" mask="url(#mask-2)"></path>
            <path d="M129.254,189.434 C129.326,188.646 130.001,188.089 130.755,187.97 C131.466,188.167 132.114,188.696 132.204,189.471 C132.365,190.914 132.248,192.379 132.124,193.825 C132.039,194.793 131.767,195.903 130.852,196.414 C130.5,196.518 130.128,196.457 129.771,196.472 C129.148,196.022 128.935,195.246 129.105,194.515 C129.415,192.832 129.089,191.124 129.254,189.434" id="Fill-15" fill="#2C2C2E" mask="url(#mask-2)"></path>
            <path d="M160.268,189.082 C160.923,188.739 161.763,188.912 162.279,189.427 C163.004,190.08 163.174,191.099 163.291,192.021 C163.408,193.133 163.999,194.131 164.114,195.246 C164.172,196.126 163.397,196.998 162.486,196.92 C161.289,196.816 160.425,195.745 160.123,194.65 C159.858,193.673 159.436,192.749 159.206,191.765 C158.978,190.774 159.298,189.556 160.268,189.082" id="Fill-16" fill="#2C2C2E" mask="url(#mask-2)"></path>
            <path d="M108.069,209.521 C108.774,208.952 109.887,209.495 110.011,210.362 C110.312,212.192 109.956,214.054 109.885,215.894 C109.782,217.153 108.949,218.707 107.482,218.556 C107.204,218.298 106.839,218.045 106.88,217.622 C106.871,215.965 107.216,214.325 107.299,212.67 C107.485,211.622 107.165,210.302 108.069,209.521" id="Fill-17" fill="#2C2C2E" mask="url(#mask-2)"></path>
            <path d="M150.276,216.098 C150.451,215.438 150.87,214.578 151.674,214.624 C152.483,214.592 152.928,215.454 153.074,216.14 C153.329,217.675 152.902,219.211 152.84,220.749 C152.697,221.97 152.764,223.425 151.743,224.303 C151.532,224.306 151.111,224.308 150.899,224.31 C150.346,223.903 150.171,223.223 150.157,222.572 C150.081,220.415 149.842,218.231 150.276,216.098" id="Fill-18" fill="#2C2C2E" mask="url(#mask-2)"></path>
            <path d="M126.76,234.653 C127.01,234.35 127.236,234.025 127.47,233.711 C127.679,233.706 128.093,233.697 128.3,233.692 C128.581,233.984 128.879,234.304 128.907,234.74 C129.077,236.049 128.833,237.368 128.664,238.667 C128.44,240.127 128.151,241.704 127.086,242.808 C126.59,243.325 125.817,243.224 125.18,243.121 C125.095,242.854 125.015,242.599 124.935,242.339 C125.157,241.436 125.436,240.521 125.357,239.582 C125.219,237.862 125.486,235.923 126.76,234.653" id="Fill-19" fill="#2C2C2E" mask="url(#mask-2)"></path>
            <path d="M172.012,235.614 C173.025,235.173 174.09,236.033 174.226,237.044 C174.515,238.619 174.963,240.162 175.511,241.668 C175.803,242.295 175.552,243.146 174.888,243.42 C174.154,243.785 173.377,243.261 172.855,242.769 C171.635,241.566 171.393,239.789 171.107,238.183 C170.942,237.256 171.078,236.088 172.012,235.614" id="Fill-20" fill="#2C2C2E" mask="url(#mask-2)"></path>
            <path d="M104.434,251.696 C105.207,251.186 106.329,251.482 106.802,252.267 C107.347,253.14 107.151,254.214 107.202,255.192 C107.163,256.724 107.352,258.372 106.618,259.781 C106.186,260.579 105.2,261.292 104.273,260.908 C103.365,260.593 103.101,259.511 103.094,258.655 C103.282,256.749 103.305,254.829 103.569,252.933 C103.685,252.427 103.997,251.972 104.434,251.696" id="Fill-21" fill="#2C2C2E" mask="url(#mask-2)"></path>
            <path d="M152.123,256.825 C152.514,255.979 153.709,256.239 153.941,257.06 C154.288,258.321 154.233,259.66 154.276,260.961 C154.291,262.219 153.884,263.762 152.61,264.292 C152.348,264.191 152.091,264.097 151.833,264.012 C151.293,262.975 151.826,261.818 151.796,260.727 C151.957,259.433 151.614,258.055 152.123,256.825" id="Fill-22" fill="#2C2C2E" mask="url(#mask-2)"></path>
            <path d="M124.739,280.406 C124.41,282.119 123.976,283.809 123.47,285.478 C124.454,285.43 125.408,285.744 126.392,285.756 C126.847,284.608 126.932,283.333 127.121,282.114 C127.171,281.022 127.463,279.822 126.863,278.831 C126.484,278.717 126.065,278.449 125.686,278.707 C125.045,279.011 124.865,279.771 124.739,280.406 Z M152.123,256.825 C151.614,258.055 151.957,259.433 151.796,260.727 C151.826,261.818 151.293,262.975 151.833,264.012 C152.091,264.097 152.348,264.191 152.61,264.292 C153.884,263.762 154.291,262.219 154.276,260.961 C154.233,259.66 154.288,258.321 153.941,257.06 C153.709,256.239 152.514,255.979 152.123,256.825 Z M104.434,251.696 C103.997,251.972 103.685,252.427 103.569,252.933 C103.305,254.829 103.282,256.749 103.094,258.655 C103.101,259.511 103.365,260.593 104.273,260.908 C105.2,261.292 106.186,260.579 106.618,259.781 C107.352,258.372 107.163,256.724 107.202,255.192 C107.151,254.214 107.347,253.14 106.802,252.267 C106.329,251.482 105.207,251.186 104.434,251.696 Z M126.76,234.653 C125.486,235.923 125.219,237.862 125.357,239.582 C125.436,240.521 125.157,241.436 124.935,242.339 C125.015,242.599 125.095,242.854 125.18,243.121 C125.817,243.224 126.59,243.325 127.086,242.808 C128.151,241.704 128.44,240.127 128.664,238.667 C128.833,237.368 129.077,236.049 128.907,234.74 C128.879,234.304 128.581,233.984 128.3,233.692 C128.093,233.697 127.679,233.706 127.47,233.711 C127.236,234.025 127.01,234.35 126.76,234.653 Z M150.276,216.098 C149.842,218.231 150.081,220.415 150.157,222.572 C150.171,223.223 150.346,223.903 150.899,224.31 C151.111,224.308 151.532,224.306 151.743,224.303 C152.764,223.425 152.697,221.97 152.84,220.749 C152.902,219.211 153.329,217.675 153.074,216.14 C152.928,215.454 152.483,214.592 151.674,214.624 C150.87,214.578 150.451,215.438 150.276,216.098 Z M108.069,209.521 C107.165,210.302 107.485,211.622 107.299,212.67 C107.216,214.325 106.871,215.965 106.88,217.622 C106.839,218.045 107.204,218.298 107.482,218.556 C108.949,218.707 109.782,217.153 109.885,215.894 C109.956,214.054 110.312,212.192 110.011,210.362 C109.887,209.495 108.774,208.952 108.069,209.521 Z M160.268,189.082 C159.298,189.556 158.978,190.774 159.206,191.765 C159.436,192.749 159.858,193.673 160.123,194.65 C160.425,195.745 161.289,196.816 162.486,196.92 C163.397,196.998 164.172,196.126 164.114,195.246 C163.999,194.131 163.408,193.133 163.291,192.021 C163.174,191.099 163.004,190.08 162.279,189.427 C161.763,188.912 160.923,188.739 160.268,189.082 Z M129.254,189.434 C129.089,191.124 129.415,192.832 129.105,194.515 C128.935,195.246 129.148,196.022 129.771,196.472 C130.128,196.457 130.5,196.518 130.852,196.414 C131.767,195.903 132.039,194.793 132.124,193.825 C132.248,192.379 132.365,190.914 132.204,189.471 C132.114,188.696 131.466,188.167 130.755,187.97 C130.001,188.089 129.326,188.646 129.254,189.434 Z M112.124,166.947 C111.604,167.579 111.747,168.458 111.766,169.216 C111.899,170.821 111.749,172.439 112.014,174.035 C112.06,174.368 112.324,174.605 112.501,174.881 C113.014,174.891 113.639,175.019 114.002,174.548 C115.159,173.297 114.729,171.458 114.727,169.918 C114.598,168.814 114.764,167.397 113.72,166.683 C113.216,166.441 112.483,166.467 112.124,166.947 Z M136.844,120.475 C133.284,120.707 130.038,122.353 126.994,124.089 C125.318,125.031 124.021,126.482 122.723,127.871 C121.012,129.714 119.587,131.832 118.64,134.168 C116.511,138.844 116.124,144.438 118.194,149.203 C118.913,150.799 119.449,152.514 120.571,153.894 C123.295,157.273 126.199,160.698 130.103,162.754 C131.7,163.722 133.468,164.43 135.326,164.691 C136.776,164.809 138.231,165.138 139.694,164.936 C140.623,164.786 141.565,164.827 142.501,164.724 C145.628,164.347 148.716,163.354 151.339,161.579 C153.957,159.903 156.477,157.88 158.008,155.114 C159.381,152.693 160.994,150.355 161.763,147.647 C162.42,145.166 162.396,142.573 162.325,140.025 C162.107,137.648 161.682,135.253 160.678,133.071 C159.802,131.094 158.475,129.363 157.065,127.74 C154.475,124.907 151.079,122.914 147.534,121.516 C145.127,120.537 142.513,120.357 139.949,120.22 C138.91,120.261 137.876,120.38 136.844,120.475 Z M156.95,94.629 C154.408,94.825 151.773,95.034 149.465,96.211 C147.851,96.997 146.134,97.958 145.336,99.65 C144.446,101.88 143.655,104.228 143.813,106.665 C143.085,106.37 142.34,106.108 141.563,105.979 C139.161,105.701 136.606,105.888 134.461,107.097 C134.6,104.807 133.815,102.621 133.024,100.515 C132.553,99.388 131.631,98.528 130.615,97.887 C128.905,96.818 127.013,95.995 125.003,95.719 C121.277,95.167 117.499,95.059 113.738,95.124 C110.86,95.11 108.046,95.802 105.262,96.441 C103.471,96.765 102,97.933 100.721,99.163 C99.39,100.455 97.985,101.853 97.544,103.722 C96.516,107.885 97.581,112.189 98.917,116.153 C99.579,117.806 100.001,119.56 100.864,121.13 C101.767,122.902 103.11,124.399 104.484,125.818 C107.432,128.629 111.766,130.204 115.803,129.232 C118.147,128.767 120.483,127.898 122.304,126.308 C123.729,125.218 125.137,124.091 126.334,122.749 C128.112,121.121 129.153,118.916 130.459,116.934 C131.827,115.136 132.9,113.123 133.705,111.014 C134.88,110.46 136.062,109.752 137.404,109.773 C139.8,109.734 142.251,109.57 144.575,110.283 C145.363,112.47 146.513,114.522 147.911,116.375 C149.164,118.33 150.21,120.468 151.945,122.059 C153.39,123.693 155.159,124.972 156.863,126.314 C158.541,127.471 160.507,128.156 162.498,128.549 C166.423,129.489 170.62,128.011 173.552,125.358 C175.356,123.595 177.014,121.61 177.984,119.259 C179.538,115.067 181.18,110.775 181.159199,106.239 C181.069,104.186 180.775,101.984 179.363,100.381 C177.851,98.682 176.226,96.931 174.085,96.045 C171.411,95.326 168.687,94.712 165.924,94.475 C162.933,94.385 159.933,94.374 156.95,94.629 Z M143.504,72.604 C142.105,73.23 141.087,74.451 140.214,75.667 C139.735,76.508 139.182,77.527 139.588,78.508 C139.798,79.302 140.715,79.929 141.515,79.541 C142.747,78.878 143.262,77.439 144.38,76.639 C145.069,76.074 145.984,75.818 146.594,75.152 C147.186,74.501 146.895,73.508 146.407,72.89 C145.603,72.234 144.441,72.409 143.504,72.604 Z M136.961,69.875 C135.703,70.66 135.616,72.28 135.395,73.595 C135.34,74.72 134.898,76.058 135.786,76.977 C136.257,76.947 136.954,77.12 137.165,76.538 C137.781,75.255 137.54,73.74 138.124,72.444 C138.345,71.86 138.763,71.391 139.097,70.871 C139.186,70.43 138.979,70.007 138.885,69.586 C138.229,69.462 137.508,69.43 136.961,69.875 Z M129.618,69.423 C128.753,69.761 128.305,70.687 128.123,71.545 C127.967,72.906 128.123,74.296 128.479,75.619 C128.714,76.412 129.268,77.193 130.096,77.433 C131.086,77.8 132.355,76.968 132.326,75.888 C132.358,74.66 131.976,73.453 132.117,72.228 C132.179,71.508 132.376,70.722 131.981,70.06 C131.381,69.466 130.443,69.069 129.618,69.423 Z M98.303,47.051 C101.121,49.311 104.05,51.474 106.462,54.187 C108.554,56.452 110.239,59.045 111.936,61.606 C113.352,63.751 114.515,66.05 115.869,68.232 C116.164,68.843 116.886,69.128 117.516,68.836 C117.973,68.469 117.973,67.832 118.081,67.305 C119.173,67.105 120.281,66.986 121.359,66.708 C122.031,66.51 122.775,66.186 123.038,65.48 C123.382,64.51 124.017,63.691 124.659,62.9 C125.732,61.595 126.762,60.254 127.663,58.822 C127.778,58.811 128.01,58.785 128.128,58.773 C127.663,60.42 126.833,62.137 127.323,63.873 C127.482,64.565 128.073,64.983 128.693,65.234 C129.443,64.813 130.02,64.172 130.634,63.583 C133.892,60.53 137.238,57.53 141.022,55.137 C143.611,53.775 146.205,52.403 148.954,51.387 C150.686,50.824 152.373,50.116 154.157,49.722 C153.943,49.961 153.739,50.205 153.536,50.451 C151.976,51.237 150.801,52.583 149.534,53.75 C147.465,55.829 145.336,57.875 143.614,60.256 C142.2,62.171 140.706,64.174 140.317,66.586 C140.115,67.441 140.487,68.292 141.053,68.924 C142.981,69.032 144.446,67.659 146.02,66.783 C148.021,65.455 150.249,64.546 152.407,63.519 C153.02,63.144 153.711,62.965 154.412,62.843 C153.026,64.027 151.621,65.222 150.481,66.652 C149.925,67.666 149.067,68.533 148.745,69.664 C148.478,70.609 149.237,71.813 150.3,71.588 C151.516,71.338 152.564,70.621 153.672,70.094 C155.86,68.958 158.293,68.407 160.721,68.084 C160.951,68.77 161.624,69.186 162.321,68.832 C163.225,68 163.666,66.797 164.314,65.772 C166.267,62.291 168.455,58.937 170.898,55.785 C173.589,52.378 177.046,49.72 180.435,47.056 C176.483,53.042 172.949,59.544 171.81,66.712 C171.436,68.715 171.628,70.8 172.236,72.735 C172.489,72.825 172.745,72.924 173,73.03 C174.341,73.77 175.757,74.359 177.127,75.032 C178.054,76.044 178.736,77.274 179.35,78.499 C180.139,82.281 181.288,85.98 182.196,89.734 C182.069,90.395 181.948,91.073 182.047,91.751 C182.429,95.024 182.497,98.326 182.789,101.609 C183.015,103.375 182.902,105.161 183.12,106.929 C183.23,109.823 183.249,112.729 183.079,115.624 C182.309,120.734 181.27,125.802 180.499,130.912 C180.232,132.6 179.811,134.264 179.221,135.869 C178.049,139.547 176.607,143.155 174.699,146.516 C174.108,147.477 173.37,148.426 173.372,149.615 C173.168,149.946 172.956,150.275 172.733,150.597 C171.462,151.473 170.841,153.001 170.421,154.431 C169.82,157.31 169.455,160.231 169.066,163.145 C168.958,163.133 168.744,163.11 168.637,163.099 C168.335,162.641 167.894,162.207 167.316,162.197 C166.28,162.021 165.443,163.016 165.353,163.968 C165.135,166.041 165.576,168.108 166.031,170.117 C166.287,171.219 167.034,172.166 168.041,172.681 C167.875,175.831 167.45,178.964 167.135,182.103 C166.949,184.401 166.708,186.695 166.528,188.997 C166.248,191.822 166.397,194.664 166.338,197.499 C166.014,201.552 166.177,205.624 166.148,209.686 C166.085,211.907 166.418,214.116 166.381,216.339 C166.8,221.693 167.195,227.053 167.608,232.409 C168.061,235.938 168.264,239.493 168.687,243.026 C169.25,247.627 169.883,252.22 170.515,256.812 C171.363,261.446 171.676,266.164 172.689,270.771 C173.278,273.454 173.382,276.215 173.978,278.898 C174.428,281.804 174.8,284.724 175.037,287.657 C175.368,289.669 175.674,291.689 176.173,293.672 L176.188,293.727 C171.078,295.392 165.931,296.991 160.631,297.945 C155.44,298.858 150.254,299.849 145.017,300.458 C131.388,302.102 117.38,301.612 104.105,297.95 C102.144,297.47 100.417,296.389 98.542,295.69 C96.537,294.844 94.433,294.237 92.504,293.221 C90.086,291.945 87.571,290.869 85.208,289.489 C83.182,288.317 81.019,287.345 79.198,285.854 C78.572,285.349 77.812,285.041 77.237,284.48 C77.614,284.542 77.986,284.362 78.104,283.985 C79.244,281.013 80.752,278.183 81.665,275.123 C82.724,271.148 84.104,267.265 85.074,263.263 C86.559,257.476 87.883,251.647 89.061,245.792 C90.23,239.95 91.215,234.071 92.325,228.221 C94.235,217.578 96.594,207.026 98.5,196.384 C99.647,190.225 100.742,184.05 101.468,177.824 C102.089,172.356 102.703,166.885 103.087,161.396 C103.372,158.931 103.278,156.44 103.243,153.964 C103.735,154.404 104.262,154.972 104.99,154.896 C105.673,154.923 106.321,154.33 106.333,153.641 C106.466,152.505 105.88,151.47 105.282,150.56 C103.873,148.461 102.374,146.426 100.889,144.385 C98.564,141.345 95.983,138.345 94.796,134.639 C94.077,132.6 93.767,130.45 93.534,128.308 C92.794,122.128 92.813,115.886 93.141,109.681 C93.344,105.255 94.013,100.859 94.854,96.514 C95.974,90.859 97.751,85.362 99.063,79.754 C99.186,78.957 99.197,78.15 99.307,77.354 C100.05,77.157 100.482,76.52 100.939,75.963 C102.103,74.515 103.834,73.727 105.223,72.533 C105.54,72.899 106.045,72.807 106.48,72.853 C107.291,70.418 107.273,67.788 106.68,65.308 C105.312,58.675 101.997,52.651 98.303,47.051 L98.303,47.051 Z" id="Fill-25" fill="#E1D4BE" mask="url(#mask-2)"></path>
            <path d="M176.207,65.045 C177.662,60.473 179.453,56.017 181.166,51.539 C181.389,57.279 181.748,63.117 180.414,68.761 C180.088,70.604 179.235,72.375 179.385,74.278 C179.49,75.685 179.193,77.09 179.35,78.499 C178.736,77.274 178.054,76.044 177.127,75.032 C175.757,74.359 174.341,73.77 173,73.03 C173.657,72.444 173.871,71.577 174.188,70.793 C174.993,68.924 175.52,66.956 176.207,65.045" id="Fill-26" fill="#E5C2B7" mask="url(#mask-2)"></path>
            <path d="M97.594,51.702 C98.45,53.603 99.098,55.587 99.864,57.525 C101.854,62.455 103.192,67.618 105.223,72.533 C103.834,73.727 102.103,74.515 100.939,75.963 C100.482,76.52 100.05,77.157 99.307,77.354 C99.45,76.324 99.268,75.288 99.358,74.255 C99.5,72.595 98.813,71.041 98.479,69.448 C97.02,63.647 97.282,57.617 97.594,51.702" id="Fill-27" fill="#E5C2B7" mask="url(#mask-2)"></path>
            <path d="M182.196,89.734 C183.311,93.625 184.061,97.616 184.636,101.621 C185.465,107.099 185.583,112.649 185.571,118.18 C185.597,120.955 185.334,123.719 185.088,126.48 C184.828,128.96 184.573,131.471 183.741,133.839 C182.612,137.48 180.115,140.449 177.825,143.417 C176.309,145.458 174.839,147.534 173.371996,149.615 C173.37,148.426 174.108,147.477 174.699,146.516 C176.607,143.155 178.049,139.547 179.221,135.869 C179.811,134.264 180.232,132.6 180.499,130.912 C181.27,125.802 182.309,120.734 183.079,115.624 C183.249,112.729 183.23,109.823 183.12,106.929 C182.902,105.161 183.015,103.375 182.789,101.609 C182.497,98.326 182.429,95.024 182.047,91.751 C181.948,91.073 182.069,90.395 182.196,89.734" id="Fill-28" fill="#D3C9B4" mask="url(#mask-2)"></path>
            <path d="M122.566,109.221 C122.773,109.596 122.849,110.012 122.801,110.442 C122.571,110.458 122.343,110.479 122.118,110.504 C121.92,110.297 121.725,110.09 121.592,109.842 C121.833,109.828 122.079,109.816 122.33,109.807 C122.387,109.663 122.507,109.368 122.566,109.221" id="Fill-29" fill="#D3C9B4" mask="url(#mask-2)"></path>
            <path d="M171.314,109.239 C171.521,109.621 171.589,110.044 171.54,110.479 C171.051,110.547 170.625,110.352 170.282,110.017 L170.489,109.95 C170.669,109.89 170.855,109.83 171.041,109.771 C171.11,109.637 171.246,109.373 171.314,109.239" id="Fill-30" fill="#D3C9B4" mask="url(#mask-2)"></path>
            <path d="M178.421,270.711 C177.635,271.127 177.686,272.166 177.791,272.928 C178.023,274.245 178.37,275.553 178.842,276.809 C179.076,277.507 179.881,278.208 180.633,277.765 C181.313,277.036 181.088,275.896 180.855,275.028 C180.426,273.821 180.439,272.502 179.943,271.325 C179.701,270.723 179.008,270.49 178.421,270.711 Z M172.012,235.614 C171.078,236.088 170.942,237.256 171.107,238.183 C171.393,239.789 171.635,241.566 172.855,242.769 C173.377,243.261 174.154,243.785 174.888,243.42 C175.552,243.146 175.803,242.295 175.511,241.668 C174.963,240.162 174.515,238.619 174.226,237.044 C174.09,236.033 173.025,235.173 172.012,235.614 Z M170.421,154.431 C170.841,153.001 171.462,151.473 172.733,150.597 C172.319,151.507 171.873,152.617 172.368,153.585 C172.722,154.199 173.462,154.217 174.09,154.213 C174.002,157.915 173.929,161.632 174.441,165.308 C174.991,169.295 175.444,173.297 176.113,177.268 C176.823,181.67 177.723,186.038 178.63,190.406 C179.743,195.763 180.665,201.159 181.872,206.497 C183.169,212.682 184.164,218.928 185.622,225.08 C186.561,229.458 187.44,233.851 188.645,238.166 C190.192,243.583 191.624,249.029 193.075,254.474 C194.194,258.547 195.177,262.665 196.496,266.684 C197.432,268.862 197.588,271.309 198.797,273.383 C199.851,275.293 200.374,277.549 201.958,279.126 C200.759,281.133 199.133,282.928 197.041,284.027 C193.673,285.797 190.422,287.798 186.932,289.326 C183.417,290.945 179.835,292.423 176.173,293.672 C175.674,291.689 175.368,289.669 175.037,287.657 C174.8,284.724 174.428,281.804 173.978,278.898 C173.382,276.215 173.278,273.454 172.689,270.771 C171.676,266.164 171.363,261.446 170.515,256.812 C169.883,252.22 169.25,247.627 168.687,243.026 C168.264,239.493 168.061,235.938 167.608,232.409 C167.195,227.053 166.8,221.693 166.381,216.339 C166.418,214.116 166.085,211.907 166.148,209.686 C166.177,205.624 166.014,201.552 166.338,197.499 C166.397,194.664 166.248,191.822 166.528,188.997 C166.708,186.695 166.949,184.401 167.135,182.103 C167.45,178.964 167.875,175.831 168.041,172.681 C168.648,172.819 169.377,172.716 169.708,172.12 C170.039,171.329 169.517,170.563 169.312,169.821 C168.687,167.628 169.317,165.282 168.637,163.099 C168.744,163.11 168.958,163.133 169.066,163.145 C169.455,160.231 169.82,157.31 170.421,154.431 L170.421,154.431 Z" id="Fill-31" fill="#D3C9B4" mask="url(#mask-2)"></path>
            <path d="M109.078,102.26 C110.221,101.94 110.977,102.977 111.683,103.683 C112.959,104.954 113.996,106.435 115.06,107.878 C116.75,110.18 118.575,112.389 120.042,114.844 C120.759,116.07 121.829,117.139 122.196,118.537 L121.856,118.502 L121.918,118.822 C121.024,118.87 120.449,118.127 119.899,117.546 C116.617,113.844 113.147,110.265 110.432,106.104 C109.738,104.947 108.621,103.71 109.078,102.26" id="Fill-32" fill="#FFFFFE" mask="url(#mask-2)"></path>
            <path d="M157.819,102.255 C158.958,101.947 159.712,102.97 160.415,103.676 C161.781,105.037 162.873,106.632 164.018,108.175 C165.644,110.371 167.377,112.495 168.781,114.844 C169.499,116.07 170.57,117.139 170.934,118.539 L170.593,118.502 L170.657,118.824 C169.823,118.868 169.26,118.215 168.747,117.663 C165.31,113.798 161.682,110.056 158.889,105.676 C158.266,104.653 157.388,103.522 157.819,102.255" id="Fill-33" fill="#FFFFFE" mask="url(#mask-2)"></path>
            <path d="M117.998,103.577 C118.996,103.331 119.571,104.278 120.118,104.936 C121.07,106.281 121.879,107.725 122.566,109.221 C122.507,109.368 122.387,109.663 122.33,109.807 C122.079,109.816 121.833,109.828 121.592,109.842 L121.509,109.844 C120.44,108.352 119.141,107.019 118.237,105.416 C117.881,104.867 117.881,104.195 117.998,103.577" id="Fill-34" fill="#FFFFFE" mask="url(#mask-2)"></path>
            <path d="M166.732,103.584 C167.728,103.322 168.306,104.273 168.853,104.929 C169.811,106.281 170.623,107.733 171.314,109.239 C171.246,109.373 171.11,109.637 171.041,109.771 C170.855,109.83 170.669,109.89 170.489,109.95 C169.581,109.168 168.958,108.106 168.19,107.193 C167.402,106.159 166.362,104.989 166.732,103.584" id="Fill-35" fill="#FFFFFE" mask="url(#mask-2)"></path>
            <path d="M106.999,110.941 C108.069,110.787 108.701,111.785 109.363,112.442 C110.683,113.969 112.115,115.475 112.984,117.313 C112.883,117.429 112.678,117.661 112.577,117.778 C112.044,118.026 111.642,117.498 111.299,117.185 C109.933,115.704 108.43,114.353 107.128,112.817 C106.65,112.318 106.464,111.465 106.999,110.941" id="Fill-36" fill="#FFFFFE" mask="url(#mask-2)"></path>
            <path d="M155.527,111.005 C156.741,110.635 157.481,111.828 158.218,112.566 C159.481,114.051 160.884,115.504 161.702,117.295 C161.61,117.431 161.427,117.707 161.335,117.845 C160.597,117.918 160.144,117.279 159.686,116.819 C158.401,115.421 156.957,114.164 155.767,112.681 C155.323,112.221 155.401,111.573 155.527,111.005" id="Fill-37" fill="#FFFFFE" mask="url(#mask-2)"></path>
            <path d="M134.643,123.47 C137.367,122.962 140.214,122.688 142.936,123.355 C144.681,123.917 146.414,124.565 147.978,125.54 L147.993,125.585 C148.311,126.68 149.159,127.496 149.594,128.535 C151.777,132.993 153.394,138.028 152.532,143.033 C152.283,145.116 151.555,147.09 150.782,149.026 C150.952,149.031 151.29,149.042 151.458,149.047 C149.52,149.886 147.317,150.082 145.263,149.61 C143.372,148.982 142.046,147.212 141.563,145.325 C140.876,143.369 141.4,141.281 141.184,139.265 C142.552,138.405 143.4,136.991 144.375,135.747 C145.35,134.446 146.113,133.004 146.906,131.59 C147.283,130.988 147.23,130.262 147.246,129.586 C146.074,128.928 145.102,130.14 144.387,130.912 C142.777,132.903 141.058,134.802 139.448,136.793 C138.438,135.977 137.776,134.823 136.763,134.009 C135.156,132.729 134.215,130.839 132.636,129.531 C132.199,129.602 131.583,129.379 131.335,129.871 C131.165,130.809 131.675,131.687 132.101,132.487 C133.335,134.435 134.896,136.143 136.245,138.009 C136.574,138.49 137.011,138.883 137.533,139.152 C137.637,140.589 137.496,142.03 137.593,143.472 C137.754,145.727 136.602,148.139 134.602,149.254 C133.526,149.525 132.344,149.504 131.275,149.222 C129.498,148.385 127.622,147.27 126.868,145.353 C126.351,144.463 126.429,143.173 125.403,142.66 C124.682,144.32 125.516,146.047 125.932,147.665 C126.44,149.615 127.971,151.199 129.778,152.02 C131.517,152.831 133.487,152.652 135.347,152.532 C136.08,152.199 136.832,151.87 137.452,151.344 C138.457,150.537 139.11,149.401 139.706,148.281 C141.184,150.192 143.173,151.659 145.441,152.493 C146.407,153.291 147.748,152.87 148.895,152.967 C147.35,155.684 145.062,157.832 142.828,159.97 C140.993,160.409 139.053,160.041 137.228,159.673 C135.457,159.333 133.753,158.71 132.158,157.877 C130.187,156.914 128.316,155.689 126.845,154.047 C125.617,152.659 124.318,151.3 123.429,149.659 C122.378,147.741 121.387,145.702 121.304,143.477 C121.005,138.628 122.348,133.625 125.245,129.701 C127.668,126.781 130.827,124.192 134.643,123.47" id="Fill-38" fill="#EEE5D2" mask="url(#mask-2)"></path>
            <path d="M147.993,125.585 C151.518,127.774 154.693,130.694 156.602,134.425 C157.638,136.444 158.077,138.71 158.201,140.959 C158.225,143.702 158.235,146.583 157.024,149.109 C156.171,150.976 155.015,152.695 153.697,154.264 C152.444,155.65 150.849,156.664 149.265,157.627 C147.292,158.79 145.129,159.754 142.828,159.97 C145.062,157.832 147.35,155.684 148.895,152.967 C147.748,152.87 146.407,153.291 145.441,152.493 C146.901,152.567 148.419,152.735 149.819,152.201 C151.27,151.661 152.78,150.948 153.677,149.631 C154.387,148.436 154.775,147.086 155.196,145.769 C155.247,145.042 155.261,144.313 155.247,143.589 C155.033,143.596 154.607,143.607 154.394,143.612 C153.682,145.525 153.433,147.95 151.458,149.047 C151.29,149.042 150.952,149.031 150.782,149.026 C151.555,147.09 152.283,145.116 152.532,143.033 C153.394,138.028 151.777,132.993 149.594,128.535 C149.159,127.496 148.311,126.68 147.993,125.585" id="Fill-39" fill="#DBD6C5" mask="url(#mask-2)"></path>
        </g>
    </g>
</svg>