<?xml version="1.0" encoding="UTF-8"?>
<svg width="537px" height="780px" viewBox="0 0 537 780" version="1.1" xmlns="http://www.w3.org/2000/svg" xmlns:xlink="http://www.w3.org/1999/xlink">
    <!-- Generator: Sketch 56.3 (81716) - https://sketch.com -->
    <title>Artboard</title>
    <desc>Created with Sketch.</desc>
    <defs>
        <polyline id="path-1" points="179.317 115.659 0.439 115.659 89.878 0.234 179.317 115.659"></polyline>
        <polyline id="path-3" points="141.506 0.7 0.538 0.7 0.53 0.71 71.013 91.673 71.03 91.673 141.514 0.71 141.506 0.7"></polyline>
        <polygon id="path-5" points="0 0.303 446.756 0.303 446.756 462 0 462"></polygon>
        <polyline id="path-7" points="88.966 116.207 88.946 116.207 0 1.416 0 0.755 178.407 0.755 178.416 0.767 88.966 116.207"></polyline>
        <polygon id="path-9" points="0 0.408 178.408 0.408 178.408 115.851 0 115.851"></polygon>
        <polyline id="path-11" points="0 115.211 0 0.399 88.949 0.399 88.957 0.408 0 115.211"></polyline>
        <linearGradient x1="-14.9271335%" y1="-33.2932969%" x2="54.2150292%" y2="55.9447619%" id="linearGradient-13">
            <stop stop-color="#F9F5F2" offset="0%"></stop>
            <stop stop-color="#B6B3B1" offset="100%"></stop>
        </linearGradient>
        <polygon id="path-14" points="0 0 88.956 0 88.956 684.659 0 684.659"></polygon>
        <polyline id="path-16" points="88.946 115.207 0 115.207 0 0.417 88.946 115.207"></polyline>
        <linearGradient x1="-201.721269%" y1="49.7116474%" x2="100.001124%" y2="49.7116474%" id="linearGradient-18">
            <stop stop-color="#0D2233" offset="0%"></stop>
            <stop stop-color="#0D2233" offset="100%"></stop>
        </linearGradient>
        <polygon id="path-19" points="0 0.852 267.865 0.852 267.865 578 0 578"></polygon>
        <polygon id="path-21" points="0 0.768 536.245 0.768 536.245 347 0 347"></polygon>
        <polygon id="path-23" points="0 0.852 267.884 0.852 267.884 231.767 0 231.767"></polygon>
        <polygon id="path-25" points="88.829566 116 -1.42108547e-14 1.36111916 -1.57772181e-30 0.667 178.375 0.667 178.364 0.681 178.378 0.699 89.0364329 116"></polygon>
        <linearGradient x1="10.0066617%" y1="85.583375%" x2="10.0066617%" y2="100.014875%" id="linearGradient-27">
            <stop stop-color="#21445D" offset="0%"></stop>
            <stop stop-color="#0D2233" offset="100%"></stop>
        </linearGradient>
        <polygon id="path-28" points="89.791566 116 0.435 0.681 0.446 0.667 179.337 0.667 179.326 0.681 179.34 0.699 89.9974339 116"></polygon>
        <linearGradient x1="30.1448463%" y1="85.583375%" x2="30.1448463%" y2="100.014875%" id="linearGradient-30">
            <stop stop-color="#21445D" offset="0%"></stop>
            <stop stop-color="#0D2233" offset="100%"></stop>
        </linearGradient>
        <polyline id="path-31" points="90.408 115.852 90.408 115.852 179.887 0.437 179.874 0.418 179.884 0.404 0.993 0.404 0.982 0.418 90.408 115.852"></polyline>
        <linearGradient x1="50.0002795%" y1="-8.66190839e-05%" x2="50.0002795%" y2="99.9999134%" id="linearGradient-33">
            <stop stop-color="#21445D" offset="0%"></stop>
            <stop stop-color="#0D2233" offset="100%"></stop>
        </linearGradient>
        <polyline id="path-34" points="0 114.782 0 0.523 88.506 0.523 88.495 0.538 88.509 0.556 0 114.782"></polyline>
        <linearGradient x1="-1.06633224%" y1="0.000875204579%" x2="-1.06633224%" y2="101.044994%" id="linearGradient-36">
            <stop stop-color="#41AB8A" offset="0%"></stop>
            <stop stop-color="#28705E" offset="100%"></stop>
        </linearGradient>
        <polyline id="path-37" points="0.891 116.201 0.891 116.201 90.325 0.782 0.891 116.201"></polyline>
        <polyline id="path-39" points="179.758 116.201 0.891 116.201 90.325 0.782 179.758 116.201"></polyline>
        <polyline id="path-41" points="0.891 116.201 0.859 116.201 0.861 116.2 90.309 0.762 90.325 0.782 0.891 116.201"></polyline>
        <polyline id="path-43" points="154.818 32.449 179.796 0.214 0.897 0.214 90.347 115.652 154.818 32.449"></polyline>
        <polyline id="path-45" points="0 0.601 89.424 116 0 116 0 0.601"></polyline>
    </defs>
    <g id="Page-1" stroke="none" stroke-width="1" fill="none" fill-rule="evenodd">
        <g id="Artboard">
            <g id="Group-4" transform="translate(178.000000, 549.000000)">
                <mask id="mask-2" fill="white">
                    <use xlink:href="#path-1"></use>
                </mask>
                <g id="Clip-3"></g>
                <polyline id="Fill-2" mask="url(#mask-2)" points="179.317 115.659 0.439 115.659 89.878 0.234 179.317 115.659"></polyline>
            </g>
            <g id="Group-7" transform="translate(475.000000, 573.000000)">
                <mask id="mask-4" fill="white">
                    <use xlink:href="#path-3"></use>
                </mask>
                <g id="Clip-6"></g>
                <polyline id="Fill-5" mask="url(#mask-4)" points="141.506 0.7 0.538 0.7 0.53 0.71 71.013 91.673 71.03 91.673 141.514 0.71 141.506 0.7"></polyline>
            </g>
            <g id="Group-13" transform="translate(0.000000, 318.000000)">
                <mask id="mask-6" fill="white">
                    <use xlink:href="#path-5"></use>
                </mask>
                <g id="Clip-9"></g>
                <polyline id="Fill-8" fill="#41AB8A" mask="url(#mask-6)" points="88.957 231.22 178.406 346.659 178.427 346.659 267.876 231.22 267.866 231.207 88.966 231.207 88.957 231.22"></polyline>
                <polyline id="Fill-10" fill="#24394A" mask="url(#mask-6)" points="267.862 462.107 267.865 462.112 446.756 462.112 357.322 346.692 357.308 346.673 267.862 462.107"></polyline>
                <polyline id="Fill-11" fill="#41AB8A" mask="url(#mask-6)" points="-89.955 0.303 -89.963 0.314 -0.513 115.755 -0.494 115.755 88.957 0.314 88.948 0.303 -89.955 0.303"></polyline>
                <polyline id="Fill-12" fill="#22445D" mask="url(#mask-6)" points="178.407 115.755 88.957 0.314 -0.494 115.755 178.407 115.755"></polyline>
            </g>
            <g id="Group-16" transform="translate(0.000000, 433.000000)">
                <mask id="mask-8" fill="white">
                    <use xlink:href="#path-7"></use>
                </mask>
                <g id="Clip-15"></g>
                <polyline id="Fill-14" mask="url(#mask-8)" points="88.966 116.207 88.946 116.207 0 1.416 0 0.755 178.407 0.755 178.416 0.767 88.966 116.207"></polyline>
            </g>
            <g id="Group-19" transform="translate(0.000000, 87.000000)">
                <mask id="mask-10" fill="white">
                    <use xlink:href="#path-9"></use>
                </mask>
                <g id="Clip-18"></g>
                <polyline id="Fill-17" fill="#41AB8A" mask="url(#mask-10)" points="88.957 0.408 -0.496 115.851 178.408 115.851 88.957 0.408"></polyline>
            </g>
            <g id="Group-22" transform="translate(0.000000, 87.000000)">
                <mask id="mask-12" fill="white">
                    <use xlink:href="#path-11"></use>
                </mask>
                <g id="Clip-21"></g>
                <polyline id="Fill-20" fill="url(#linearGradient-13)" mask="url(#mask-12)" points="0 115.211 0 0.399 88.949 0.399 88.957 0.408 0 115.211"></polyline>
            </g>
            <g id="Group-26" transform="translate(0.000000, -20.000000)">
                <mask id="mask-15" fill="white">
                    <use xlink:href="#path-14"></use>
                </mask>
                <g id="Clip-24"></g>
                <polyline id="Fill-23" fill="#41AB8A" mask="url(#mask-15)" points="-0.503 -8.045 -89.956 107.399 88.949 107.399 -0.503 -8.045"></polyline>
                <polyline id="Fill-25" fill="#22445D" mask="url(#mask-15)" points="88.946 569.207 -89.953 569.207 -89.963 569.22 -89.963 569.221 -0.514 684.659 -0.493 684.659 88.956 569.22 88.946 569.207"></polyline>
            </g>
            <g id="Group-29" transform="translate(0.000000, 434.000000)">
                <mask id="mask-17" fill="white">
                    <use xlink:href="#path-16"></use>
                </mask>
                <g id="Clip-28"></g>
                <polyline id="Fill-27" fill="url(#linearGradient-18)" mask="url(#mask-17)" points="88.946 115.207 0 115.207 0 0.417 88.946 115.207"></polyline>
            </g>
            <g id="Group-33" transform="translate(0.000000, 202.000000)">
                <mask id="mask-20" fill="white">
                    <use xlink:href="#path-19"></use>
                </mask>
                <g id="Clip-31"></g>
                <polyline id="Fill-30" fill="#0D2333" mask="url(#mask-20)" points="-179.416 0.852 -179.423 0.861 -89.972 116.303 -89.963 116.314 -89.955 116.303 88.948 116.303 -0.504 0.861 -0.511 0.852 -179.416 0.852"></polyline>
                <polyline id="Fill-32" fill="#41AB8A" mask="url(#mask-20)" points="267.859 578.112 267.865 578.112 267.862 578.107 178.416 462.673 88.968 578.112 267.859 578.112"></polyline>
            </g>
            <polyline id="Fill-34" fill="#162E41" points="178.491996 203 178.508004 203 268 88.0089648 267.992997 88 89.0070031 88 89 88.0089648 178.491996 203"></polyline>
            <g id="Group-38" transform="translate(0.000000, 433.000000)">
                <mask id="mask-22" fill="white">
                    <use xlink:href="#path-21"></use>
                </mask>
                <g id="Clip-36"></g>
                <polyline id="Fill-35" fill="#22445D" mask="url(#mask-22)" points="382.325 199.424 357.347 231.659 536.245 231.659 446.796 116.22 382.325 199.424"></polyline>
                <polyline id="Fill-37" fill="#22445D" mask="url(#mask-22)" points="446.796 116.22 446.785 116.207 357.336 0.768 267.887 116.207 267.881 116.214 267.886 116.207 267.866 116.207 267.876 116.22 357.325 231.659 178.406 231.659 88.957 116.22 -0.493 231.659 -0.514 231.659 -0.504 231.673 -89.952 347.112 88.945 347.112 88.957 347.126 88.968 347.112 178.416 231.673 267.862 347.107 357.308 231.673 357.322 231.692 357.336 231.673 357.346 231.66 357.347 231.66 357.347 231.659 446.796 116.22"></polyline>
            </g>
            <polyline id="Fill-39" fill="#24394A" points="267.489996 549 267.510004 549 357 434.011953 356.990996 434 178.010004 434 178 434.011953 267.489996 549"></polyline>
            <polyline id="Fill-40" fill="#0D2333" points="88.49 549.4935 88.5 549.5065 88.51 549.4935 88.49 549.4935"></polyline>
            <polyline id="Fill-41" fill="#22445D" points="366.998005 301 367 301 336 261 305 301 366.998005 301"></polyline>
            <polyline id="Fill-42" fill="#22445D" points="262.996988 63 263 63 214 0 165 63 262.996988 63"></polyline>
            <polyline id="Fill-43" fill="#0D2333" points="267.507 87.4955 267.493 87.4955 267.5 87.5045 267.507 87.4955"></polyline>
            <polyline id="Fill-44" fill="#0D2333" points="536.5 664.507 536.511 664.493 536.489 664.493 536.5 664.507"></polyline>
            <polyline id="Fill-45" fill="#0D2333" points="446.51 549.4935 446.49 549.4935 446.5 549.5065 446.51 549.4935"></polyline>
            <polyline id="Fill-46" fill="#0D2333" points="88.507 87.4955 88.493 87.4955 88.5 87.5045 88.507 87.4955"></polyline>
            <polyline id="Fill-47" fill="#0D2333" points="357.509 433.494 357.491 433.494 357.5 433.506 357.509 433.494"></polyline>
            <g id="Group-51" transform="translate(0.000000, 202.000000)">
                <mask id="mask-24" fill="white">
                    <use xlink:href="#path-23"></use>
                </mask>
                <g id="Clip-49"></g>
                <polyline id="Fill-48" fill="#0D2333" mask="url(#mask-24)" points="267.868 116.303 88.948 116.303 88.957 116.314 178.407 231.755 178.416 231.767 178.426 231.755 267.876 116.314 267.884 116.303 267.867 116.303 267.868 116.303"></polyline>
                <polyline id="Fill-50" fill="#22445D" mask="url(#mask-24)" points="-0.496 0.852 -0.504 0.861 88.948 116.303 178.408 0.852 -0.496 0.852"></polyline>
            </g>
            <polyline id="Fill-52" fill="#41AB8A" points="178.478996 203 89 318 268 318 178.478996 203"></polyline>
            <g id="Group-55" transform="translate(0.000000, 664.000000)">
                <mask id="mask-26" fill="white">
                    <use xlink:href="#path-25"></use>
                </mask>
                <g id="Clip-54"></g>
                <polygon id="Fill-53" fill="url(#linearGradient-27)" mask="url(#mask-26)" points="0 116 888.666 116 888.666 -684 0 -684"></polygon>
            </g>
            <g id="Group-58" transform="translate(178.000000, 664.000000)">
                <mask id="mask-29" fill="white">
                    <use xlink:href="#path-28"></use>
                </mask>
                <g id="Clip-57"></g>
                <polygon id="Fill-56" fill="url(#linearGradient-30)" mask="url(#mask-29)" points="-178 116 710.666 116 710.666 -684 -178 -684"></polygon>
            </g>
            <g id="Group-61" transform="translate(88.000000, 87.000000)">
                <mask id="mask-32" fill="white">
                    <use xlink:href="#path-31"></use>
                </mask>
                <g id="Clip-60"></g>
                <polyline id="Fill-59" fill="url(#linearGradient-33)" mask="url(#mask-32)" points="90.408 115.852 90.408 115.852 179.887 0.437 179.874 0.418 179.884 0.404 0.993 0.404 0.982 0.418 90.408 115.852"></polyline>
            </g>
            <g id="Group-64" transform="translate(0.000000, 318.000000)">
                <mask id="mask-35" fill="white">
                    <use xlink:href="#path-34"></use>
                </mask>
                <g id="Clip-63"></g>
                <polyline id="Fill-62" fill="url(#linearGradient-36)" mask="url(#mask-35)" points="0 114.782 0 0.523 88.506 0.523 88.495 0.538 88.509 0.556 0 114.782"></polyline>
            </g>
            <g id="Group-67" transform="translate(267.000000, 433.000000)">
                <mask id="mask-38" fill="white">
                    <use xlink:href="#path-37"></use>
                </mask>
                <g id="Clip-66"></g>
                <polyline id="Fill-65" mask="url(#mask-38)" points="0.891 116.201 0.891 116.201 90.325 0.782 0.891 116.201"></polyline>
            </g>
            <g id="Group-70" transform="translate(267.000000, 433.000000)">
                <mask id="mask-40" fill="white">
                    <use xlink:href="#path-39"></use>
                </mask>
                <g id="Clip-69"></g>
                <polyline id="Fill-68" mask="url(#mask-40)" points="179.758 116.201 0.891 116.201 90.325 0.782 179.758 116.201"></polyline>
            </g>
            <g id="Group-73" transform="translate(267.000000, 433.000000)">
                <mask id="mask-42" fill="white">
                    <use xlink:href="#path-41"></use>
                </mask>
                <g id="Clip-72"></g>
                <polyline id="Fill-71" mask="url(#mask-42)" points="0.891 116.201 0.859 116.201 0.861 116.2 90.309 0.762 90.325 0.782 0.891 116.201"></polyline>
            </g>
            <g id="Group-76" transform="translate(267.000000, 549.000000)">
                <mask id="mask-44" fill="white">
                    <use xlink:href="#path-43"></use>
                </mask>
                <g id="Clip-75"></g>
                <polyline id="Fill-74" mask="url(#mask-44)" points="154.818 32.449 179.796 0.214 0.897 0.214 90.347 115.652 154.818 32.449"></polyline>
            </g>
            <polyline id="Fill-77" fill="#41AB8A" points="295.5 306 242.004981 374.994026 242 375 349 375 295.5 306"></polyline>
            <g id="Group-80" transform="translate(0.000000, 670.000000)">
                <mask id="mask-46" fill="white">
                    <use xlink:href="#path-45"></use>
                </mask>
                <g id="Clip-79"></g>
                <polyline id="Fill-78" mask="url(#mask-46)" points="0 0.601 89.424 116 0 116 0 0.601"></polyline>
            </g>
        </g>
    </g>
</svg>