<svg xmlns="http://www.w3.org/2000/svg" xmlns:xlink="http://www.w3.org/1999/xlink" viewBox="0 0 389 251">
  <defs>
    <style>
      .cls-1 {
        clip-path: url(#clip-iPhone_6_7_8_1);
      }

      .cls-2 {
        fill: url(#radial-gradient);
      }

      .cls-3 {
        fill: url(#radial-gradient-2);
      }

      .cls-4 {
        fill: url(#radial-gradient-3);
      }

      .cls-5 {
        opacity: 0.7;
      }

      .cls-6 {
        fill: url(#radial-gradient-4);
      }

      .cls-7 {
        fill: url(#radial-gradient-5);
      }

      .cls-8 {
        fill: url(#radial-gradient-6);
      }

      .cls-9 {
        fill: url(#radial-gradient-7);
      }

      .cls-10, .cls-11, .cls-12, .cls-13, .cls-14, .cls-15, .cls-16, .cls-17, .cls-18, .cls-19, .cls-20, .cls-21, .cls-22, .cls-23, .cls-24, .cls-25, .cls-26, .cls-27, .cls-28, .cls-29, .cls-30, .cls-31, .cls-32, .cls-33, .cls-34, .cls-35, .cls-36, .cls-37, .cls-38, .cls-39, .cls-40, .cls-41, .cls-42, .cls-43, .cls-44, .cls-45, .cls-46, .cls-47, .cls-48, .cls-49, .cls-50, .cls-51, .cls-52, .cls-53, .cls-54, .cls-55, .cls-56, .cls-57, .cls-58, .cls-59, .cls-60 {
        opacity: 0.5;
      }

      .cls-10 {
        fill: url(#radial-gradient-8);
      }

      .cls-11 {
        fill: url(#radial-gradient-9);
      }

      .cls-12 {
        fill: url(#radial-gradient-10);
      }

      .cls-13 {
        fill: url(#radial-gradient-11);
      }

      .cls-14 {
        fill: url(#radial-gradient-12);
      }

      .cls-15 {
        fill: url(#radial-gradient-13);
      }

      .cls-16 {
        fill: url(#radial-gradient-14);
      }

      .cls-17 {
        fill: url(#radial-gradient-15);
      }

      .cls-18 {
        fill: url(#radial-gradient-16);
      }

      .cls-19 {
        fill: url(#radial-gradient-17);
      }

      .cls-20 {
        fill: url(#radial-gradient-18);
      }

      .cls-21 {
        fill: url(#radial-gradient-19);
      }

      .cls-22 {
        fill: url(#radial-gradient-20);
      }

      .cls-23 {
        fill: url(#radial-gradient-21);
      }

      .cls-24 {
        fill: url(#radial-gradient-22);
      }

      .cls-25 {
        fill: url(#radial-gradient-23);
      }

      .cls-26 {
        fill: url(#radial-gradient-24);
      }

      .cls-27 {
        fill: url(#radial-gradient-25);
      }

      .cls-28 {
        fill: url(#radial-gradient-26);
      }

      .cls-29 {
        fill: url(#radial-gradient-27);
      }

      .cls-30 {
        fill: url(#radial-gradient-28);
      }

      .cls-31 {
        fill: url(#radial-gradient-29);
      }

      .cls-32 {
        fill: url(#radial-gradient-30);
      }

      .cls-33 {
        fill: url(#radial-gradient-31);
      }

      .cls-34 {
        fill: url(#radial-gradient-32);
      }

      .cls-35 {
        fill: url(#radial-gradient-33);
      }

      .cls-36 {
        fill: url(#radial-gradient-34);
      }

      .cls-37 {
        fill: url(#radial-gradient-35);
      }

      .cls-38 {
        fill: url(#radial-gradient-36);
      }

      .cls-39 {
        fill: url(#radial-gradient-37);
      }

      .cls-40 {
        fill: url(#radial-gradient-38);
      }

      .cls-41 {
        fill: url(#radial-gradient-39);
      }

      .cls-42 {
        fill: url(#radial-gradient-40);
      }

      .cls-43 {
        fill: url(#radial-gradient-41);
      }

      .cls-44 {
        fill: url(#radial-gradient-42);
      }

      .cls-45 {
        fill: url(#radial-gradient-43);
      }

      .cls-46 {
        fill: url(#radial-gradient-44);
      }

      .cls-47 {
        fill: url(#radial-gradient-45);
      }

      .cls-48 {
        fill: url(#radial-gradient-46);
      }

      .cls-49 {
        fill: url(#radial-gradient-47);
      }

      .cls-50 {
        fill: url(#radial-gradient-48);
      }

      .cls-51 {
        fill: url(#radial-gradient-49);
      }

      .cls-52 {
        fill: url(#radial-gradient-50);
      }

      .cls-53 {
        fill: url(#radial-gradient-51);
      }

      .cls-54 {
        fill: url(#radial-gradient-52);
      }

      .cls-55 {
        fill: url(#radial-gradient-53);
      }

      .cls-56 {
        fill: url(#radial-gradient-54);
      }

      .cls-57 {
        fill: url(#radial-gradient-55);
      }

      .cls-58 {
        fill: url(#radial-gradient-56);
      }

      .cls-59 {
        fill: url(#radial-gradient-57);
      }

      .cls-60 {
        fill: url(#radial-gradient-58);
      }

      .cls-61 {
        opacity: 0.35;
      }

      .cls-62 {
        fill: url(#radial-gradient-59);
      }

      .cls-63 {
        fill: url(#radial-gradient-60);
      }
    </style>
    <radialGradient id="radial-gradient" cx="112.981" cy="113.522" r="115.309" gradientUnits="userSpaceOnUse">
      <stop offset="0" stop-color="#f20074"/>
      <stop offset="0.377" stop-color="#f10074" stop-opacity="0.992"/>
      <stop offset="0.512" stop-color="#ed0276" stop-opacity="0.965"/>
      <stop offset="0.609" stop-color="#e70578" stop-opacity="0.914"/>
      <stop offset="0.687" stop-color="#de0a7c" stop-opacity="0.847"/>
      <stop offset="0.754" stop-color="#d31181" stop-opacity="0.753"/>
      <stop offset="0.813" stop-color="#c41988" stop-opacity="0.643"/>
      <stop offset="0.867" stop-color="#b4228f" stop-opacity="0.51"/>
      <stop offset="0.917" stop-color="#a02d98" stop-opacity="0.353"/>
      <stop offset="0.96" stop-color="#8a39a1" stop-opacity="0.18"/>
      <stop offset="1" stop-color="#7446ac" stop-opacity="0"/>
    </radialGradient>
    <radialGradient id="radial-gradient-2" cx="172.197" cy="45.791" r="201.038" gradientTransform="translate(82.815 -108.349) rotate(45)" gradientUnits="userSpaceOnUse">
      <stop offset="0" stop-color="#f20074"/>
      <stop offset="0.141" stop-color="#ed0276"/>
      <stop offset="0.307" stop-color="#de0a7c"/>
      <stop offset="0.486" stop-color="#c61787"/>
      <stop offset="0.674" stop-color="#a52a95"/>
      <stop offset="0.868" stop-color="#7b41a8"/>
      <stop offset="0.898" stop-color="#7446ac"/>
    </radialGradient>
    <radialGradient id="radial-gradient-3" cx="-5.741" cy="-54.95" r="422.593" gradientTransform="matrix(0.591, 0.16, -0.14, 0.518, -108.847, -110.95)" gradientUnits="userSpaceOnUse">
      <stop offset="0.052" stop-color="#e0a326"/>
      <stop offset="0.414" stop-color="#dfa227" stop-opacity="0.992"/>
      <stop offset="0.545" stop-color="#df9e2b" stop-opacity="0.961"/>
      <stop offset="0.638" stop-color="#de9832" stop-opacity="0.91"/>
      <stop offset="0.714" stop-color="#dc8f3d" stop-opacity="0.831"/>
      <stop offset="0.778" stop-color="#da834b" stop-opacity="0.733"/>
      <stop offset="0.835" stop-color="#d8755c" stop-opacity="0.612"/>
      <stop offset="0.887" stop-color="#d56471" stop-opacity="0.467"/>
      <stop offset="0.934" stop-color="#d25089" stop-opacity="0.302"/>
      <stop offset="0.977" stop-color="#ce3aa3" stop-opacity="0.118"/>
      <stop offset="1" stop-color="#cc2db4" stop-opacity="0"/>
    </radialGradient>
    <radialGradient id="radial-gradient-4" cx="929.191" cy="1378.756" r="46.104" gradientTransform="translate(-1744.752 -2523.251) scale(3.244 3.244)" xlink:href="#radial-gradient-3"/>
    <radialGradient id="radial-gradient-5" cx="26.408" cy="-46.294" r="394.918" gradientTransform="translate(-95.913 -169.998) scale(0.379 0.379)" xlink:href="#radial-gradient-3"/>
    <radialGradient id="radial-gradient-6" cx="554.83" cy="480.762" r="99.977" gradientTransform="translate(-122.563 -116.242) scale(1.496 1.496)" xlink:href="#radial-gradient-3"/>
    <radialGradient id="radial-gradient-7" cx="1171.075" cy="987.251" r="63.265" gradientTransform="translate(-1121.413 -971.454) scale(2.364 2.364)" xlink:href="#radial-gradient-3"/>
    <radialGradient id="radial-gradient-8" cx="215.499" cy="194.037" r="203.691" gradientTransform="translate(9.591 -7.86) scale(0.864 0.864)" xlink:href="#radial-gradient-2"/>
    <radialGradient id="radial-gradient-9" cx="129.3" cy="55.053" r="223.93" gradientTransform="translate(-7.51 -107.483) scale(0.578 0.578)" xlink:href="#radial-gradient-2"/>
    <radialGradient id="radial-gradient-10" cx="10.269" cy="-10.617" r="94.289" gradientTransform="translate(5.389 -5.572) scale(0.475 0.475)" xlink:href="#radial-gradient-2"/>
    <radialGradient id="radial-gradient-11" cx="-62.625" cy="-99.336" r="136.222" gradientTransform="translate(-189.068 -224.821) scale(0.329 0.329)" xlink:href="#radial-gradient-2"/>
    <radialGradient id="radial-gradient-12" cx="37.733" cy="33.425" r="94.289" gradientTransform="matrix(-0.475, 0, 0, -0.475, 55.664, 49.307)" xlink:href="#radial-gradient-2"/>
    <radialGradient id="radial-gradient-13" cx="-2309.784" cy="976.307" r="16.352" gradientTransform="matrix(-0.534, 2.687, -2.687, -0.534, -2231.252, 7984.036)" xlink:href="#radial-gradient-2"/>
    <radialGradient id="radial-gradient-14" cx="37.733" cy="33.427" r="94.289" gradientTransform="matrix(-0.475, 0, 0, -0.475, 55.662, 49.311)" xlink:href="#radial-gradient-2"/>
    <radialGradient id="radial-gradient-15" cx="-322.542" cy="-537.557" r="133.586" gradientTransform="matrix(-0.335, 0.021, -0.021, -0.335, -727.822, -1158.825)" xlink:href="#radial-gradient-2"/>
    <radialGradient id="radial-gradient-16" cx="-22.505" cy="45.246" r="45.127" gradientTransform="matrix(0, -1.19, 2.105, 0, -117.728, 18.455)" xlink:href="#radial-gradient-2"/>
    <radialGradient id="radial-gradient-17" cx="160.217" cy="232.401" r="76.981" gradientTransform="translate(-3.529 -10.484) scale(0.888 0.888)" xlink:href="#radial-gradient-2"/>
    <radialGradient id="radial-gradient-18" cx="45.604" cy="7.924" r="29.046" gradientTransform="matrix(0, 1.19, -2.104, 0, 62.278, -46.367)" xlink:href="#radial-gradient-2"/>
    <radialGradient id="radial-gradient-19" cx="-620.169" cy="-457.639" r="58.812" gradientTransform="matrix(-0.702, 0.26, -0.26, -0.702, -1606.033, -986.482)" xlink:href="#radial-gradient-2"/>
    <radialGradient id="radial-gradient-20" cx="36.547" cy="57.232" r="51.661" gradientTransform="matrix(-0.84, 0, 0, -1.485, 67.25, 142.22)" xlink:href="#radial-gradient-2"/>
    <radialGradient id="radial-gradient-21" cx="446.508" cy="-598.111" r="58.78" gradientTransform="matrix(0.276, -0.898, 0.898, 0.276, 950.274, -500.987)" xlink:href="#radial-gradient-2"/>
    <radialGradient id="radial-gradient-22" cx="8.095" cy="-8.37" r="74.329" gradientTransform="matrix(0.475, 0, 0, 0.475, 4.249, -4.393)" xlink:href="#radial-gradient-2"/>
    <radialGradient id="radial-gradient-23" cx="678.652" cy="-218.415" r="25.508" gradientTransform="matrix(0.818, -1.117, 1.117, 0.818, 619.914, 464.835)" xlink:href="#radial-gradient-2"/>
    <radialGradient id="radial-gradient-24" cx="-10.617" cy="37.733" r="21.29" gradientTransform="matrix(0, -2.104, 2.104, 0, -90.025, 15.389)" xlink:href="#radial-gradient-2"/>
    <radialGradient id="radial-gradient-25" cx="489.588" cy="-1229.959" r="29.385" gradientTransform="matrix(-0.774, -1.314, 1.314, -0.774, 2632.488, -2339.685)" xlink:href="#radial-gradient-2"/>
    <radialGradient id="radial-gradient-26" cx="-87.807" cy="251.65" r="35.22" gradientTransform="matrix(0.624, 0.359, -0.359, 0.624, -130.128, 133.051)" xlink:href="#radial-gradient-2"/>
    <radialGradient id="radial-gradient-27" cx="-116.592" cy="161.251" r="42.549" gradientTransform="matrix(0.517, 0.298, -0.298, 0.517, -207.745, 74.265)" xlink:href="#radial-gradient-2"/>
    <radialGradient id="radial-gradient-28" cx="-547.297" cy="-668.443" r="47.535" gradientTransform="matrix(-0.518, 0.13, -0.13, -0.518, -1314.82, -1457.743)" xlink:href="#radial-gradient-2"/>
    <radialGradient id="radial-gradient-29" cx="-443.377" cy="-558.393" r="62.712" gradientTransform="matrix(-0.392, 0.098, -0.098, -0.392, -1017.47, -1189.017)" xlink:href="#radial-gradient-2"/>
    <radialGradient id="radial-gradient-30" cx="1094.745" cy="-988.965" r="12.114" gradientTransform="matrix(-0.104, -2.091, 2.091, -0.104, 3729.476, 529.048)" xlink:href="#radial-gradient-2"/>
    <radialGradient id="radial-gradient-31" cx="1623.341" cy="-1356.734" r="8.455" gradientTransform="matrix(-0.148, -2.996, 2.996, -0.148, 6634.379, 2435.546)" xlink:href="#radial-gradient-2"/>
    <radialGradient id="radial-gradient-32" cx="-305.906" cy="-764.45" r="48.193" gradientTransform="matrix(-0.512, -0.12, 0.12, -0.512, -626.329, -1755.315)" xlink:href="#radial-gradient-2"/>
    <radialGradient id="radial-gradient-33" cx="-273.259" cy="-603.522" r="66.916" gradientTransform="matrix(-0.369, -0.086, 0.086, -0.369, -557.389, -1329.38)" xlink:href="#radial-gradient-2"/>
    <radialGradient id="radial-gradient-34" cx="14.52" cy="4.461" r="9.248" gradientTransform="matrix(0, 2.104, -2.104, 0, 23.907, -26.097)" xlink:href="#radial-gradient-2"/>
    <radialGradient id="radial-gradient-35" cx="-997.887" cy="1320.843" r="9.484" gradientTransform="matrix(0.732, 1.917, -1.917, 0.732, 1590.083, 2734.361)" xlink:href="#radial-gradient-2"/>
    <radialGradient id="radial-gradient-36" cx="-1280.321" cy="-365.453" r="17.275" gradientTransform="matrix(-0.718, 0.868, -0.868, -0.718, -3282.908, 115.093)" xlink:href="#radial-gradient-2"/>
    <radialGradient id="radial-gradient-37" cx="-1371.731" cy="-375.195" r="15.622" gradientTransform="matrix(-0.794, 0.96, -0.96, -0.794, -3625.326, 269.716)" xlink:href="#radial-gradient-2"/>
    <radialGradient id="radial-gradient-38" cx="-3.143" cy="11.171" r="6.303" gradientTransform="matrix(0, -2.104, 2.104, 0, -26.653, 4.556)" xlink:href="#radial-gradient-2"/>
    <radialGradient id="radial-gradient-39" cx="930.957" cy="-1415.44" r="5.958" gradientTransform="matrix(-0.69, -2.117, 2.117, -0.69, 4882.635, -1299.007)" xlink:href="#radial-gradient-2"/>
    <radialGradient id="radial-gradient-40" cx="591.738" cy="253.918" r="14.335" gradientTransform="matrix(0.776, -0.504, 0.875, 1.348, 100.458, 189.362)" xlink:href="#radial-gradient-2"/>
    <radialGradient id="radial-gradient-41" cx="512.421" cy="201.544" r="15.86" gradientTransform="matrix(0.702, -0.455, 0.791, 1.219, 141.333, 141.637)" xlink:href="#radial-gradient-2"/>
    <radialGradient id="radial-gradient-42" cx="9.896" cy="3.04" r="6.303" gradientTransform="matrix(0, 2.104, -2.104, 0, 16.294, -17.786)" xlink:href="#radial-gradient-2"/>
    <radialGradient id="radial-gradient-43" cx="-52.134" cy="45.172" r="28.305" gradientTransform="matrix(0.435, 0.173, -0.173, 0.435, -193.846, -66.636)" xlink:href="#radial-gradient-2"/>
    <radialGradient id="radial-gradient-44" cx="-1560.5" cy="-50.777" r="8.573" gradientTransform="matrix(-0.353, 1.18, -1.932, -0.578, -3112.541, 1547.925)" xlink:href="#radial-gradient-2"/>
    <radialGradient id="radial-gradient-45" cx="-2073.575" cy="-29.518" r="6.152" gradientTransform="matrix(-0.491, 1.644, -2.693, -0.805, -4302.372, 3133.151)" xlink:href="#radial-gradient-2"/>
    <radialGradient id="radial-gradient-46" cx="5.813" cy="-6.01" r="53.372" gradientTransform="matrix(0.475, 0, 0, 0.475, 3.051, -3.154)" xlink:href="#radial-gradient-2"/>
    <radialGradient id="radial-gradient-47" cx="303.558" cy="-107.121" r="29.82" gradientTransform="matrix(0.665, -0.53, 0.53, 0.665, 219.334, -51.847)" xlink:href="#radial-gradient-2"/>
    <radialGradient id="radial-gradient-48" cx="305.202" cy="-194.081" r="76.872" gradientTransform="matrix(0.664, -0.379, 0.315, 0.552, 173.587, -242.553)" xlink:href="#radial-gradient-2"/>
    <radialGradient id="radial-gradient-49" cx="285.139" cy="-186.789" r="76.864" gradientTransform="matrix(0.664, -0.379, 0.315, 0.552, 150.807, -239.084)" xlink:href="#radial-gradient-2"/>
    <radialGradient id="radial-gradient-50" cx="-636.618" cy="385.203" r="47.772" gradientTransform="matrix(0.617, 1.226, -1.019, 0.513, -267.907, 966.855)" xlink:href="#radial-gradient-2"/>
    <radialGradient id="radial-gradient-51" cx="-666.246" cy="371.576" r="28.881" gradientTransform="matrix(0.617, 1.226, -1.018, 0.513, -292.25, 971.665)" xlink:href="#radial-gradient-2"/>
    <radialGradient id="radial-gradient-52" cx="-934.231" cy="172.606" r="18.65" gradientTransform="matrix(0.206, 1.718, -1.428, 0.171, -990.829, 1627.904)" xlink:href="#radial-gradient-2"/>
    <radialGradient id="radial-gradient-53" cx="-1017.317" cy="757.547" r="27.147" gradientTransform="matrix(0.206, 1.717, -1.427, 0.171, -359.133, 2534.684)" xlink:href="#radial-gradient-2"/>
    <radialGradient id="radial-gradient-54" cx="-1053.267" cy="647.748" r="17.772" gradientTransform="matrix(0.206, 1.718, -1.428, 0.171, -513.869, 2440.899)" xlink:href="#radial-gradient-2"/>
    <radialGradient id="radial-gradient-55" cx="-253.99" cy="233.992" r="65.995" gradientTransform="matrix(0.697, 0.555, -0.461, 0.579, -196.911, 166.79)" xlink:href="#radial-gradient-2"/>
    <radialGradient id="radial-gradient-56" cx="-259.777" cy="232.875" r="65.986" gradientTransform="matrix(0.697, 0.555, -0.461, 0.579, -195.579, 167.162)" xlink:href="#radial-gradient-2"/>
    <radialGradient id="radial-gradient-57" cx="-253.691" cy="215.352" r="66.007" gradientTransform="matrix(0.697, 0.555, -0.461, 0.579, -191.312, 153.966)" xlink:href="#radial-gradient-2"/>
    <radialGradient id="radial-gradient-58" cx="-40.475" cy="-137.417" r="560.085" gradientTransform="translate(-164.264 -263.375) scale(0.305 0.305)" xlink:href="#radial-gradient-3"/>
    <radialGradient id="radial-gradient-59" cx="252.624" cy="100.261" r="574.861" gradientTransform="matrix(0.623, -0.155, 0.12, 0.484, 78.745, -36.542)" gradientUnits="userSpaceOnUse">
      <stop offset="0" stop-color="#d1e1ee"/>
      <stop offset="0.337" stop-color="#8ee1ee"/>
      <stop offset="0.944" stop-color="#732fa4"/>
    </radialGradient>
    <radialGradient id="radial-gradient-60" cx="137.104" cy="-83.362" r="1435.823" gradientTransform="matrix(0.252, 0.059, -0.046, 0.197, 44.431, -296.547)" xlink:href="#radial-gradient-59"/>
    <clipPath id="clip-iPhone_6_7_8_1">
      <rect width="389" height="251"/>
    </clipPath>
  </defs>
  <g id="iPhone_6_7_8_1" data-name="iPhone 6/7/8 – 1" class="cls-1">
    <g id="Symbol_2_3" data-name="Symbol 2 – 3" transform="translate(-47.555 -215.12)">
      <g id="Group_347" data-name="Group 347" transform="translate(-3 12)">
        <circle id="Ellipse_48" data-name="Ellipse 48" class="cls-2" cx="114.045" cy="114.045" r="114.045" transform="translate(131.396 210.477)"/>
        <circle id="Ellipse_49" data-name="Ellipse 49" class="cls-3" cx="102.108" cy="102.108" r="102.108" transform="translate(101.04 324.522) rotate(-45)"/>
        <path id="Path_899" data-name="Path 899" class="cls-4" d="M166.677,311.589c-4.6-8.75-3.211-21.334-.414-29.827,5.918-17.975,21.335-30.9,37.362-39.84,50.093-27.936,105.145,6.65,109.831,28.656s-17.375,33.67-47.368,26.6S213.5,323.4,192.795,323.506c-7.9.041-16.016-1.274-22.162-6.78A18.208,18.208,0,0,1,166.677,311.589Z"/>
        <g id="Group_321" data-name="Group 321" class="cls-5">
          <path id="Path_900" data-name="Path 900" class="cls-6" d="M184.156,276.2a204.35,204.35,0,0,1-5.907-21.663,96.573,96.573,0,0,0-18.187,114.545A96.644,96.644,0,0,1,184.156,276.2Z"/>
          <path id="Path_901" data-name="Path 901" class="cls-7" d="M297.827,242.827a96.541,96.541,0,0,0-114.494,7.122,193.356,193.356,0,0,0,5.556,21.718,96.555,96.555,0,0,1,111.442-12.29A101.025,101.025,0,0,0,297.827,242.827Z"/>
          <path id="Path_902" data-name="Path 902" class="cls-8" d="M324.5,278.566a101.54,101.54,0,0,0-.586-10.8,97.189,97.189,0,0,0-20.863-21.289,114.224,114.224,0,0,1,1.753,15.573A97.115,97.115,0,0,1,324.5,278.566Z"/>
          <path id="Path_903" data-name="Path 903" class="cls-9" d="M328.726,283.519a96.526,96.526,0,0,1,9.825,14.952,95.808,95.808,0,0,0-9.781-23.23Q328.9,279.38,328.726,283.519Z"/>
        </g>
        <path id="Path_904" data-name="Path 904" class="cls-10" d="M314.214,251.784A81.761,81.761,0,1,1,155.8,280.25c0-.174.012-.344.013-.517a100.3,100.3,0,1,0,158.4-27.949Z"/>
        <g id="Group_322" data-name="Group 322">
          <path id="Path_905" data-name="Path 905" class="cls-11" d="M340.773,309.543c0,.145.006.288.006.433,0,55.161-43.4,99.878-96.928,99.878-49.549,0-90.408-38.311-96.216-87.752.24,54.95,43.539,99.42,96.923,99.42,53.532,0,96.928-44.717,96.928-99.878A103.673,103.673,0,0,0,340.773,309.543Z"/>
        </g>
        <g id="Group_323" data-name="Group 323">
          <ellipse id="Ellipse_50" data-name="Ellipse 50" class="cls-12" cx="24.001" cy="11.405" rx="24.001" ry="11.405" transform="translate(226.933 227.596)"/>
          <path id="Path_906" data-name="Path 906" class="cls-13" d="M229.065,243.7c3.769,3.954,12.139,6.707,21.869,6.707,10.781,0,19.9-3.378,22.931-8.029-3.769-3.954-12.14-6.706-21.869-6.706C241.215,235.671,232.094,239.049,229.065,243.7Z"/>
        </g>
        <g id="Group_324" data-name="Group 324">
          <ellipse id="Ellipse_51" data-name="Ellipse 51" class="cls-14" cx="24.001" cy="11.405" rx="24.001" ry="11.405" transform="matrix(0.195, -0.981, 0.981, 0.195, 315.381, 364.028)"/>
          <path id="Path_907" data-name="Path 907" class="cls-15" d="M330.9,320.347c-4.614,2.925-8.946,10.6-10.843,20.141-2.1,10.574-.569,20.178,3.4,24.056,4.613-2.925,8.946-10.6,10.843-20.14C336.409,333.829,334.875,324.225,330.9,320.347Z"/>
        </g>
        <g id="Group_325" data-name="Group 325">
          <ellipse id="Ellipse_52" data-name="Ellipse 52" class="cls-16" cx="24.001" cy="11.405" rx="24.001" ry="11.405" transform="matrix(0.998, -0.062, 0.062, 0.998, 227.142, 384.311)"/>
          <path id="Path_908" data-name="Path 908" class="cls-17" d="M273.34,388.155c-4.007-3.712-12.533-5.939-22.243-5.335-10.761.67-19.654,4.608-22.388,9.437,4.007,3.713,12.532,5.94,22.243,5.335C261.712,396.923,270.605,392.984,273.34,388.155Z"/>
        </g>
        <g id="Group_327" data-name="Group 327">
          <g id="Group_326" data-name="Group 326">
            <ellipse id="Ellipse_53" data-name="Ellipse 53" class="cls-18" cx="24.174" cy="28.779" rx="24.174" ry="28.779" transform="matrix(0.556, -0.831, 0.831, 0.556, 178.068, 356.013)"/>
          </g>
          <path id="Path_909" data-name="Path 909" class="cls-19" d="M228.865,331.815c-11.92-7.969-26.7-7.252-34.923,1.112-4.552,10.793.434,24.694,12.337,32.652,11.92,7.969,26.7,7.252,34.923-1.112C245.754,353.674,240.768,339.773,228.865,331.815Z"/>
        </g>
        <g id="Group_329" data-name="Group 329">
          <g id="Group_328" data-name="Group 328">
            <ellipse id="Ellipse_54" data-name="Ellipse 54" class="cls-20" cx="15.56" cy="18.524" rx="15.56" ry="18.524" transform="translate(228.938 286.928) rotate(-76.524)"/>
          </g>
          <path id="Path_910" data-name="Path 910" class="cls-21" d="M246.952,291.244c8.974,2.151,17.735-1.58,20.835-8.466.339-7.531-5.774-14.81-14.736-16.958s-17.735,1.581-20.835,8.466C231.877,281.818,237.99,289.1,246.952,291.244Z"/>
        </g>
        <g id="Group_331" data-name="Group 331">
          <g id="Group_330" data-name="Group 330">
            <ellipse id="Ellipse_55" data-name="Ellipse 55" class="cls-22" cx="23.247" cy="19.527" rx="23.247" ry="19.527" transform="matrix(0.776, -0.631, 0.631, 0.776, 256.297, 349.405)"/>
          </g>
          <path id="Path_911" data-name="Path 911" class="cls-23" d="M274.326,334.729c-8.982,7.312-11.936,18.891-7.431,27.228,7.253,6.076,19.169,5.526,28.139-1.775s11.936-18.891,7.431-27.228C295.212,326.878,283.3,327.428,274.326,334.729Z"/>
        </g>
        <g id="Group_332" data-name="Group 332">
          <ellipse id="Ellipse_56" data-name="Ellipse 56" class="cls-24" cx="18.92" cy="8.99" rx="18.92" ry="8.99" transform="matrix(0.591, -0.807, 0.807, 0.591, 167.962, 285.754)"/>
          <path id="Path_912" data-name="Path 912" class="cls-25" d="M179.2,291.9c4.27-.556,9.919-4.6,14.45-10.786,5.022-6.857,7.121-14.231,5.574-18.323-4.27.555-9.919,4.6-14.45,10.785C179.749,280.431,177.65,287.8,179.2,291.9Z"/>
        </g>
        <g id="Group_333" data-name="Group 333">
          <ellipse id="Ellipse_57" data-name="Ellipse 57" class="cls-26" cx="11.405" cy="24.001" rx="11.405" ry="24.001" transform="translate(147.421 354.687) rotate(-30.499)"/>
          <path id="Path_913" data-name="Path 913" class="cls-27" d="M184.576,386.037c1.494-5.254-.382-13.863-5.32-22.246-5.472-9.29-13.012-15.434-18.556-15.684-1.494,5.254.383,13.864,5.321,22.247C171.492,379.644,179.032,385.788,184.576,386.037Z"/>
        </g>
        <g id="Group_334" data-name="Group 334">
          <path id="Path_914" data-name="Path 914" class="cls-28" d="M304.228,254.838c-1.78,3.09-8.493,2.558-14.995-1.187s-10.33-9.286-8.55-12.375,8.493-2.558,14.995,1.187S306.007,251.749,304.228,254.838Z"/>
          <path id="Path_915" data-name="Path 915" class="cls-29" d="M280.4,244.183c.732,3,4.06,6.719,8.832,9.468,5.288,3.046,10.716,3.966,13.516,2.541-.732-3-4.06-6.719-8.832-9.468C288.629,243.677,283.2,242.758,280.4,244.183Z"/>
        </g>
        <g id="Group_335" data-name="Group 335">
          <path id="Path_916" data-name="Path 916" class="cls-30" d="M260.728,415.391c-.867-3.458,4.33-7.741,11.608-9.565s13.881-.5,14.748,2.958-4.33,7.741-11.608,9.565S261.6,418.85,260.728,415.391Z"/>
          <path id="Path_917" data-name="Path 917" class="cls-31" d="M285.266,406.5c-2.613-1.653-7.588-2.011-12.93-.672-5.919,1.484-10.462,4.594-11.485,7.564,2.613,1.652,7.588,2.011,12.93.672C279.7,412.578,284.243,409.468,285.266,406.5Z"/>
        </g>
        <g id="Group_336" data-name="Group 336">
          <path id="Path_918" data-name="Path 918" class="cls-32" d="M154.525,316.005c3.561-.177,6.748,5.756,7.12,13.249s-2.215,13.713-5.776,13.889-6.749-5.755-7.12-13.249S150.964,316.181,154.525,316.005Z"/>
          <path id="Path_919" data-name="Path 919" class="cls-33" d="M158.466,341.806c2.13-2.241,3.451-7.051,3.179-12.552-.3-6.1-2.468-11.157-5.182-12.739-2.129,2.242-3.451,7.051-3.179,12.552C153.586,335.162,155.752,340.224,158.466,341.806Z"/>
        </g>
        <g id="Group_337" data-name="Group 337">
          <path id="Path_920" data-name="Path 920" class="cls-34" d="M213.179,411.53c.811-3.472,7.391-4.9,14.7-3.2s12.573,5.9,11.763,9.375-7.391,4.9-14.7,3.2S212.369,415,213.179,411.53Z"/>
          <path id="Path_921" data-name="Path 921" class="cls-35" d="M239.069,414.842c-1.569-2.665-5.829-5.259-11.192-6.511-5.943-1.387-11.4-.7-13.673,1.475,1.568,2.665,5.828,5.259,11.191,6.511C231.338,417.7,236.8,417.015,239.069,414.842Z"/>
        </g>
        <g id="Group_338" data-name="Group 338">
          <ellipse id="Ellipse_58" data-name="Ellipse 58" class="cls-36" cx="4.954" cy="10.426" rx="4.954" ry="10.426" transform="translate(329.293 298.379) rotate(-20.889)"/>
          <path id="Path_922" data-name="Path 922" class="cls-37" d="M332.345,298.206c-1.021,2.141-.841,5.965.666,9.913,1.67,4.376,4.453,7.554,6.81,8.063,1.021-2.142.841-5.965-.666-9.914C337.485,301.893,334.7,298.715,332.345,298.206Z"/>
        </g>
        <g id="Group_339" data-name="Group 339">
          <path id="Path_923" data-name="Path 923" class="cls-38" d="M313.077,387.4c-2.108-1.744-.843-6.755,2.827-11.192s8.354-6.621,10.462-4.877.843,6.754-2.827,11.191S315.186,389.145,313.077,387.4Z"/>
          <path id="Path_924" data-name="Path 924" class="cls-39" d="M324.2,370.746c-2.367.167-5.606,2.207-8.3,5.464-2.985,3.609-4.379,7.6-3.661,9.9,2.367-.167,5.606-2.207,8.3-5.464C323.527,377.036,324.921,373.048,324.2,370.746Z"/>
        </g>
        <g id="Group_340" data-name="Group 340">
          <ellipse id="Ellipse_59" data-name="Ellipse 59" class="cls-40" cx="3.376" cy="7.106" rx="3.376" ry="7.106" transform="translate(165.351 335.82) rotate(-18.054)"/>
          <path id="Path_925" data-name="Path 925" class="cls-41" d="M174.092,347.254c.768-1.423.774-4.032-.118-6.771-.99-3.035-2.777-5.292-4.364-5.718-.767,1.424-.774,4.033.119,6.771C170.718,344.571,172.506,346.828,174.092,347.254Z"/>
        </g>
        <g id="Group_341" data-name="Group 341">
          <path id="Path_926" data-name="Path 926" class="cls-42" d="M228.558,280.613c1.763,2.717.523,6.652-2.769,8.787s-7.391,1.665-9.153-1.053-.523-6.652,2.769-8.787S226.8,277.9,228.558,280.613Z"/>
          <path id="Path_927" data-name="Path 927" class="cls-43" d="M218.48,290.03a7.3,7.3,0,0,0,7.309-.63c2.678-1.737,4-4.664,3.448-7.158a7.3,7.3,0,0,0-7.308.63C219.251,284.609,217.931,287.536,218.48,290.03Z"/>
        </g>
        <g id="Group_342" data-name="Group 342">
          <ellipse id="Ellipse_60" data-name="Ellipse 60" class="cls-44" cx="3.377" cy="7.106" rx="3.377" ry="7.106" transform="translate(266.837 256.705) rotate(-68.321)"/>
          <path id="Path_928" data-name="Path 928" class="cls-45" d="M268.157,255.094c.6,1.5,2.606,3.172,5.283,4.236,2.966,1.18,5.845,1.248,7.187.3-.605-1.5-2.607-3.172-5.283-4.236C272.377,254.214,269.5,254.146,268.157,255.094Z"/>
        </g>
        <g id="Group_343" data-name="Group 343">
          <path id="Path_929" data-name="Path 929" class="cls-46" d="M312.621,335.674c-2.329-.7-3.492-3.686-2.6-6.677s3.507-4.853,5.836-4.156,3.492,3.686,2.6,6.677S314.95,336.371,312.621,335.674Z"/>
          <path id="Path_930" data-name="Path 930" class="cls-47" d="M313.979,324.8a5.9,5.9,0,0,0-3.955,4.2c-.728,2.433-.094,4.865,1.421,6.063a5.9,5.9,0,0,0,3.955-4.2C316.128,328.432,315.494,326,313.979,324.8Z"/>
        </g>
        <g id="Group_344" data-name="Group 344">
          <ellipse id="Ellipse_61" data-name="Ellipse 61" class="cls-48" cx="13.586" cy="6.456" rx="13.586" ry="6.456" transform="translate(173.761 253.965) rotate(-38.54)"/>
          <path id="Path_931" data-name="Path 931" class="cls-49" d="M180.384,260.343c3.063.421,7.74-1.312,12.048-4.744,4.773-3.8,7.62-8.514,7.321-11.641-3.063-.422-7.74,1.312-12.048,4.743C182.932,252.5,180.085,257.216,180.384,260.343Z"/>
        </g>
        <path id="Path_932" data-name="Path 932" class="cls-50" d="M293.856,388.377c.787,1.381-.55,3.626-2.987,5.015s-5.05,1.395-5.837.014.551-3.625,2.988-5.014S293.07,387,293.856,388.377Z"/>
        <path id="Path_933" data-name="Path 933" class="cls-51" d="M298.762,380.358c.479.84-.334,2.2-1.817,3.05s-3.071.848-3.55.009.335-2.206,1.817-3.05S298.284,379.518,298.762,380.358Z"/>
        <g id="Group_345" data-name="Group 345">
          <path id="Path_934" data-name="Path 934" class="cls-52" d="M186.766,366.906c-1.583.8-4.007-.822-5.414-3.616s-1.263-5.705.32-6.5,4.007.822,5.413,3.616S188.349,366.109,186.766,366.906Z"/>
          <path id="Path_935" data-name="Path 935" class="cls-53" d="M192.162,373.258c-.957.482-2.422-.5-3.273-2.185s-.764-3.449.193-3.931,2.422.5,3.273,2.186S193.119,372.777,192.162,373.258Z"/>
        </g>
        <path id="Path_936" data-name="Path 936" class="cls-54" d="M165.207,332.539c-.866.1-1.717-1.051-1.9-2.58s.37-2.852,1.236-2.956,1.718,1.051,1.9,2.58S166.073,332.435,165.207,332.539Z"/>
        <path id="Path_937" data-name="Path 937" class="cls-55" d="M327.85,306.846c-1.261.152-2.5-1.529-2.767-3.754s.539-4.151,1.8-4.3,2.5,1.529,2.767,3.754S329.11,306.7,327.85,306.846Z"/>
        <path id="Path_938" data-name="Path 938" class="cls-56" d="M326.386,314.6c-.825.1-1.636-1-1.811-2.459s.352-2.718,1.178-2.817,1.636,1,1.811,2.458S327.212,314.5,326.386,314.6Z"/>
        <g id="Group_346" data-name="Group 346">
          <path id="Path_939" data-name="Path 939" class="cls-57" d="M201.943,403.835c-.99,1.244-3.571.836-5.765-.911s-3.171-4.171-2.181-5.414,3.571-.835,5.765.912S202.933,402.592,201.943,403.835Z"/>
          <path id="Path_940" data-name="Path 940" class="cls-58" d="M211.211,405.413c-.6.756-2.172.508-3.507-.555s-1.928-2.537-1.326-3.293,2.172-.508,3.506.554S211.813,404.656,211.211,405.413Z"/>
          <path id="Path_941" data-name="Path 941" class="cls-59" d="M194.648,392.472c-.6.757-2.172.508-3.507-.554s-1.929-2.537-1.327-3.293,2.172-.508,3.507.555S195.25,391.716,194.648,392.472Z"/>
        </g>
        <path id="Path_942" data-name="Path 942" class="cls-60" d="M206.193,246.418c-.539-1.5,1.164-3.478,3.8-4.427s5.215-.508,5.753.987-1.165,3.477-3.8,4.427S206.731,247.913,206.193,246.418Zm-2.711,7.659c1.605-.578,2.641-1.784,2.314-2.693s-1.894-1.178-3.5-.6-2.641,1.784-2.314,2.693S201.877,254.655,203.482,254.077Zm19.711-7.3c1.605-.578,2.641-1.784,2.313-2.693s-1.894-1.179-3.5-.6-2.641,1.783-2.313,2.693S221.588,247.356,223.193,246.779Zm69.164,17.5c.451-1.523,3-2.112,5.686-1.315s4.5,2.679,4.051,4.2-3,2.112-5.687,1.315S291.9,265.8,292.357,264.278Zm13.484,10.359c1.636.485,3.185.127,3.459-.8s-.828-2.071-2.463-2.556-3.185-.127-3.459.8S304.206,274.152,305.841,274.637Z"/>
      </g>
      <g id="Group_348" data-name="Group 348" class="cls-61" transform="translate(-3 12)">
        <path id="Path_943" data-name="Path 943" class="cls-62" d="M408.364,231.2c-8.716-14.509-40.689-8.157-65.976-.275l-1.036.325c-10.966,3.461-22.716,7.832-35,12.993,1.674,1.053,3.319,2.137,4.887,3.317,11.064-4.562,21.661-8.46,31.6-11.6l1.023-.32c32.368-10.09,54.885-10.8,60.235-1.9s-5.91,28.351-30.12,52.019c-25.7,25.123-63.269,52.933-105.794,78.308s-84.908,45.238-119.223,55.958c-32.368,10.091-54.885,10.8-60.235,1.894s5.91-28.35,30.12-52.019c7.882-7.706,16.886-15.666,26.8-23.73-.221-1.1-.4-2.212-.534-3.329q-.229-1.128-.407-2.265c-10.908,8.769-20.777,17.433-29.341,25.805-18.913,18.491-39.629,43.578-30.912,58.086s40.69,8.158,65.976.275c.346-.108.689-.215,1.036-.325,34.533-10.9,76.834-30.8,119.262-56.114,42.854-25.57,80.757-53.635,106.727-79.025C396.366,270.8,417.082,245.71,408.364,231.2Z"/>
      </g>
      <g id="Group_349" data-name="Group 349" class="cls-61" transform="translate(-3 12)">
        <path id="Path_944" data-name="Path 944" class="cls-63" d="M434.887,315.361c-1.216-17.077-32.769-25.911-59.025-30.315l-1.077-.179c-11.4-1.871-23.928-3.278-37.291-4.216,1.023,1.714,2.005,3.443,2.873,5.224,11.994.921,23.269,2.229,33.6,3.926l1.063.176c33.608,5.637,54.118,15.26,54.866,25.74s-18.192,22.915-50.661,33.26c-34.463,10.982-80.795,18.979-130.461,22.519s-96.7,2.167-132.336-3.789c-33.608-5.636-54.118-15.259-54.865-25.739s18.191-22.915,50.66-33.261c10.571-3.368,22.264-6.455,34.822-9.219q.455-1.643,1.035-3.251.308-1.123.665-2.231c-13.767,2.949-26.555,6.278-38.04,9.937-25.365,8.083-55.347,21.3-54.129,38.38s32.769,25.911,59.025,30.315l1.077.179c35.916,5.894,82.89,7.2,132.442,3.665,50.049-3.567,96.794-11.643,131.623-22.741C406.123,345.659,436.105,332.439,434.887,315.361Z"/>
      </g>
    </g>
  </g>
</svg>
