<svg xmlns="http://www.w3.org/2000/svg" xmlns:xlink="http://www.w3.org/1999/xlink" viewBox="0 0 750 500"><defs><style>.a{fill:none;}.b{clip-path:url(#gz);}.c{clip-path:url(#a);}.af,.ah,.am,.an,.bg,.bj,.bk,.bq,.d,.e,.f,.g,.h,.i,.r,.s,.t,.u{opacity:0.32;}.d{fill:url(#b);}.e{fill:url(#c);}.f{fill:url(#d);}.g{fill:url(#e);}.h{fill:url(#f);}.i{fill:url(#g);}.aa,.ab,.ac,.ai,.aj,.ak,.al,.ao,.aq,.as,.au,.az,.ba,.bb,.bh,.bi,.bm,.bn,.bp,.bt,.bu,.bv,.bw,.bz,.ca,.cc,.cx,.cy,.cz,.da,.db,.dc,.dd,.de,.df,.dg,.dh,.di,.dj,.dk,.dl,.dm,.dn,.do,.dp,.dq,.dr,.ds,.dt,.du,.dv,.dw,.dx,.dy,.dz,.ea,.eb,.ec,.ed,.ee,.ef,.eg,.eh,.ei,.ej,.ek,.el,.em,.en,.eo,.ep,.eq,.er,.es,.et,.eu,.ev,.fd,.fe,.ff,.fg,.fh,.fi,.fj,.fk,.fl,.fm,.fn,.fo,.fp,.fq,.fr,.fs,.ft,.fu,.fv,.fw,.fx,.fy,.fz,.ga,.gb,.gc,.gd,.ge,.gf,.gg,.gh,.gi,.gj,.gk,.gl,.gm,.gn,.go,.gp,.gq,.gr,.gs,.gt,.gu,.gv,.gw,.gx,.gy,.gz,.ha,.hb,.j,.k,.l,.m,.n,.o,.x,.y,.z{opacity:0.5;}.j{fill:url(#h);}.k{fill:url(#i);}.l{fill:url(#j);}.m{fill:url(#k);}.n{fill:url(#l);}.o{fill:url(#m);}.p{fill:url(#n);}.q{fill:url(#o);}.r{fill:url(#p);}.s{fill:url(#q);}.t{fill:url(#r);}.u{fill:url(#s);}.v{fill:url(#t);}.w{fill:url(#u);}.x{fill:url(#v);}.y{fill:url(#w);}.z{fill:url(#x);}.aa{fill:url(#y);}.ab{fill:url(#z);}.ac{fill:url(#aa);}.ad{fill:url(#ab);}.ae{fill:url(#ac);}.af{fill:url(#ad);}.ag{fill:url(#ae);}.ah{fill:url(#af);}.ai{fill:url(#ag);}.aj{fill:url(#ah);}.ak{fill:url(#ai);}.al{fill:url(#aj);}.am{fill:url(#ak);}.an{fill:url(#al);}.ao{fill:url(#am);}.ap{fill:url(#an);}.aq{fill:url(#ao);}.ar{fill:url(#ap);}.as{fill:url(#aq);}.at{fill:url(#ar);}.au{fill:url(#as);}.av{fill:url(#at);}.aw{fill:url(#au);}.ax{fill:url(#av);}.ay{fill:url(#aw);}.az{fill:url(#ax);}.ba{fill:url(#ay);}.bb{fill:url(#az);}.bc{fill:url(#ba);}.bd{fill:url(#bb);}.be{fill:url(#bc);}.bf{fill:url(#bd);}.bg{fill:url(#be);}.bh{fill:url(#bf);}.bi{fill:url(#bg);}.bj{fill:url(#bh);}.bk{fill:url(#bi);}.bl{fill:url(#bj);}.bm{fill:url(#bk);}.bn{fill:url(#bl);}.bo{fill:url(#bm);}.bp{fill:url(#bn);}.bq{fill:url(#bo);}.br{fill:url(#bp);}.bs{fill:url(#bq);}.bt{fill:url(#br);}.bu{fill:url(#bs);}.bv{fill:url(#bt);}.bw{fill:url(#bu);}.bx{fill:url(#bv);}.by{fill:url(#bw);}.bz{fill:url(#bx);}.ca{fill:url(#by);}.cb{fill:#1f2075;}.cd,.ce,.cg,.ch,.cj,.ck,.cm,.cn,.cs{opacity:0.7;}.cd{fill:url(#bz);}.ce{fill:url(#ca);}.cf,.ci,.cl,.co{stroke:#c600e5;stroke-linecap:round;stroke-linejoin:round;}.cf,.ci{stroke-width:0.5px;}.cf{fill:url(#cb);}.cg{fill:url(#cc);}.ch{fill:url(#cd);}.ci{fill:url(#ce);}.cj{fill:url(#cf);}.ck{fill:url(#cg);}.cl,.co{stroke-width:0.364px;}.cl{fill:url(#ch);}.cm{fill:url(#ci);}.cn{fill:url(#cj);}.co{fill:url(#ck);}.cp{fill:url(#cl);}.cq{fill:url(#cm);}.cr{fill:url(#cn);}.ct{fill:url(#co);}.cu{fill:url(#cp);}.cv{fill:url(#cq);}.cw{fill:url(#cr);}.cx{fill:url(#cs);}.cy{fill:url(#ct);}.cz{fill:url(#cu);}.da{fill:url(#cv);}.db{fill:url(#cw);}.dc{fill:url(#cx);}.dd{fill:url(#cy);}.de{fill:url(#cz);}.df{fill:url(#da);}.dg{fill:url(#db);}.dh{fill:url(#dc);}.di{fill:url(#dd);}.dj{fill:url(#de);}.dk{fill:url(#df);}.dl{fill:url(#dg);}.dm{fill:url(#dh);}.dn{fill:url(#di);}.do{fill:url(#dj);}.dp{fill:url(#dk);}.dq{fill:url(#dl);}.dr{fill:url(#dm);}.ds{fill:url(#dn);}.dt{fill:url(#do);}.du{fill:url(#dp);}.dv{fill:url(#dq);}.dw{fill:url(#dr);}.dx{fill:url(#ds);}.dy{fill:url(#dt);}.dz{fill:url(#du);}.ea{fill:url(#dv);}.eb{fill:url(#dw);}.ec{fill:url(#dx);}.ed{fill:url(#dy);}.ee{fill:url(#dz);}.ef{fill:url(#ea);}.eg{fill:url(#eb);}.eh{fill:url(#ec);}.ei{fill:url(#ed);}.ej{fill:url(#ee);}.ek{fill:url(#ef);}.el{fill:url(#eg);}.em{fill:url(#eh);}.en{fill:url(#ei);}.eo{fill:url(#ej);}.ep{fill:url(#ek);}.eq{fill:url(#el);}.er{fill:url(#em);}.es{fill:url(#en);}.et{fill:url(#eo);}.eu{fill:url(#ep);}.ev{fill:url(#eq);}.ew{fill:url(#er);}.ex{fill:url(#es);}.ey{fill:url(#et);}.ez{fill:url(#eu);}.fa{fill:url(#ev);}.fb{fill:url(#ew);}.fc{fill:url(#ex);}.fd{fill:url(#ey);}.fe{fill:url(#ez);}.ff{fill:url(#fa);}.fg{fill:url(#fb);}.fh{fill:url(#fc);}.fi{fill:url(#fd);}.fj{fill:url(#fe);}.fk{fill:url(#ff);}.fl{fill:url(#fg);}.fm{fill:url(#fh);}.fn{fill:url(#fi);}.fo{fill:url(#fj);}.fp{fill:url(#fk);}.fq{fill:url(#fl);}.fr{fill:url(#fm);}.fs{fill:url(#fn);}.ft{fill:url(#fo);}.fu{fill:url(#fp);}.fv{fill:url(#fq);}.fw{fill:url(#fr);}.fx{fill:url(#fs);}.fy{fill:url(#ft);}.fz{fill:url(#fu);}.ga{fill:url(#fv);}.gb{fill:url(#fw);}.gc{fill:url(#fx);}.gd{fill:url(#fy);}.ge{fill:url(#fz);}.gf{fill:url(#ga);}.gg{fill:url(#gb);}.gh{fill:url(#gc);}.gi{fill:url(#gd);}.gj{fill:url(#ge);}.gk{fill:url(#gf);}.gl{fill:url(#gg);}.gm{fill:url(#gh);}.gn{fill:url(#gi);}.go{fill:url(#gj);}.gp{fill:url(#gk);}.gq{fill:url(#gl);}.gr{fill:url(#gm);}.gs{fill:url(#gn);}.gt{fill:url(#go);}.gu{fill:url(#gp);}.gv{fill:url(#gq);}.gw{fill:url(#gr);}.gx{fill:url(#gs);}.gy{fill:url(#gt);}.gz{fill:url(#gu);}.ha{fill:url(#gv);}.hb{fill:url(#gw);}.hc{fill:url(#gx);}.hd{fill:#fff87b;}</style><clipPath id="a"><rect class="a" width="627" height="500" transform="translate(123)"/></clipPath><radialGradient id="b" cx="709.679" cy="365.661" r="3.515" gradientTransform="translate(-0.001 -0.001)" gradientUnits="userSpaceOnUse"><stop offset="0.059" stop-color="#e47e99"/><stop offset="0.526" stop-color="#e43d99"/><stop offset="0.993" stop-color="#b30058"/></radialGradient><radialGradient id="c" cx="699.909" cy="448.126" r="3.516" gradientTransform="matrix(1, 0, 0, 1, 0, 0)" xlink:href="#b"/><radialGradient id="d" cx="593.617" cy="378.298" r="3.516" gradientTransform="matrix(1, 0, 0, 1, 0, 0)" xlink:href="#b"/><radialGradient id="e" cx="585.396" cy="415.296" r="5.861" gradientTransform="matrix(1, 0, 0, 1, 0, 0)" xlink:href="#b"/><radialGradient id="f" cx="581.097" cy="345.729" r="5.861" gradientTransform="translate(0.001 0.001)" xlink:href="#b"/><radialGradient id="g" cx="731.175" cy="422.331" r="5.861" gradientTransform="matrix(1, 0, 0, 1, 0, 0)" xlink:href="#b"/><radialGradient id="h" cx="652.796" cy="323.351" r="153.361" gradientTransform="translate(-164.06 -146.547) rotate(180)" gradientUnits="userSpaceOnUse"><stop offset="0.059" stop-color="#0a1656"/><stop offset="0.889" stop-color="#4478ad"/></radialGradient><radialGradient id="i" cx="652.795" cy="323.352" r="153.359" gradientTransform="translate(-229.135 -361.851) rotate(180)" xlink:href="#h"/><radialGradient id="j" cx="652.796" cy="323.352" r="153.358" gradientTransform="translate(-121.268 -286.815) rotate(180)" xlink:href="#h"/><radialGradient id="k" cx="652.795" cy="323.349" r="153.323" gradientTransform="translate(-174.97 -233.474) rotate(180)" xlink:href="#h"/><radialGradient id="l" cx="652.796" cy="323.351" r="153.359" gradientTransform="translate(-418.711 -114.069) rotate(180)" xlink:href="#h"/><radialGradient id="m" cx="652.795" cy="323.349" r="153.359" gradientTransform="translate(-373.421 -290.683) rotate(180)" xlink:href="#h"/><radialGradient id="n" cx="717.482" cy="400.105" r="14.982" gradientTransform="translate(-32.741 -10.16) rotate(180) scale(0.803 0.803)" xlink:href="#h"/><radialGradient id="o" cx="598.148" cy="444.656" r="14.151" gradientTransform="translate(-10.554 -13.576) rotate(180) scale(0.872 0.872)" xlink:href="#h"/><radialGradient id="p" cx="714.963" cy="48.513" r="3.516" gradientTransform="matrix(1, 0, 0, 1, 0, 0)" xlink:href="#b"/><radialGradient id="q" cx="705.192" cy="130.978" r="3.516" gradientTransform="matrix(1, 0, 0, 1, 0, 0)" xlink:href="#b"/><radialGradient id="r" cx="598.901" cy="61.15" r="3.516" gradientTransform="matrix(1, 0, 0, 1, 0, 0)" xlink:href="#b"/><radialGradient id="s" cx="590.68" cy="98.148" r="5.86" gradientTransform="translate(0 0)" xlink:href="#b"/><radialGradient id="t" cx="586.381" cy="28.58" r="5.861" gradientTransform="matrix(1, 0, 0, 1, 0, 0)" xlink:href="#b"/><radialGradient id="u" cx="736.459" cy="105.183" r="5.861" gradientTransform="matrix(1, 0, 0, 1, 0, 0)" xlink:href="#b"/><radialGradient id="v" cx="658.078" cy="6.203" r="153.356" gradientTransform="translate(-169.449 176.828) rotate(180)" xlink:href="#h"/><radialGradient id="w" cx="658.08" cy="6.204" r="153.359" gradientTransform="translate(-234.547 -36.988) rotate(180)" xlink:href="#h"/><radialGradient id="x" cx="658.08" cy="6.204" r="153.358" gradientTransform="translate(-126.68 38.049) rotate(180)" xlink:href="#h"/><radialGradient id="y" cx="658.079" cy="6.203" r="153.36" gradientTransform="translate(-180.432 91.39) rotate(180)" xlink:href="#h"/><radialGradient id="z" cx="658.08" cy="6.203" r="153.36" gradientTransform="translate(-424.124 210.795) rotate(180)" xlink:href="#h"/><radialGradient id="aa" cx="658.079" cy="6.204" r="153.357" gradientTransform="translate(-378.834 34.183) rotate(180)" xlink:href="#h"/><radialGradient id="ab" cx="722.766" cy="82.957" r="14.982" gradientTransform="translate(-33.632 49.348) rotate(180) scale(0.803 0.803)" xlink:href="#h"/><radialGradient id="ac" cx="603.432" cy="127.508" r="14.151" gradientTransform="translate(-11.416 41.704) rotate(180) scale(0.872 0.872)" xlink:href="#h"/><radialGradient id="ad" cx="438.934" cy="137.187" r="3.362" gradientTransform="matrix(1, 0, 0, 1, 0, 0)" xlink:href="#b"/><radialGradient id="ae" cx="457.615" cy="104.209" r="5.605" gradientTransform="matrix(1, 0, 0, 1, 0, 0)" xlink:href="#b"/><radialGradient id="af" cx="441.385" cy="171.994" r="5.605" gradientTransform="matrix(1, 0, 0, 1, 0, 0)" xlink:href="#b"/><radialGradient id="ag" cx="366.276" cy="172.429" r="153.382" gradientTransform="matrix(0.956, 0.292, -0.292, 0.956, 28.103, 2.018)" xlink:href="#h"/><radialGradient id="ah" cx="366.277" cy="172.428" r="153.357" gradientTransform="matrix(0.956, 0.292, -0.292, 0.956, 62.075, 6.381)" xlink:href="#h"/><radialGradient id="ai" cx="366.276" cy="172.429" r="153.36" gradientTransform="matrix(0.956, 0.292, -0.292, 0.956, 45.191, 16.003)" xlink:href="#h"/><radialGradient id="aj" cx="366.276" cy="172.429" r="153.32" gradientTransform="matrix(0.957, 0.292, -0.292, 0.957, 41.5, 5.421)" xlink:href="#h"/><radialGradient id="ak" cx="486.545" cy="45.492" r="3.195" gradientTransform="matrix(1, 0, 0, 1, 0, 0)" xlink:href="#b"/><radialGradient id="al" cx="547.015" cy="49.609" r="5.326" gradientTransform="matrix(1, 0, 0, 1, 0, 0)" xlink:href="#b"/><radialGradient id="am" cx="424.355" cy="79.519" r="153.318" gradientTransform="matrix(-0.418, 0.909, -0.909, -0.418, -24.362, 144.148)" xlink:href="#h"/><radialGradient id="an" cx="518.819" cy="50.581" r="8.664" gradientTransform="matrix(0.187, -1.388, 1.388, 0.187, -31.391, 36.998)" xlink:href="#h"/><radialGradient id="ao" cx="357.23" cy="-52.079" r="193.516" gradientTransform="matrix(-0.941, -0.339, 0.339, -0.941, 20.359, -19.02)" xlink:href="#h"/><radialGradient id="ap" cx="401.487" cy="28.527" r="28.535" gradientTransform="matrix(0.483, 0.024, -0.024, 0.483, 17.667, 3.645)" xlink:href="#h"/><radialGradient id="aq" cx="827.259" cy="363.937" r="193.437" gradientTransform="matrix(0.919, -0.394, 0.394, 0.919, -47.789, 9.444)" xlink:href="#h"/><radialGradient id="ar" cx="714.396" cy="311.04" r="13.285" gradientTransform="matrix(-0.88, 0.744, -0.744, -0.88, 42.35, 40.68)" xlink:href="#h"/><radialGradient id="as" cx="523.184" cy="35.728" r="193.476" gradientTransform="matrix(-0.813, 0.582, -0.582, -0.813, -446.457, 36.336)" xlink:href="#h"/><radialGradient id="at" cx="644.773" cy="63.158" r="11.066" gradientTransform="matrix(0.841, -1.099, 1.099, 0.841, -32.478, 37.816)" xlink:href="#h"/><radialGradient id="au" cx="454.561" cy="39.186" r="17.136" gradientTransform="translate(7.253 62.645) rotate(180) scale(0.639 0.639)" xlink:href="#h"/><radialGradient id="av" cx="304.091" cy="451.748" r="5.605" gradientTransform="matrix(0.587, -0.81, 0.81, 0.587, -6.19, 5.493)" xlink:href="#b"/><radialGradient id="aw" cx="313.091" cy="371.748" r="5.605" gradientTransform="matrix(0.587, -0.81, 0.81, 0.587, -6.985, 12.562)" xlink:href="#b"/><radialGradient id="ax" cx="305.738" cy="565.738" r="153.359" gradientTransform="translate(-108.674 140.63) rotate(-37.07)" xlink:href="#h"/><radialGradient id="ay" cx="305.738" cy="565.738" r="153.358" gradientTransform="translate(-123.494 101.576) rotate(-37.07)" xlink:href="#h"/><radialGradient id="az" cx="305.739" cy="565.74" r="153.313" gradientTransform="matrix(0.798, -0.603, 0.603, 0.798, -99.861, 97.233)" xlink:href="#h"/><radialGradient id="ba" cx="276.501" cy="433.236" r="7.818" gradientTransform="matrix(0.896, -1.236, 1.236, 0.896, -16.102, 20.767)" xlink:href="#h"/><radialGradient id="bb" cx="411.501" cy="132.236" r="7.818" gradientTransform="matrix(0.896, -1.236, 1.236, 0.896, -21.776, 31.769)" xlink:href="#h"/><radialGradient id="bc" cx="441.501" cy="242.236" r="7.818" gradientTransform="matrix(0.896, -1.236, 1.236, 0.896, -21.556, 27.28)" xlink:href="#h"/><radialGradient id="bd" cx="645.449" cy="414.525" r="3.363" gradientTransform="translate(0 0)" xlink:href="#b"/><radialGradient id="be" cx="664.129" cy="381.548" r="5.605" gradientTransform="matrix(1, 0, 0, 1, 0, 0)" xlink:href="#b"/><radialGradient id="bf" cx="354.779" cy="416.708" r="153.317" gradientTransform="matrix(0.957, 0.292, -0.292, 0.957, 45.469, 10.267)" xlink:href="#h"/><radialGradient id="bg" cx="572.791" cy="449.769" r="153.36" gradientTransform="translate(36.669 -1.06) rotate(17.002)" xlink:href="#h"/><radialGradient id="bh" cx="531.255" cy="101.137" r="3.493" gradientTransform="translate(0 0)" xlink:href="#b"/><radialGradient id="bi" cx="572.769" cy="216.875" r="3.492" gradientTransform="translate(0 0)" xlink:href="#b"/><radialGradient id="bj" cx="606.8" cy="194.855" r="5.821" gradientTransform="translate(-65.403 28.361) rotate(180)" gradientUnits="userSpaceOnUse"><stop offset="0.059" stop-color="#66b0d8"/><stop offset="1" stop-color="#3f1f7d"/></radialGradient><radialGradient id="bk" cx="479.625" cy="52.556" r="153.358" gradientTransform="matrix(-0.993, -0.115, 0.115, -0.993, -71.568, 457.477)" xlink:href="#h"/><radialGradient id="bl" cx="540.344" cy="87.501" r="153.363" gradientTransform="matrix(-0.993, -0.115, 0.115, -0.993, -59.047, 255.67)" xlink:href="#h"/><radialGradient id="bm" cx="596.732" cy="170.333" r="15.135" gradientTransform="translate(-12.615 32.778) rotate(180) scale(0.792 0.792)" xlink:href="#h"/><radialGradient id="bn" cx="279.303" cy="554.82" r="153.36" gradientTransform="translate(47.227 7.054) rotate(17.002)" xlink:href="#h"/><radialGradient id="bo" cx="679.999" cy="253.003" r="3.362" gradientTransform="translate(0 0)" xlink:href="#b"/><radialGradient id="bp" cx="698.679" cy="220.025" r="5.605" gradientTransform="translate(-101.613 19.592) rotate(180)" xlink:href="#bj"/><radialGradient id="bq" cx="654.833" cy="324.381" r="5.605" gradientTransform="matrix(1, 0, 0, 1, 0, 0)" xlink:href="#b"/><radialGradient id="br" cx="607.34" cy="288.244" r="153.363" gradientTransform="matrix(0.956, 0.292, -0.292, 0.956, 22.73, -0.563)" xlink:href="#h"/><radialGradient id="bs" cx="579.724" cy="324.818" r="153.401" gradientTransform="matrix(0.956, 0.292, -0.292, 0.956, 57.074, 2.85)" xlink:href="#h"/><radialGradient id="bt" cx="607.341" cy="288.245" r="153.358" gradientTransform="matrix(0.956, 0.292, -0.292, 0.956, 39.556, 13.286)" xlink:href="#h"/><radialGradient id="bu" cx="607.34" cy="288.243" r="153.358" gradientTransform="matrix(0.956, 0.292, -0.292, 0.956, 35.854, 2.726)" xlink:href="#h"/><radialGradient id="bv" cx="697.48" cy="186.822" r="14.97" gradientTransform="translate(-30.055 29.693) rotate(180) scale(0.797 0.797)" xlink:href="#h"/><radialGradient id="bw" cx="393.679" cy="266.025" r="5.605" gradientTransform="translate(7.229 3.177) rotate(180)" xlink:href="#bj"/><radialGradient id="bx" cx="302.341" cy="334.245" r="153.36" gradientTransform="matrix(0.956, 0.292, -0.292, 0.956, 46.695, 12.211)" xlink:href="#h"/><radialGradient id="by" cx="302.34" cy="334.243" r="153.36" gradientTransform="matrix(0.956, 0.292, -0.292, 0.956, 42.992, 1.65)" xlink:href="#h"/><linearGradient id="bz" x1="-5.127" y1="2.254" x2="-4.496" y2="2.723" gradientUnits="objectBoundingBox"><stop offset="0" stop-color="#fff" stop-opacity="0"/><stop offset="1" stop-color="#fff" stop-opacity="0.8"/></linearGradient><linearGradient id="ca" x1="-6.094" y1="1.993" x2="-5.15" y2="2.826" xlink:href="#bz"/><linearGradient id="cb" x1="0" y1="0.5" x2="1" y2="0.5" xlink:href="#bz"/><linearGradient id="cc" x1="-8.491" y1="2.522" x2="-7.859" y2="2.992" xlink:href="#bz"/><linearGradient id="cd" x1="-9.805" y1="2.291" x2="-8.861" y2="3.123" xlink:href="#bz"/><linearGradient id="ce" x1="0" y1="0.5" x2="1" y2="0.5" xlink:href="#bz"/><linearGradient id="cf" x1="-22.028" y1="5.341" x2="-21.4" y2="5.787" xlink:href="#bz"/><linearGradient id="cg" x1="-31.304" y1="6.876" x2="-30.364" y2="7.667" xlink:href="#bz"/><linearGradient id="ch" x1="0" y1="0.5" x2="1" y2="0.5" xlink:href="#bz"/><linearGradient id="ci" x1="-3.16" y1="1.931" x2="-2.525" y2="2.394" xlink:href="#bz"/><linearGradient id="cj" x1="-3.96" y1="1.649" x2="-3.009" y2="2.471" xlink:href="#bz"/><linearGradient id="ck" x1="0" y1="0.5" x2="1" y2="0.5" xlink:href="#bz"/><radialGradient id="cl" cx="655.886" cy="269.914" r="29.178" gradientTransform="matrix(0.802, -0.597, 0.597, 0.802, -12.39, 22.309)" gradientUnits="userSpaceOnUse"><stop offset="0" stop-color="#8ee1ee"/><stop offset="0.617" stop-color="#5e8dec"/><stop offset="0.697" stop-color="#5e8ceb" stop-opacity="0.988"/><stop offset="0.75" stop-color="#5f89e8" stop-opacity="0.953"/><stop offset="0.796" stop-color="#6085e4" stop-opacity="0.886"/><stop offset="0.836" stop-color="#627edf" stop-opacity="0.796"/><stop offset="0.874" stop-color="#6576d7" stop-opacity="0.682"/><stop offset="0.909" stop-color="#686cce" stop-opacity="0.537"/><stop offset="0.943" stop-color="#6b60c3" stop-opacity="0.369"/><stop offset="0.975" stop-color="#7052b7" stop-opacity="0.176"/><stop offset="1" stop-color="#7446ac" stop-opacity="0"/></radialGradient><radialGradient id="cm" cx="43.561" cy="11.573" r="50.871" gradientTransform="matrix(0.708, 0.707, -0.707, 0.708, 20.91, -27.394)" gradientUnits="userSpaceOnUse"><stop offset="0" stop-color="#8ee1ee"/><stop offset="0.617" stop-color="#5e8dec"/><stop offset="0.63" stop-color="#5f88e7"/><stop offset="0.745" stop-color="#6a64c7"/><stop offset="0.839" stop-color="#714eb3"/><stop offset="0.898" stop-color="#7446ac"/></radialGradient><radialGradient id="cn" cx="613.686" cy="235.563" r="61.647" gradientTransform="matrix(0.987, -0.39, 0.342, 0.866, 1.809, -8.485)" xlink:href="#cm"/><radialGradient id="co" cx="644.309" cy="250.83" r="20.305" gradientTransform="matrix(1.495, -1.114, 1.114, 1.495, 10.234, 19.724)" xlink:href="#cm"/><radialGradient id="cp" cx="644.309" cy="250.83" r="42.675" gradientTransform="matrix(0.711, -0.53, 0.53, 0.711, -1.432, 7.181)" xlink:href="#cm"/><radialGradient id="cq" cx="644.308" cy="250.83" r="106.572" gradientTransform="matrix(0.285, -0.212, 0.212, 0.285, -29.87, 1.201)" xlink:href="#cm"/><radialGradient id="cr" cx="644.309" cy="250.83" r="64.316" gradientTransform="matrix(0.472, -0.352, 0.352, 0.472, -30.083, -8.053)" xlink:href="#cm"/><radialGradient id="cs" cx="648.758" cy="255.845" r="44.339" gradientTransform="matrix(0.805, -0.6, 0.6, 0.805, -4.094, 12.244)" xlink:href="#cm"/><radialGradient id="ct" cx="656.668" cy="266.971" r="34.589" gradientTransform="matrix(0.759, -0.565, 0.565, 0.759, -4.377, 14.625)" xlink:href="#cm"/><radialGradient id="cu" cx="638.251" cy="249.283" r="13.613" gradientTransform="matrix(0.668, -0.498, 0.498, 0.668, -6.4, -1.567)" xlink:href="#cm"/><radialGradient id="cv" cx="638.251" cy="249.283" r="14.155" gradientTransform="matrix(0.642, -0.479, 0.479, 0.642, -7.434, -2.946)" xlink:href="#cm"/><radialGradient id="cw" cx="679.881" cy="255.047" r="7.433" gradientTransform="matrix(0.655, 1.377, -1.377, 0.655, -14.11, 21.912)" xlink:href="#cm"/><radialGradient id="cx" cx="679.881" cy="255.047" r="6.34" gradientTransform="matrix(0.768, 1.615, -1.615, 0.768, -15.308, 30.601)" xlink:href="#cm"/><radialGradient id="cy" cx="674.258" cy="285.045" r="12.589" gradientTransform="matrix(-0.687, 0.582, -0.582, -0.687, -44.006, 53.788)" xlink:href="#cm"/><radialGradient id="cz" cx="674.258" cy="285.045" r="12.613" gradientTransform="matrix(-0.686, 0.581, -0.581, -0.686, -56.136, 62.731)" xlink:href="#cm"/><radialGradient id="da" cx="658.994" cy="291.538" r="16.169" gradientTransform="matrix(-0.84, 0.043, -0.076, -1.484, -24.868, 83.833)" xlink:href="#cm"/><radialGradient id="db" cx="644.684" cy="272.362" r="24.148" gradientTransform="matrix(0.575, -0.428, 0.428, 0.575, -5.672, -3.378)" xlink:href="#cm"/><radialGradient id="dc" cx="644.444" cy="253.33" r="9.861" gradientTransform="matrix(0.816, -0.35, 0.618, 1.442, -13.991, -13.097)" xlink:href="#cm"/><radialGradient id="dd" cx="657.363" cy="261.713" r="13.836" gradientTransform="matrix(-0.439, 0.675, -0.675, -0.439, -62.047, 24.743)" xlink:href="#cm"/><radialGradient id="de" cx="678.45" cy="267.846" r="9.422" gradientTransform="matrix(-0.285, 1.13, -1.997, -0.504, 13.281, 42.869)" xlink:href="#cm"/><radialGradient id="df" cx="660.247" cy="274.343" r="10.505" gradientTransform="matrix(-0.446, -1.253, 1.253, -0.446, -44.005, 12.026)" xlink:href="#cm"/><radialGradient id="dg" cx="632.463" cy="271.675" r="4.247" gradientTransform="matrix(-0.017, -2.104, 2.104, -0.017, -54.196, 37.075)" xlink:href="#cm"/><radialGradient id="dh" cx="632.463" cy="271.675" r="2.943" gradientTransform="matrix(-0.025, -3.037, 3.037, -0.025, -64.881, 31.66)" xlink:href="#cm"/><radialGradient id="di" cx="648.611" cy="296.977" r="18.221" gradientTransform="matrix(-0.574, -0.241, 0.241, -0.574, -55.473, 97.879)" xlink:href="#cm"/><radialGradient id="dj" cx="648.611" cy="296.977" r="23.436" gradientTransform="matrix(-0.446, -0.188, 0.188, -0.446, -76.347, 129.534)" xlink:href="#cm"/><radialGradient id="dk" cx="651.837" cy="244.335" r="13.121" gradientTransform="matrix(0.486, -0.057, 0.057, 0.486, -9.842, -2.011)" xlink:href="#cm"/><radialGradient id="dl" cx="651.837" cy="244.335" r="18.41" gradientTransform="matrix(0.346, -0.041, 0.041, 0.346, -20.22, -3.108)" xlink:href="#cm"/><radialGradient id="dm" cx="678.881" cy="283.797" r="5.653" gradientTransform="matrix(-0.718, 0.879, -0.879, -0.718, -90.695, 95.871)" xlink:href="#cm"/><radialGradient id="dn" cx="678.881" cy="283.797" r="5.094" gradientTransform="matrix(-0.797, 0.976, -0.976, -0.797, -108.86, 114.827)" xlink:href="#cm"/><radialGradient id="do" cx="637.451" cy="288.052" r="5.688" gradientTransform="matrix(-0.718, -0.87, 0.87, -0.718, -141.529, 66.823)" xlink:href="#cm"/><radialGradient id="dp" cx="637.451" cy="288.052" r="5.635" gradientTransform="matrix(-0.725, -0.878, 0.878, -0.725, -167.729, 75.311)" xlink:href="#cm"/><radialGradient id="dq" cx="669.002" cy="293.125" r="10.166" gradientTransform="matrix(-0.579, 0.252, -0.252, -0.579, -203.08, 163.594)" xlink:href="#cm"/><radialGradient id="dr" cx="669.002" cy="293.125" r="12.164" gradientTransform="matrix(-0.484, 0.211, -0.211, -0.484, -254.64, 206.926)" xlink:href="#cm"/><radialGradient id="ds" cx="672.166" cy="249.382" r="6.486" gradientTransform="matrix(0.641, 0.407, -0.407, 0.641, -32.348, 12.351)" xlink:href="#cm"/><radialGradient id="dt" cx="672.166" cy="249.382" r="7.663" gradientTransform="matrix(0.542, 0.345, -0.345, 0.542, -47.903, 12.428)" xlink:href="#cm"/><radialGradient id="du" cx="682.039" cy="268.375" r="2.352" gradientTransform="matrix(-0.106, 2.091, -2.091, -0.106, -62.835, 111.212)" xlink:href="#cm"/><radialGradient id="dv" cx="682.039" cy="268.375" r="1.625" gradientTransform="matrix(-0.154, 3.026, -3.026, -0.154, -69.983, 174.488)" xlink:href="#cm"/><radialGradient id="dw" cx="643.486" cy="286.541" r="4.157" gradientTransform="matrix(-0.659, -0.466, 0.466, -0.659, -111.478, 298.714)" xlink:href="#cm"/><radialGradient id="dx" cx="643.486" cy="286.541" r="4.785" gradientTransform="matrix(-0.573, -0.405, 0.405, -0.573, -141.581, 379.545)" xlink:href="#cm"/><radialGradient id="dy" cx="642.447" cy="265.156" r="2.904" gradientTransform="matrix(0.402, -1.084, 1.883, 0.698, -98.466, 109.727)" xlink:href="#cm"/><radialGradient id="dz" cx="642.447" cy="265.156" r="2.134" gradientTransform="matrix(0.547, -1.475, 2.562, 0.95, -119.918, 149.013)" xlink:href="#cm"/><radialGradient id="ea" cx="650.365" cy="250.246" r="6.2" gradientTransform="matrix(0.523, -0.14, 0.14, 0.523, 32.829, 22.442)" xlink:href="#cm"/><radialGradient id="eb" cx="650.365" cy="250.246" r="8.107" gradientTransform="matrix(0.4, -0.107, 0.107, 0.4, 69.767, 25.37)" xlink:href="#cm"/><radialGradient id="ec" cx="672.748" cy="259.117" r="2.209" gradientTransform="matrix(0.414, 1.136, -1.861, 0.679, 118.854, 16.45)" xlink:href="#cm"/><radialGradient id="ed" cx="672.748" cy="259.117" r="1.726" gradientTransform="matrix(0.53, 1.454, -2.382, 0.869, 132.069, 14.381)" xlink:href="#cm"/><radialGradient id="ee" cx="629.874" cy="264.569" r="3.46" gradientTransform="matrix(0.473, -1.793, 1.793, 0.473, -51.961, -6.253)" xlink:href="#cm"/><radialGradient id="ef" cx="629.874" cy="264.569" r="2.521" gradientTransform="matrix(0.649, -2.461, 2.461, 0.649, -54.067, -24.125)" xlink:href="#cm"/><radialGradient id="eg" cx="665.94" cy="273.286" r="10.332" gradientTransform="matrix(0.577, -1.319, 1.096, 0.48, -62.381, 1.5)" xlink:href="#cm"/><radialGradient id="eh" cx="665.941" cy="273.287" r="10.335" gradientTransform="matrix(0.577, -1.318, 1.095, 0.479, -104.537, 11.129)" xlink:href="#cm"/><radialGradient id="ei" cx="653.703" cy="276.633" r="22.818" gradientTransform="matrix(0.65, 0.325, -0.27, 0.54, -98.592, 6.881)" xlink:href="#cm"/><radialGradient id="ej" cx="654.563" cy="281.337" r="13.788" gradientTransform="matrix(0.65, 0.325, -0.27, 0.54, -161.998, 17.134)" xlink:href="#cm"/><radialGradient id="ek" cx="644.301" cy="279.17" r="7.953" gradientTransform="matrix(0.707, 0.744, -0.619, 0.588, -234.975, 131.809)" xlink:href="#cm"/><radialGradient id="el" cx="674.872" cy="247.345" r="11.578" gradientTransform="matrix(0.707, 0.744, -0.618, 0.587, -175.354, 96.001)" xlink:href="#cm"/><radialGradient id="em" cx="674.145" cy="251.373" r="7.576" gradientTransform="matrix(0.707, 0.745, -0.619, 0.588, -265.701, 150.371)" xlink:href="#cm"/><radialGradient id="en" cx="657.788" cy="282.686" r="26.208" gradientTransform="matrix(0.567, 0.018, -0.015, 0.471, -53.773, -23.756)" xlink:href="#cm"/><radialGradient id="eo" cx="657.788" cy="282.685" r="26.21" gradientTransform="matrix(0.567, 0.018, -0.015, 0.471, -89.945, -35.487)" xlink:href="#cm"/><radialGradient id="ep" cx="652.471" cy="282.563" r="26.211" gradientTransform="matrix(0.567, 0.018, -0.015, 0.471, -89.947, -35.454)" xlink:href="#cm"/><radialGradient id="eq" cx="605.227" cy="254.279" r="174.751" gradientTransform="matrix(0.054, -0.512, 0.512, 0.054, -54.251, -3.97)" xlink:href="#cm"/><radialGradient id="er" cx="17.041" cy="17.066" r="17.37" gradientTransform="translate(4.342 -3.437) rotate(13.184)" gradientUnits="userSpaceOnUse"><stop offset="0.059" stop-color="#fce085"/><stop offset="0.411" stop-color="#fbdf85" stop-opacity="0.992"/><stop offset="0.537" stop-color="#fbdc89" stop-opacity="0.965"/><stop offset="0.627" stop-color="#fad88e" stop-opacity="0.918"/><stop offset="0.7" stop-color="#f9d296" stop-opacity="0.851"/><stop offset="0.763" stop-color="#f7cba1" stop-opacity="0.765"/><stop offset="0.818" stop-color="#f5c1ae" stop-opacity="0.655"/><stop offset="0.868" stop-color="#f3b6bd" stop-opacity="0.529"/><stop offset="0.915" stop-color="#f0a9cf" stop-opacity="0.376"/><stop offset="0.957" stop-color="#ec9ae4" stop-opacity="0.208"/><stop offset="0.995" stop-color="#e98af9" stop-opacity="0.024"/><stop offset="1" stop-color="#e988fd" stop-opacity="0"/></radialGradient><radialGradient id="es" cx="20.717" cy="2.933" r="30.284" gradientTransform="matrix(0.956, 0.292, -0.292, 0.956, 1.76, -5.924)" gradientUnits="userSpaceOnUse"><stop offset="0.059" stop-color="#fce085"/><stop offset="0.963" stop-color="#e988fd"/></radialGradient><radialGradient id="et" cx="625.682" cy="77.105" r="63.657" gradientTransform="matrix(0.591, 0.16, -0.14, 0.518, 0.484, -6.573)" xlink:href="#es"/><radialGradient id="eu" cx="634.872" cy="95.285" r="6.945" gradientTransform="translate(-33.44 6.205) scale(3.245 3.245)" xlink:href="#es"/><radialGradient id="ev" cx="634.872" cy="95.285" r="59.484" gradientTransform="translate(6.343 0.827) scale(0.379 0.379)" xlink:href="#es"/><radialGradient id="ew" cx="634.872" cy="95.285" r="15.061" gradientTransform="translate(2.816 0.769) scale(1.496 1.496)" xlink:href="#es"/><radialGradient id="ex" cx="634.872" cy="95.284" r="9.531" gradientTransform="translate(10.863 8.026) scale(2.364 2.364)" xlink:href="#es"/><radialGradient id="ey" cx="635.212" cy="99.261" r="30.684" gradientTransform="translate(2.245 0.221) scale(0.864 0.864)" xlink:href="#es"/><radialGradient id="ez" cx="635.031" cy="107.386" r="33.732" gradientTransform="translate(6.72 0.444) scale(0.578 0.578)" xlink:href="#es"/><radialGradient id="fa" cx="632.53" cy="92.392" r="14.203" gradientTransform="translate(1.128 -0.839) scale(0.475 0.475)" xlink:href="#es"/><radialGradient id="fb" cx="632.53" cy="92.392" r="20.518" gradientTransform="translate(1.472 -1.889) scale(0.329 0.329)" xlink:href="#es"/><radialGradient id="fc" cx="650.354" cy="109.95" r="3.462" gradientTransform="matrix(-0.38, 1.912, -1.912, -0.38, -74.074, 133.658)" xlink:href="#es"/><radialGradient id="fd" cx="650.354" cy="109.95" r="2.463" gradientTransform="matrix(-0.534, 2.687, -2.687, -0.534, -89.355, 196.07)" xlink:href="#es"/><radialGradient id="fe" cx="637" cy="122.271" r="14.085" gradientTransform="matrix(-0.478, 0.03, -0.03, -0.478, -161.055, 301.329)" xlink:href="#es"/><radialGradient id="ff" cx="637" cy="122.271" r="20.117" gradientTransform="matrix(-0.335, 0.021, -0.021, -0.335, -226.189, 456.091)" xlink:href="#es"/><radialGradient id="fg" cx="627.404" cy="119.942" r="8.646" gradientTransform="matrix(-0.778, -0.52, 0.92, -1.376, -114.179, 161.182)" xlink:href="#es"/><radialGradient id="fh" cx="627.393" cy="105.698" r="11.596" gradientTransform="translate(0.218 -0.352) scale(0.888 0.888)" xlink:href="#es"/><radialGradient id="fi" cx="634.047" cy="96.526" r="6.082" gradientTransform="matrix(0.833, 0.2, -0.353, 1.472, 17.664, -31.067)" xlink:href="#es"/><radialGradient id="fj" cx="637.233" cy="105.123" r="8.858" gradientTransform="matrix(-0.702, 0.26, -0.26, -0.702, -159.71, 179.252)" xlink:href="#es"/><radialGradient id="fk" cx="645.119" cy="115.551" r="6.771" gradientTransform="matrix(-0.749, 0.61, -1.078, -1.324, -42.203, 200.88)" xlink:href="#es"/><radialGradient id="fl" cx="634.118" cy="112.178" r="8.855" gradientTransform="matrix(0.276, -0.898, 0.898, 0.276, -31.227, 50.933)" xlink:href="#es"/><radialGradient id="fm" cx="621.803" cy="101.023" r="4.386" gradientTransform="matrix(0.717, -0.979, 0.979, 0.717, -61.346, 75.907)" xlink:href="#es"/><radialGradient id="fn" cx="621.803" cy="101.023" r="3.843" gradientTransform="matrix(0.818, -1.117, 1.117, 0.818, -72.346, 89.316)" xlink:href="#es"/><radialGradient id="fo" cx="620.512" cy="118.845" r="4.918" gradientTransform="matrix(-0.697, -1.183, 1.183, -0.697, -98.309, 162.909)" xlink:href="#es"/><radialGradient id="fp" cx="620.512" cy="118.845" r="4.427" gradientTransform="matrix(-0.774, -1.314, 1.314, -0.774, -113.169, 181.936)" xlink:href="#es"/><radialGradient id="fq" cx="640.776" cy="94.862" r="5.305" gradientTransform="matrix(0.624, 0.359, -0.359, 0.624, -36.469, 13.015)" xlink:href="#es"/><radialGradient id="fr" cx="640.776" cy="94.861" r="6.409" gradientTransform="matrix(0.517, 0.298, -0.298, 0.517, -55.548, 12.964)" xlink:href="#es"/><radialGradient id="fs" cx="639.651" cy="123.319" r="7.16" gradientTransform="matrix(-0.518, 0.13, -0.13, -0.518, -261.21, 482.07)" xlink:href="#es"/><radialGradient id="ft" cx="639.651" cy="123.319" r="9.444" gradientTransform="matrix(-0.392, 0.098, -0.098, -0.392, -339.477, 679.945)" xlink:href="#es"/><radialGradient id="fu" cx="618.359" cy="110.615" r="1.824" gradientTransform="matrix(-0.104, -2.091, 2.091, -0.104, -171.062, 118.5)" xlink:href="#es"/><radialGradient id="fv" cx="618.36" cy="110.615" r="1.273" gradientTransform="matrix(-0.148, -2.996, 2.996, -0.148, -187.461, 107.925)" xlink:href="#es"/><radialGradient id="fw" cx="631.618" cy="124.258" r="7.26" gradientTransform="matrix(-0.512, -0.12, 0.12, -0.512, -475.067, 584.144)" xlink:href="#es"/><radialGradient id="fx" cx="631.618" cy="124.258" r="10.079" gradientTransform="matrix(-0.369, -0.086, 0.086, -0.369, -651.114, 878.889)" xlink:href="#es"/><radialGradient id="fy" cx="648.685" cy="104.501" r="1.758" gradientTransform="matrix(0.595, 1.558, -1.558, 0.595, -64.71, 151.298)" xlink:href="#es"/><radialGradient id="fz" cx="648.686" cy="104.501" r="1.429" gradientTransform="matrix(0.732, 1.917, -1.917, 0.732, -55.717, 209.159)" xlink:href="#es"/><radialGradient id="ga" cx="646.644" cy="117.079" r="2.602" gradientTransform="matrix(-0.718, 0.868, -0.868, -0.718, -229.743, 307.224)" xlink:href="#es"/><radialGradient id="gb" cx="646.644" cy="117.079" r="2.354" gradientTransform="matrix(-0.794, 0.96, -0.96, -0.794, -273.914, 363.614)" xlink:href="#es"/><radialGradient id="gc" cx="621.778" cy="112.04" r="1.138" gradientTransform="matrix(-0.544, -1.669, 1.669, -0.544, -187.701, 597.548)" xlink:href="#es"/><radialGradient id="gd" cx="621.778" cy="112.04" r="0.898" gradientTransform="matrix(-0.689, -2.115, 2.115, -0.689, -192.289, 697.405)" xlink:href="#es"/><radialGradient id="ge" cx="628.888" cy="101.462" r="2.159" gradientTransform="matrix(0.776, -0.504, 0.875, 1.348, -137.506, 21.041)" xlink:href="#es"/><radialGradient id="gf" cx="628.888" cy="101.462" r="2.389" gradientTransform="matrix(0.702, -0.455, 0.791, 1.219, -164.318, 13.991)" xlink:href="#es"/><radialGradient id="gg" cx="637.97" cy="97.16" r="3.282" gradientTransform="matrix(0.566, 0.225, -0.225, 0.566, 129.84, -31.551)" xlink:href="#es"/><radialGradient id="gh" cx="637.97" cy="97.16" r="4.263" gradientTransform="matrix(0.436, 0.173, -0.173, 0.436, 214.879, -31.075)" xlink:href="#es"/><radialGradient id="gi" cx="645.501" cy="109.355" r="1.291" gradientTransform="matrix(-0.353, 1.18, -1.933, -0.578, 221.355, 434.513)" xlink:href="#es"/><radialGradient id="gj" cx="645.501" cy="109.356" r="0.927" gradientTransform="matrix(-0.491, 1.643, -2.692, -0.805, 226.286, 518.457)" xlink:href="#es"/><radialGradient id="gk" cx="623.094" cy="96.709" r="4.404" gradientTransform="matrix(0.679, -0.54, 0.54, 0.679, -51.336, 30.06)" xlink:href="#es"/><radialGradient id="gl" cx="623.094" cy="96.71" r="4.493" gradientTransform="matrix(0.665, -0.53, 0.53, 0.665, -60.823, 35.245)" xlink:href="#es"/><radialGradient id="gm" cx="637.211" cy="113.698" r="11.586" gradientTransform="matrix(0.664, -0.378, 0.314, 0.552, -9.255, 68.215)" xlink:href="#es"/><radialGradient id="gn" cx="637.211" cy="113.698" r="11.579" gradientTransform="matrix(0.664, -0.379, 0.315, 0.552, -16.423, 114.085)" xlink:href="#es"/><radialGradient id="go" cx="630.179" cy="110.944" r="7.194" gradientTransform="matrix(0.617, 1.226, -1.019, 0.513, -220.545, 220.8)" xlink:href="#es"/><radialGradient id="gp" cx="628.917" cy="113.496" r="4.349" gradientTransform="matrix(0.617, 1.226, -1.019, 0.513, -363.319, 370.83)" xlink:href="#es"/><radialGradient id="gq" cx="624.789" cy="108.811" r="2.812" gradientTransform="matrix(0.206, 1.717, -1.427, 0.171, -715.034, 933.475)" xlink:href="#es"/><radialGradient id="gr" cx="650.702" cy="104.491" r="4.088" gradientTransform="matrix(0.206, 1.718, -1.428, 0.171, -525.429, 655.346)" xlink:href="#es"/><radialGradient id="gs" cx="648.922" cy="106.155" r="2.675" gradientTransform="matrix(0.206, 1.719, -1.429, 0.172, -801.401, 1003.05)" xlink:href="#es"/><radialGradient id="gt" cx="629.977" cy="115.286" r="9.943" gradientTransform="matrix(0.697, 0.555, -0.461, 0.579, -176.728, 35.734)" xlink:href="#es"/><radialGradient id="gu" cx="629.977" cy="115.287" r="9.937" gradientTransform="matrix(0.697, 0.555, -0.461, 0.579, -290.691, 62.171)" xlink:href="#es"/><radialGradient id="gv" cx="627.482" cy="113.337" r="9.94" gradientTransform="matrix(0.697, 0.555, -0.461, 0.579, -289.608, 63.651)" xlink:href="#es"/><radialGradient id="gw" cx="632.069" cy="89.578" r="84.372" gradientTransform="translate(4.01 -4.522) scale(0.305 0.305)" xlink:href="#es"/><linearGradient id="gx" x1="0.049" y1="-0.605" x2="0.981" y2="-0.605" gradientUnits="objectBoundingBox"><stop offset="0" stop-color="#fee662"/><stop offset="0.064" stop-color="#fed15d"/><stop offset="0.197" stop-color="#fe9b50"/><stop offset="0.349" stop-color="#ff5740"/><stop offset="1" stop-color="#2d0d53" stop-opacity="0"/></linearGradient><clipPath id="gz"><rect width="750" height="500"/></clipPath></defs><g id="gy" class="b"><g class="c" transform="translate(5)"><path class="d" d="M709.679,369.177a4.608,4.608,0,0,0-3.515-3.516,4.608,4.608,0,0,0,3.515-3.516,4.608,4.608,0,0,0,3.516,3.516,4.607,4.607,0,0,0-3.516,3.516Z"/><path class="e" d="M699.909,451.641a4.608,4.608,0,0,0-3.516-3.515,4.608,4.608,0,0,0,3.516-3.516,4.608,4.608,0,0,0,3.515,3.516,4.609,4.609,0,0,0-3.515,3.515Z"/><path class="f" d="M593.617,381.814A4.607,4.607,0,0,0,590.1,378.3a4.608,4.608,0,0,0,3.516-3.516,4.608,4.608,0,0,0,3.516,3.516,4.607,4.607,0,0,0-3.516,3.516Z"/><path class="g" d="M585.4,421.157a19.891,19.891,0,0,0-2.072-3.789,19.92,19.92,0,0,0-3.789-2.072,19.92,19.92,0,0,0,3.789-2.072,19.891,19.891,0,0,0,2.072-3.789,19.891,19.891,0,0,0,2.072,3.789,19.89,19.89,0,0,0,3.789,2.072,19.891,19.891,0,0,0-3.789,2.072A19.891,19.891,0,0,0,585.4,421.157Z"/><path class="h" d="M581.1,351.589a19.889,19.889,0,0,0-2.072-3.788,19.863,19.863,0,0,0-3.789-2.072,19.882,19.882,0,0,0,3.789-2.073,19.889,19.889,0,0,0,2.072-3.788,19.833,19.833,0,0,0,2.072,3.788,19.85,19.85,0,0,0,3.789,2.073,19.832,19.832,0,0,0-3.789,2.072A19.833,19.833,0,0,0,581.1,351.589Z"/><path class="i" d="M731.175,428.192A19.889,19.889,0,0,0,729.1,424.4a19.922,19.922,0,0,0-3.789-2.072,19.921,19.921,0,0,0,3.789-2.072,19.89,19.89,0,0,0,2.072-3.789,19.891,19.891,0,0,0,2.072,3.789,19.89,19.89,0,0,0,3.789,2.072,19.891,19.891,0,0,0-3.789,2.072A19.89,19.89,0,0,0,731.175,428.192Z"/><path class="j" d="M599,355.924a1.961,1.961,0,1,0,1.962,1.962A1.962,1.962,0,0,0,599,355.924Z"/><path class="k" d="M630.894,463.39a2.56,2.56,0,0,1-1.953,1.953,2.56,2.56,0,0,1,1.953,1.952,2.557,2.557,0,0,1,1.952-1.952,2.557,2.557,0,0,1-1.952-1.953Z"/><path class="l" d="M576.96,425.871a2.561,2.561,0,0,1-1.953,1.952,2.564,2.564,0,0,1,1.953,1.953,2.561,2.561,0,0,1,1.952-1.953,2.557,2.557,0,0,1-1.952-1.952Z"/><path class="m" d="M603.835,399.2a2.557,2.557,0,0,1-1.952,1.953,2.557,2.557,0,0,1,1.952,1.953,2.56,2.56,0,0,1,1.953-1.953,2.56,2.56,0,0,1-1.953-1.953Z"/><path class="n" d="M725.683,339.5a2.56,2.56,0,0,1-1.953,1.952,2.563,2.563,0,0,1,1.953,1.953,2.56,2.56,0,0,1,1.952-1.953,2.557,2.557,0,0,1-1.952-1.952Z"/><path class="o" d="M703.035,427.8a2.56,2.56,0,0,1-1.952,1.953,2.557,2.557,0,0,1,1.952,1.952,2.561,2.561,0,0,1,1.953-1.952,2.564,2.564,0,0,1-1.953-1.953Z"/><path class="p" d="M714.654,398.8a.652.652,0,1,1,.652.652A.653.653,0,0,1,714.654,398.8Zm-5.221,11.964a1.305,1.305,0,1,0-1.3-1.3A1.3,1.3,0,0,0,709.433,410.764Zm-2.61-15.662a2.61,2.61,0,1,0-2.61-2.61A2.611,2.611,0,0,0,706.823,395.1Zm22.623-3.045a1.305,1.305,0,1,0-1.306-1.306A1.306,1.306,0,0,0,729.446,392.057Z"/><path class="q" d="M600.354,445.55a.652.652,0,1,1-.705-.6A.652.652,0,0,1,600.354,445.55Zm4.187-12.364a1.305,1.305,0,1,0,1.411,1.19A1.3,1.3,0,0,0,604.541,433.186Zm3.93,15.385a2.61,2.61,0,1,0,2.822,2.379A2.61,2.61,0,0,0,608.471,448.571Zm-22.283,4.953a1.305,1.305,0,1,0,1.411,1.19A1.306,1.306,0,0,0,586.188,453.524Z"/><path class="r" d="M714.963,52.029a11.925,11.925,0,0,0-1.243-2.273,11.923,11.923,0,0,0-2.273-1.243,11.923,11.923,0,0,0,2.273-1.243A11.925,11.925,0,0,0,714.963,45a11.924,11.924,0,0,0,1.243,2.273,11.925,11.925,0,0,0,2.273,1.243,11.925,11.925,0,0,0-2.273,1.243A11.924,11.924,0,0,0,714.963,52.029Z"/><path class="s" d="M705.192,134.493a11.924,11.924,0,0,0-1.243-2.272,11.923,11.923,0,0,0-2.272-1.243,11.883,11.883,0,0,0,2.272-1.244,11.894,11.894,0,0,0,1.243-2.272,11.914,11.914,0,0,0,1.244,2.272,11.856,11.856,0,0,0,2.272,1.244,11.9,11.9,0,0,0-2.272,1.243A11.945,11.945,0,0,0,705.192,134.493Z"/><path class="t" d="M598.9,64.666a11.924,11.924,0,0,0-1.243-2.273,11.925,11.925,0,0,0-2.273-1.243,11.925,11.925,0,0,0,2.273-1.243,11.924,11.924,0,0,0,1.243-2.273,11.924,11.924,0,0,0,1.243,2.273,11.925,11.925,0,0,0,2.273,1.243,11.925,11.925,0,0,0-2.273,1.243A11.924,11.924,0,0,0,598.9,64.666Z"/><path class="u" d="M590.68,104.009a19.891,19.891,0,0,0-2.072-3.789,19.92,19.92,0,0,0-3.789-2.072,19.92,19.92,0,0,0,3.789-2.072,19.921,19.921,0,0,0,2.072-3.789,19.861,19.861,0,0,0,2.072,3.789,19.889,19.889,0,0,0,3.788,2.072,19.889,19.889,0,0,0-3.788,2.072A19.831,19.831,0,0,0,590.68,104.009Z"/><path class="v" d="M586.381,34.441a19.848,19.848,0,0,0-2.073-3.788,19.832,19.832,0,0,0-3.788-2.072,19.85,19.85,0,0,0,3.788-2.073,19.848,19.848,0,0,0,2.073-3.788,19.833,19.833,0,0,0,2.072,3.788,19.85,19.85,0,0,0,3.788,2.073,19.832,19.832,0,0,0-3.788,2.072A19.833,19.833,0,0,0,586.381,34.441Z"/><path class="w" d="M736.459,111.044a19.89,19.89,0,0,0-2.072-3.789,19.922,19.922,0,0,0-3.789-2.072,19.922,19.922,0,0,0,3.789-2.072,19.92,19.92,0,0,0,2.072-3.789,19.921,19.921,0,0,0,2.072,3.789,19.89,19.89,0,0,0,3.789,2.072,19.89,19.89,0,0,0-3.789,2.072A19.891,19.891,0,0,0,736.459,111.044Z"/><path class="x" d="M604.283,38.776a1.962,1.962,0,1,0,1.962,1.962A1.962,1.962,0,0,0,604.283,38.776Z"/><path class="y" d="M636.178,146.242a6.617,6.617,0,0,1-.691,1.263,6.627,6.627,0,0,1-1.262.69,6.627,6.627,0,0,1,1.262.69,6.616,6.616,0,0,1,.691,1.262,6.659,6.659,0,0,1,.69-1.262,6.627,6.627,0,0,1,1.262-.69,6.627,6.627,0,0,1-1.262-.69A6.66,6.66,0,0,1,636.178,146.242Z"/><path class="z" d="M582.243,108.723a6.625,6.625,0,0,1-.69,1.262,6.625,6.625,0,0,1-1.262.69,6.586,6.586,0,0,1,1.262.691,6.625,6.625,0,0,1,.69,1.262,6.588,6.588,0,0,1,.691-1.262,6.586,6.586,0,0,1,1.262-.691,6.625,6.625,0,0,1-1.262-.69A6.587,6.587,0,0,1,582.243,108.723Z"/><path class="aa" d="M609.119,82.053a6.66,6.66,0,0,1-.69,1.263,6.627,6.627,0,0,1-1.262.69,6.627,6.627,0,0,1,1.262.69,6.658,6.658,0,0,1,.69,1.262,6.655,6.655,0,0,1,.69-1.262,6.658,6.658,0,0,1,1.263-.69,6.658,6.658,0,0,1-1.263-.69A6.656,6.656,0,0,1,609.119,82.053Z"/><path class="ab" d="M730.966,22.35a6.625,6.625,0,0,1-.69,1.262,6.627,6.627,0,0,1-1.262.69,6.588,6.588,0,0,1,1.262.691,6.625,6.625,0,0,1,.69,1.262,6.586,6.586,0,0,1,.691-1.262,6.588,6.588,0,0,1,1.262-.691,6.627,6.627,0,0,1-1.262-.69A6.586,6.586,0,0,1,730.966,22.35Z"/><path class="ac" d="M708.319,110.656a6.627,6.627,0,0,1-.69,1.262,6.617,6.617,0,0,1-1.262.691,6.657,6.657,0,0,1,1.262.69,6.627,6.627,0,0,1,.69,1.262,6.628,6.628,0,0,1,.69-1.262,6.657,6.657,0,0,1,1.263-.69,6.618,6.618,0,0,1-1.263-.691A6.628,6.628,0,0,1,708.319,110.656Z"/><path class="ad" d="M719.938,81.652a.652.652,0,1,1,.652.652A.653.653,0,0,1,719.938,81.652Zm-5.221,11.964a1.305,1.305,0,1,0-1.3-1.305A1.3,1.3,0,0,0,714.717,93.616Zm-2.61-15.662a2.611,2.611,0,1,0-2.611-2.61A2.611,2.611,0,0,0,712.107,77.954Zm22.622-3.046a1.305,1.305,0,1,0-1.3-1.305A1.305,1.305,0,0,0,734.729,74.908Z"/><path class="ae" d="M605.638,128.4a.652.652,0,1,1-.705-.595A.653.653,0,0,1,605.638,128.4Zm4.187-12.364a1.305,1.305,0,1,0,1.411,1.19A1.306,1.306,0,0,0,609.825,116.038Zm3.93,15.384a2.61,2.61,0,1,0,2.822,2.38A2.611,2.611,0,0,0,613.755,131.422Zm-22.283,4.954a1.305,1.305,0,1,0,1.411,1.19A1.306,1.306,0,0,0,591.472,136.376Z"/><path class="af" d="M439.962,133.824a11.934,11.934,0,0,0,.525,2.537,11.93,11.93,0,0,0,1.81,1.854,11.916,11.916,0,0,0-2.537.524,11.93,11.93,0,0,0-1.854,1.81,11.928,11.928,0,0,0-.524-2.537,11.913,11.913,0,0,0-1.81-1.853,11.882,11.882,0,0,0,2.537-.525A11.913,11.913,0,0,0,439.962,133.824Z"/><path class="ag" d="M459.328,98.605a19.871,19.871,0,0,0,.874,4.229,19.9,19.9,0,0,0,3.017,3.089,19.883,19.883,0,0,0-4.229.874,19.9,19.9,0,0,0-3.089,3.017,19.871,19.871,0,0,0-.874-4.229,19.851,19.851,0,0,0-3.017-3.089,19.871,19.871,0,0,0,4.229-.874A19.9,19.9,0,0,0,459.328,98.605Z"/><path class="ah" d="M443.1,166.389a19.871,19.871,0,0,0,.874,4.229,19.9,19.9,0,0,0,3.017,3.089,19.871,19.871,0,0,0-4.229.874,19.9,19.9,0,0,0-3.089,3.017,19.871,19.871,0,0,0-.874-4.229,19.9,19.9,0,0,0-3.017-3.089,19.871,19.871,0,0,0,4.229-.874A19.9,19.9,0,0,0,443.1,166.389Z"/><path class="ai" d="M427.246,157.008a1.961,1.961,0,1,0-1.3-2.449A1.961,1.961,0,0,0,427.246,157.008Z"/><path class="aj" d="M428.168,44.913a6.655,6.655,0,0,1,1.029-1,6.618,6.618,0,0,1,1.409-.291,6.653,6.653,0,0,1-1-1.029,6.618,6.618,0,0,1-.291-1.409,6.655,6.655,0,0,1-1.029,1,6.618,6.618,0,0,1-1.409.291,6.626,6.626,0,0,1,1.005,1.03A6.6,6.6,0,0,1,428.168,44.913Z"/><path class="ak" d="M468.774,96.564a6.621,6.621,0,0,1,1.03-1.006,6.606,6.606,0,0,1,1.409-.291,6.6,6.6,0,0,1-1.006-1.029,6.683,6.683,0,0,1-.291-1.409,6.608,6.608,0,0,1-1.029,1,6.606,6.606,0,0,1-1.409.291,6.58,6.58,0,0,1,1.005,1.03A6.605,6.605,0,0,1,468.774,96.564Z"/><path class="al" d="M435.275,114.209a2.559,2.559,0,0,1,2.438-1.3,6.626,6.626,0,0,1-1.005-1.03,6.606,6.606,0,0,1-.291-1.409,6.65,6.65,0,0,1-1.029,1.006,6.618,6.618,0,0,1-1.409.291,6.608,6.608,0,0,1,1.005,1.029A6.617,6.617,0,0,1,435.275,114.209Z"/><path class="am" d="M489.74,46.959a11.925,11.925,0,0,0-2.584.181,11.931,11.931,0,0,0-2.078,1.547A11.925,11.925,0,0,0,484.9,46.1a11.908,11.908,0,0,0-1.547-2.079,11.925,11.925,0,0,0,2.584-.181,11.938,11.938,0,0,0,2.078-1.546,11.925,11.925,0,0,0,.181,2.584A11.931,11.931,0,0,0,489.74,46.959Z"/><path class="an" d="M552.341,52.055a19.893,19.893,0,0,0-4.308.3,19.885,19.885,0,0,0-3.464,2.578,19.884,19.884,0,0,0-.3-4.307,19.862,19.862,0,0,0-2.578-3.465,19.832,19.832,0,0,0,4.308-.3,19.886,19.886,0,0,0,3.464-2.578,19.894,19.894,0,0,0,.3,4.308A19.885,19.885,0,0,0,552.341,52.055Z"/><path class="ao" d="M540.245,77.465a6.639,6.639,0,0,1,.858,1.154,6.638,6.638,0,0,1,.1,1.436,2.56,2.56,0,0,1,2.589-.96,6.633,6.633,0,0,1-.859-1.154,6.612,6.612,0,0,1-.1-1.435,6.631,6.631,0,0,1-1.154.859A6.614,6.614,0,0,1,540.245,77.465Z"/><path class="ap" d="M518.736,54.8a.653.653,0,1,1,.865-.321A.653.653,0,0,1,518.736,54.8Zm8.693,9.738a1.305,1.305,0,1,0-1.73.641A1.305,1.305,0,0,0,527.429,64.54Zm-15.322-4.165a2.61,2.61,0,1,0-3.461,1.283A2.61,2.61,0,0,0,512.107,60.375Zm6.675-21.829a1.306,1.306,0,1,0-1.731.641A1.307,1.307,0,0,0,518.782,38.546Z"/><path class="aq" d="M372.168,93.383a8.355,8.355,0,0,1-1.36,1.2,8.362,8.362,0,0,1-1.793.28,8.332,8.332,0,0,1,1.2,1.359,8.353,8.353,0,0,1,.279,1.793,8.382,8.382,0,0,1,1.359-1.2,8.378,8.378,0,0,1,1.794-.28,8.333,8.333,0,0,1-1.2-1.359A8.354,8.354,0,0,1,372.168,93.383Z"/><path class="ar" d="M396.366,24.93a.823.823,0,1,1,.495,1.054A.823.823,0,0,1,396.366,24.93ZM385.051,36.9a1.647,1.647,0,1,0-.991-2.108A1.647,1.647,0,0,0,385.051,36.9Zm31.755-13.641a1.647,1.647,0,1,0-.991-2.107A1.646,1.646,0,0,0,416.806,23.255Z"/><path class="as" d="M717.114,267.755a8.394,8.394,0,0,1,.173-1.807,8.378,8.378,0,0,1,1.121-1.427,3.23,3.23,0,0,1-3.234-1.295,8.386,8.386,0,0,1-.173,1.807,8.377,8.377,0,0,1-1.121,1.427,3.23,3.23,0,0,1,3.234,1.3Z"/><path class="at" d="M718.047,307.162a.823.823,0,1,1-1.081-.433A.824.824,0,0,1,718.047,307.162Zm.111-16.468a1.647,1.647,0,1,0,2.162.865A1.646,1.646,0,0,0,718.158,290.694Zm10.807,16.866a3.293,3.293,0,1,0,4.324,1.731A3.293,3.293,0,0,0,728.965,307.56Zm-24.723,14.769a1.647,1.647,0,1,0,2.162.866A1.646,1.646,0,0,0,704.242,322.329Z"/><path class="au" d="M651.409,106.018a8.31,8.31,0,0,1,.218,1.8,8.368,8.368,0,0,1-.788,1.635,3.225,3.225,0,0,1,3.437.57,8.358,8.358,0,0,1-.219-1.8,8.385,8.385,0,0,1,.789-1.635,3.231,3.231,0,0,1-3.437-.57Z"/><path class="av" d="M642.039,67.73a.823.823,0,1,1,1.149.191A.824.824,0,0,1,642.039,67.73Zm3.426,16.108a1.647,1.647,0,1,0-2.3-.381A1.647,1.647,0,0,0,645.465,83.838ZM631.29,69.684a3.293,3.293,0,1,0-4.595-.762A3.293,3.293,0,0,0,631.29,69.684Zm20.976-19.731a1.646,1.646,0,1,0-2.3-.381A1.646,1.646,0,0,0,652.266,49.953Z"/><path class="aw" d="M450.156,36.9a.653.653,0,1,1,.5.775A.652.652,0,0,1,450.156,36.9Zm-7.619,10.6a1.305,1.305,0,1,0-1-1.551A1.306,1.306,0,0,0,442.537,47.5Zm23.5-14.083a1.305,1.305,0,1,0-1-1.55A1.306,1.306,0,0,0,466.035,33.42Z"/><path class="ax" d="M300.558,447.072a19.841,19.841,0,0,0,3.937,1.773,19.887,19.887,0,0,0,4.272-.63,19.889,19.889,0,0,0-1.774,3.937,19.872,19.872,0,0,0,.631,4.272,19.89,19.89,0,0,0-3.937-1.774,19.862,19.862,0,0,0-4.272.631,19.889,19.889,0,0,0,1.774-3.937A19.861,19.861,0,0,0,300.558,447.072Z"/><path class="ay" d="M309.558,367.072a19.841,19.841,0,0,0,3.937,1.773,19.887,19.887,0,0,0,4.272-.63,19.889,19.889,0,0,0-1.774,3.937,19.872,19.872,0,0,0,.631,4.272,19.89,19.89,0,0,0-3.937-1.774,19.862,19.862,0,0,0-4.272.631,19.889,19.889,0,0,0,1.774-3.937A19.861,19.861,0,0,0,309.558,367.072Z"/><path class="az" d="M238.8,440.8a2.56,2.56,0,0,1,.381-2.735,2.56,2.56,0,0,1-2.735-.381,2.56,2.56,0,0,1-.381,2.735,2.559,2.559,0,0,1,2.735.381Z"/><path class="ba" d="M304.448,438.225a2.56,2.56,0,0,1,.381-2.735,2.56,2.56,0,0,1-2.735-.381,2.56,2.56,0,0,1-.381,2.735,2.56,2.56,0,0,1,2.735.381Z"/><path class="bb" d="M299.08,475.7a2.562,2.562,0,0,1,.38-2.735,2.558,2.558,0,0,1-2.734-.381,2.56,2.56,0,0,1-.381,2.735,2.56,2.56,0,0,1,2.735.381Z"/><path class="bc" d="M273.919,436.625a.653.653,0,1,1,.921.049A.653.653,0,0,1,273.919,436.625Zm4.112,12.389a1.305,1.305,0,1,0-1.844-.1A1.306,1.306,0,0,0,278.031,449.014Zm-12.409-9.907a2.61,2.61,0,1,0-3.686-.2A2.61,2.61,0,0,0,265.622,439.107Zm14.794-17.384a1.305,1.305,0,1,0-1.844-.1A1.3,1.3,0,0,0,280.416,421.723Z"/><path class="bd" d="M408.919,135.625a.653.653,0,1,1,.921.049A.653.653,0,0,1,408.919,135.625Zm4.112,12.389a1.305,1.305,0,1,0-1.844-.1A1.306,1.306,0,0,0,413.031,148.014Zm-12.409-9.907a2.61,2.61,0,1,0-3.686-.2A2.61,2.61,0,0,0,400.622,138.107Zm14.794-17.384a1.305,1.305,0,1,0-1.844-.1A1.3,1.3,0,0,0,415.416,120.723Z"/><path class="be" d="M438.919,245.625a.653.653,0,1,1,.921.049A.653.653,0,0,1,438.919,245.625Zm4.112,12.389a1.305,1.305,0,1,0-1.844-.1A1.306,1.306,0,0,0,443.031,258.014Zm-12.409-9.907a2.61,2.61,0,1,0-3.686-.2A2.61,2.61,0,0,0,430.622,248.107Zm14.794-17.384a1.305,1.305,0,1,0-1.844-.1A1.3,1.3,0,0,0,445.416,230.723Z"/><path class="bf" d="M646.477,411.163a4.607,4.607,0,0,0,2.334,4.39,4.607,4.607,0,0,0-4.39,2.334,4.61,4.61,0,0,0-2.335-4.39,4.61,4.61,0,0,0,4.391-2.334Z"/><path class="bg" d="M665.843,375.943a19.919,19.919,0,0,0,.873,4.229,19.909,19.909,0,0,0,3.018,3.09,7.68,7.68,0,0,0-7.319,3.891,19.919,19.919,0,0,0-.873-4.229,19.863,19.863,0,0,0-3.018-3.09,7.685,7.685,0,0,0,7.319-3.891Z"/><path class="bh" d="M457.278,340.846a6.563,6.563,0,0,1,1.029-1.005,6.634,6.634,0,0,1,1.409-.292,2.559,2.559,0,0,1-1.3-2.438,2.559,2.559,0,0,1-2.438,1.3,2.559,2.559,0,0,1,1.3,2.438Z"/><path class="bi" d="M641.789,391.547a2.558,2.558,0,0,1,2.438-1.3,2.558,2.558,0,0,1-1.3-2.438,2.559,2.559,0,0,1-2.438,1.3,2.559,2.559,0,0,1,1.3,2.438Z"/><path class="bj" d="M530.85,104.629a11.919,11.919,0,0,0-.973-2.4,11.911,11.911,0,0,0-2.115-1.5,11.922,11.922,0,0,0,2.4-.973,11.91,11.91,0,0,0,1.5-2.114,11.947,11.947,0,0,0,.973,2.4,11.946,11.946,0,0,0,2.114,1.5,11.945,11.945,0,0,0-2.4.973A11.946,11.946,0,0,0,530.85,104.629Z"/><path class="bk" d="M572.364,220.367a11.943,11.943,0,0,0-.973-2.4,11.946,11.946,0,0,0-2.114-1.5,11.919,11.919,0,0,0,2.4-.973,11.91,11.91,0,0,0,1.5-2.115,11.922,11.922,0,0,0,.973,2.4,11.912,11.912,0,0,0,2.114,1.5,11.944,11.944,0,0,0-2.4.973A11.948,11.948,0,0,0,572.364,220.367Z"/><path class="bl" d="M606.124,200.677a19.868,19.868,0,0,0-1.622-4,19.87,19.87,0,0,0-3.524-2.494,19.9,19.9,0,0,0,4-1.622,19.922,19.922,0,0,0,2.495-3.525,19.842,19.842,0,0,0,1.622,4,19.834,19.834,0,0,0,3.524,2.495,19.9,19.9,0,0,0-4,1.622A19.885,19.885,0,0,0,606.124,200.677Z"/><path class="bm" d="M550.166,76.992a6.641,6.641,0,0,1-.831,1.175,6.64,6.64,0,0,1-1.333.54,6.606,6.606,0,0,1,1.174.831,6.641,6.641,0,0,1,.54,1.333,6.606,6.606,0,0,1,.831-1.174,6.641,6.641,0,0,1,1.334-.54,6.606,6.606,0,0,1-1.174-.831A6.6,6.6,0,0,1,550.166,76.992Z"/><path class="bn" d="M578.217,197.049a2.561,2.561,0,0,1-2.165,1.714,2.564,2.564,0,0,1,1.715,2.165,2.561,2.561,0,0,1,2.164-1.715,2.558,2.558,0,0,1-1.714-2.164Z"/><path class="bo" d="M593.1,169.577a.652.652,0,1,1,.573.723A.652.652,0,0,1,593.1,169.577Zm-6.565,11.282a1.305,1.305,0,1,0-1.146-1.446A1.3,1.3,0,0,0,586.535,180.859ZM585.747,165a2.61,2.61,0,1,0-2.292-2.894A2.611,2.611,0,0,0,585.747,165Zm22.823-.418a1.305,1.305,0,1,0-1.146-1.447A1.305,1.305,0,0,0,608.57,164.583Z"/><path class="bp" d="M381.8,478.954a2.559,2.559,0,0,1,2.438-1.3,2.565,2.565,0,0,1-1.3-2.439,2.557,2.557,0,0,1-2.438,1.3,6.6,6.6,0,0,1,1.006,1.029A6.67,6.67,0,0,1,381.8,478.954Z"/><path class="bq" d="M681.027,249.64a11.928,11.928,0,0,0,.524,2.537,11.929,11.929,0,0,0,1.81,1.854,4.607,4.607,0,0,0-4.39,2.334,11.931,11.931,0,0,0-.524-2.537,11.913,11.913,0,0,0-1.81-1.853,4.61,4.61,0,0,0,4.39-2.335Z"/><path class="br" d="M700.393,214.421a19.882,19.882,0,0,0,.874,4.229,19.894,19.894,0,0,0,3.017,3.089,19.871,19.871,0,0,0-4.229.874,19.85,19.85,0,0,0-3.089,3.017,19.87,19.87,0,0,0-.874-4.229,19.894,19.894,0,0,0-3.017-3.089,19.883,19.883,0,0,0,4.229-.874A19.9,19.9,0,0,0,700.393,214.421Z"/><path class="bs" d="M656.547,318.777a19.882,19.882,0,0,0,.874,4.229,19.849,19.849,0,0,0,3.017,3.089,7.682,7.682,0,0,0-7.318,3.891,19.87,19.87,0,0,0-.874-4.229,19.894,19.894,0,0,0-3.017-3.089,19.883,19.883,0,0,0,4.229-.874A19.9,19.9,0,0,0,656.547,318.777Z"/><path class="bt" d="M668.31,272.824a1.961,1.961,0,1,0-1.3-2.449A1.961,1.961,0,0,0,668.31,272.824Z"/><path class="bu" d="M641.617,197.3a2.559,2.559,0,0,1,2.438-1.3,6.61,6.61,0,0,1-1.005-1.029,6.634,6.634,0,0,1-.292-1.409,2.559,2.559,0,0,1-2.438,1.3,6.61,6.61,0,0,1,1.005,1.029A6.634,6.634,0,0,1,641.617,197.3Z"/><path class="bv" d="M709.839,212.379a2.559,2.559,0,0,1,2.438-1.3,2.558,2.558,0,0,1-1.3-2.438,2.559,2.559,0,0,1-2.438,1.3,2.561,2.561,0,0,1,1.3,2.438Z"/><path class="bw" d="M676.34,230.025a2.559,2.559,0,0,1,2.438-1.3,2.564,2.564,0,0,1-1.3-2.439,6.6,6.6,0,0,1-1.029,1.006,6.67,6.67,0,0,1-1.409.291,6.6,6.6,0,0,1,1.006,1.029A6.672,6.672,0,0,1,676.34,230.025Z"/><path class="bx" d="M693.221,186.72a.653.653,0,1,1,.5.775A.652.652,0,0,1,693.221,186.72Zm-7.619,10.6a1.305,1.305,0,1,0-1-1.551A1.306,1.306,0,0,0,685.6,197.319Zm.74-15.861a2.61,2.61,0,1,0-2-3.1A2.61,2.61,0,0,0,686.342,181.458Zm22.758,1.778a1.305,1.305,0,1,0-1-1.55A1.3,1.3,0,0,0,709.1,183.236Z"/><path class="by" d="M395.393,260.421a19.883,19.883,0,0,0,.874,4.229,19.9,19.9,0,0,0,3.017,3.089,19.87,19.87,0,0,0-4.229.874,19.9,19.9,0,0,0-3.089,3.017,19.871,19.871,0,0,0-.874-4.229,19.9,19.9,0,0,0-3.017-3.089,19.881,19.881,0,0,0,4.229-.874A19.9,19.9,0,0,0,395.393,260.421Z"/><path class="bz" d="M404.839,258.379a2.559,2.559,0,0,1,2.438-1.3,2.559,2.559,0,0,1-1.3-2.438,2.559,2.559,0,0,1-2.438,1.3,2.561,2.561,0,0,1,1.3,2.438Z"/><path class="ca" d="M371.34,276.025a2.562,2.562,0,0,1,2.438-1.3,2.562,2.562,0,0,1-1.3-2.438,6.6,6.6,0,0,1-1.029,1.006,6.67,6.67,0,0,1-1.409.291,6.6,6.6,0,0,1,1.006,1.029A6.67,6.67,0,0,1,371.34,276.025Z"/><path class="cb" d="M395.467,183.429l1.3,2.388,2.388,1.306-2.388,1.306-1.3,2.387-1.307-2.387-2.387-1.306,2.387-1.306Z"/><path class="cb" d="M343.152,135.939l1.306,2.387,2.388,1.307-2.388,1.306-1.306,2.388-1.3-2.388-2.389-1.306,2.389-1.307Z"/><path class="cb" d="M313.237,171.543l1.3,2.388,2.389,1.306-2.389,1.306-1.3,2.388-1.306-2.388-2.388-1.306,2.388-1.306Z"/><path class="cb" d="M246.143,110.608,247.448,113l2.388,1.305-2.388,1.306L246.143,118l-1.306-2.388-2.389-1.306L244.837,113Z"/><path class="cb" d="M409.138,173.39l.652,1.194,1.194.653-1.194.653-.652,1.194-.652-1.194-1.194-.653,1.194-.653Z"/><path class="cb" d="M491.269,150.616l.652,1.194,1.194.653-1.194.652-.652,1.194-.652-1.194-1.2-.652,1.2-.653Z"/><path class="cb" d="M527.965,218.139l.653,1.194,1.194.653-1.194.653-.653,1.193-.654-1.193-1.194-.653,1.194-.653Z"/><path class="cb" d="M456.148,250.18l.652,1.194,1.194.654-1.194.653-.652,1.194-.652-1.194-1.194-.653,1.194-.654Z"/><path class="cb" d="M422.19,243.171l.654,1.195,1.194.653-1.194.653-.654,1.193-.652-1.193-1.194-.653,1.194-.653Z"/><path class="cb" d="M499.13,247.248l.652,1.194,1.194.653-1.194.653-.652,1.193-.652-1.193-1.2-.653,1.2-.653Z"/><path class="cb" d="M263.016,245.019l.653,1.193,1.194.653-1.194.652-.653,1.195-.654-1.195-1.194-.652,1.194-.653Z"/><path class="cb" d="M447.821,211.079l.652.64,1.194.35-1.194.35-.652.64-.652-.64-1.194-.35,1.194-.35Z"/><path class="cb" d="M382.806,146.765l.441.808.81.442-.81.442-.441.808-.441-.808-.808-.442.808-.442Z"/><path class="cb" d="M400.133,133.99l.247.452.452.246-.452.247-.247.451-.247-.451-.451-.247.451-.246Z"/><path class="cb" d="M370.713,149.816l.248.451.452.247-.452.246-.248.452-.247-.452-.45-.246.45-.247Z"/><path class="cb" d="M362.25,135.241l.246.451.451.247-.451.246-.246.452-.248-.452-.451-.246.451-.247Z"/><path class="cb" d="M349.336,151.066l.247.451.451.247-.451.247-.247.451-.246-.451-.451-.247.451-.247Z"/><path class="cb" d="M377.314,178.232l.247.452.451.246-.451.247-.247.451-.248-.451-.451-.247.451-.246Z"/><path class="cb" d="M347.473,199.874l.248.451.451.247-.451.246-.248.452-.246-.452-.452-.246.452-.247Z"/><path class="cb" d="M360.77,209.13l.247.451.452.247-.452.247-.247.451-.246-.451-.452-.247.452-.247Z"/><path class="cb" d="M327.15,224.765l.247.451.451.247-.451.247-.247.451-.247-.451-.451-.247.451-.247Z"/><path class="cb" d="M255.029,225.463l.247.451.451.247-.451.246-.247.451-.247-.451-.451-.246.451-.247Z"/><path class="cb" d="M220.887,230.482l.248.451.451.247-.451.247-.248.451-.247-.451-.45-.247.45-.247Z"/><path class="cb" d="M246.142,240.71l.248.451.451.247-.451.247-.248.451-.246-.451-.451-.247.451-.247Z"/><path class="cb" d="M299.776,231.181l.248.451.45.247-.45.247-.248.451-.246-.451-.451-.247.451-.247Z"/><path class="cb" d="M310.242,240.011l.247.451.451.247-.451.247-.247.451-.247-.451-.451-.247.451-.247Z"/><path class="cb" d="M477.5,231.879l.248.452.45.247-.45.246-.248.452-.247-.452-.45-.246.45-.247Z"/><path class="cb" d="M391.319,225.463l.248.451.45.247-.45.246-.248.451-.247-.451-.451-.246.451-.247Z"/><path class="cb" d="M470.394,200.572l.247.451.452.247-.452.247-.247.451-.246-.451-.452-.247.452-.247Z"/><path class="cb" d="M522.628,240.011l.248.451.452.247-.452.247-.248.451-.247-.451-.45-.247.45-.247Z"/><path class="cb" d="M507.427,256.023l.247.451.45.246-.45.247-.247.451-.248-.451-.45-.247.45-.246Z"/><path class="cb" d="M471.093,232.577l.246.452.451.247-.451.246-.246.452-.248-.452-.45-.246.45-.247Z"/><path class="cb" d="M445.975,233.275l.247.451.452.247-.452.246-.247.452-.246-.452-.452-.246.452-.247Z"/><path class="cb" d="M450.335,183.429l.247.451.452.247-.452.247-.247.451-.246-.451-.452-.247.452-.247Z"/><path class="cb" d="M242.715,182.731l.247.451.451.247-.451.247-.247.451-.247-.451-.45-.247.45-.247Z"/><path class="cb" d="M288.371,158.793l.247.451.451.247-.451.246-.247.452-.247-.452-.451-.246.451-.247Z"/><path class="cb" d="M309.543,149.816l.249.451.45.247-.45.246-.249.452-.247-.452-.45-.246.45-.247Z"/><path class="cb" d="M268.938,133.292l.248.452.45.246-.45.247-.248.451-.247-.451-.45-.247.45-.246Z"/><path class="cb" d="M331.8,190.118l.248.452.451.246-.451.247-.248.451-.247-.451-.45-.247.45-.246Z"/><path class="cb" d="M258.192,185.727l.247.452.451.246-.451.247-.247.451-.247-.451-.452-.247.452-.246Z"/><path class="cb" d="M431.69,109.909l.248.451.451.247-.451.247-.248.451-.246-.451-.451-.247.451-.247Z"/><path class="cb" d="M523.328,113.6l.247.451.45.247-.45.247-.247.451-.248-.451-.45-.247.45-.247Z"/><path class="cb" d="M499.13,168l.245.451.452.247-.452.247-.245.451-.248-.451-.45-.247.45-.247Z"/><path class="cb" d="M464.253,95.3l.247.451.45.247-.45.247-.247.451L464,96.25l-.45-.247.45-.247Z"/><path class="cb" d="M517.352,149.118l.247.451.452.247-.452.246-.247.452-.246-.452-.452-.246.452-.247Z"/><path class="cb" d="M258.89,142.629l.247.452.45.247-.45.247-.247.451-.246-.451-.451-.247.451-.247Z"/><path class="cb" d="M326.451,206.589l.248.451.45.247-.45.246-.248.452-.247-.452-.45-.246.45-.247Z"/><path class="cb" d="M407.29,212.362l.248.451.452.247-.452.247-.248.451-.245-.451-.452-.247.452-.247Z"/><path class="cb" d="M423.812,186.425l.247.452.452.247-.452.246-.247.451-.248-.451-.45-.246.45-.247Z"/><path class="cb" d="M430.013,218.59l.248.451.451.247-.451.246-.248.452-.246-.452-.45-.246.45-.247Z"/><path class="cb" d="M512.87,240.71l.248.451.452.247-.452.247-.248.451-.245-.451-.452-.247.452-.247Z"/><path class="cb" d="M383.344,111.8l.441.808.81.442-.81.442-.441.808-.441-.808-.808-.442.808-.442Z"/><path class="cb" d="M409.138,149.264l.443.808.806.443-.806.441-.443.808-.441-.808-.808-.441.808-.443Z"/><path class="cb" d="M464.253,113.75l.441.808.808.442-.808.442-.441.808-.443-.808L463,115l.808-.442Z"/><path class="cb" d="M518.051,135.387l.441.808.808.442-.808.441-.441.808-.441-.808-.808-.441.808-.442Z"/><path class="cb" d="M479.451,181.481l.441.808.808.443-.808.442-.441.808-.443-.808-.808-.442.808-.443Z"/><path class="cb" d="M366.831,198.332l.441.808.808.442-.808.442-.441.808-.442-.808-.808-.442.808-.442Z"/><path class="cb" d="M293.507,122.383l.441.808.808.442-.808.441-.441.808-.443-.808-.808-.441.808-.442Z"/><path class="cb" d="M330.548,153.489l.442.808.808.442-.808.442-.442.808-.441-.808-.808-.442.808-.442Z"/><path class="cb" d="M346.223,189.567l.443.808.808.442-.808.442-.443.808-.441-.808-.808-.442.808-.442Z"/><path class="cb" d="M356.132,178.379l.442.808.808.442-.808.442-.442.808-.442-.808-.808-.442.808-.442Z"/><path class="cb" d="M283.829,209.828l.442.808.808.442-.808.442-.442.808-.442-.808-.808-.442.808-.442Z"/><path class="cb" d="M435.9,148.015l.441.808.808.442-.808.442-.441.808-.443-.808-.808-.442.808-.442Z"/><path class="cb" d="M388.721,172.14l.441.808.81.441-.81.442-.441.808-.441-.808-.808-.442.808-.441Z"/><path class="cb" d="M348.666,339.031l-1.158,2.119-2.119,1.159,2.119,1.159,1.158,2.119,1.16-2.119,2.119-1.159-2.119-1.159Z"/><path class="cb" d="M395.095,296.885,393.936,299l-2.119,1.159,2.119,1.159,1.159,2.119,1.158-2.119,2.12-1.159L396.253,299Z"/><path class="cb" d="M421.643,328.482l-1.158,2.119-2.12,1.159,2.12,1.159,1.158,2.119,1.159-2.119,2.119-1.159L422.8,330.6Z"/><path class="cb" d="M481.188,274.4l-1.158,2.119-2.12,1.159,2.12,1.159,1.158,2.119,1.159-2.119,2.12-1.159-2.12-1.159Z"/><path class="cb" d="M336.534,330.121l-.579,1.06-1.059.58,1.059.579.579,1.06.579-1.06,1.059-.579-1.059-.58Z"/><path class="cb" d="M263.645,309.91l-.579,1.06-1.06.579,1.06.579.579,1.06.579-1.06,1.061-.579-1.061-.579Z"/><path class="cb" d="M231.078,369.835l-.579,1.06-1.059.579,1.059.579.579,1.059.581-1.059,1.059-.579-1.059-.579Z"/><path class="cb" d="M294.814,398.27l-.579,1.059-1.059.58,1.059.579.579,1.06.579-1.06,1.059-.579-1.059-.58Z"/><path class="cb" d="M324.951,392.051l-.581,1.06-1.059.579,1.059.579.581,1.059.579-1.059,1.059-.579-1.059-.579Z"/><path class="cb" d="M256.668,395.668l-.579,1.06-1.06.58,1.06.579.579,1.059.579-1.059,1.061-.579-1.061-.58Z"/><path class="cb" d="M466.213,393.69l-.58,1.059-1.06.579,1.06.579.58,1.06.58-1.06,1.06-.579-1.06-.579Z"/><path class="cb" d="M302.2,363.569l-.579.568-1.06.311,1.06.311.579.568.579-.568,1.06-.311-1.06-.311Z"/><path class="cb" d="M359.9,306.492l-.392.717-.719.392.719.392.392.717.392-.717.717-.392-.717-.392Z"/><path class="cb" d="M344.526,295.155l-.219.4-.4.218.4.219.219.4.219-.4.4-.219-.4-.218Z"/><path class="cb" d="M370.635,309.2l-.22.4-.4.22.4.218.22.4.219-.4.4-.218-.4-.22Z"/><path class="cb" d="M378.146,296.265l-.219.4-.4.219.4.218.219.4.22-.4.4-.218-.4-.219Z"/><path class="cb" d="M389.607,310.31l-.219.4-.4.219.4.219.219.4.219-.4.4-.219-.4-.219Z"/><path class="cb" d="M364.777,334.419l-.219.4-.4.219.4.219.219.4.22-.4.4-.219-.4-.219Z"/><path class="cb" d="M391.26,353.626l-.22.4-.4.219.4.218.22.4.218-.4.4-.218-.4-.219Z"/><path class="cb" d="M379.459,361.84l-.219.4-.4.219.4.219.219.4.219-.4.4-.219-.4-.219Z"/><path class="cb" d="M409.3,375.716l-.22.4-.4.219.4.219.22.4.219-.4.4-.219-.4-.219Z"/><path class="cb" d="M473.3,376.335l-.22.4-.4.219.4.219.22.4.219-.4.4-.219-.4-.219Z"/><path class="cb" d="M503.6,380.789l-.22.4-.4.219.4.219.22.4.22-.4.4-.219-.4-.219Z"/><path class="cb" d="M481.189,389.866l-.22.4-.4.219.4.219.22.4.219-.4.4-.219-.4-.219Z"/><path class="cb" d="M433.59,381.409l-.22.4-.4.219.4.219.22.4.218-.4.4-.219-.4-.219Z"/><path class="cb" d="M424.3,389.246l-.22.4-.4.219.4.219.22.4.219-.4.4-.219-.4-.219Z"/><path class="cb" d="M275.863,382.029l-.22.4-.4.219.4.219.22.4.219-.4.4-.219-.4-.219Z"/><path class="cb" d="M352.348,376.335l-.221.4-.4.219.4.219.221.4.219-.4.4-.219-.4-.219Z"/><path class="cb" d="M282.171,354.245l-.219.4-.4.219.4.219.219.4.219-.4.4-.219-.4-.219Z"/><path class="cb" d="M235.815,389.246l-.22.4-.4.219.4.219.22.4.219-.4.4-.219-.4-.219Z"/><path class="cb" d="M249.3,403.456l-.219.4-.4.218.4.22.219.4.22-.4.4-.22-.4-.218Z"/><path class="cb" d="M281.551,382.648l-.219.4-.4.219.4.218.219.4.22-.4.4-.218-.4-.219Z"/><path class="cb" d="M303.842,383.268l-.219.4-.4.219.4.218.219.4.219-.4.4-.218-.4-.219Z"/><path class="cb" d="M299.973,339.031l-.219.4-.4.219.4.219.219.4.219-.4.4-.219-.4-.219Z"/><path class="cb" d="M484.23,338.411l-.22.4-.4.22.4.219.22.4.219-.4.4-.219-.4-.22Z"/><path class="cb" d="M443.711,317.167l-.22.4-.4.22.4.218.22.4.219-.4.4-.218-.4-.22Z"/><path class="cb" d="M424.922,309.2l-.221.4-.4.22.4.218.221.4.219-.4.4-.218-.4-.22Z"/><path class="cb" d="M460.958,294.536l-.221.4-.4.218.4.219.221.4.219-.4.4-.219-.4-.218Z"/><path class="cb" d="M405.172,344.967l-.22.4-.4.219.4.219.22.4.219-.4.4-.219-.4-.219Z"/><path class="cb" d="M470.495,341.07l-.219.4-.4.218.4.219.219.4.219-.4.4-.219-.4-.218Z"/><path class="cb" d="M316.519,273.784l-.22.4-.4.219.4.219.22.4.219-.4.4-.219-.4-.219Z"/><path class="cb" d="M235.193,277.063l-.219.4-.4.219.4.219.219.4.22-.4.4-.219-.4-.219Z"/><path class="cb" d="M256.668,325.34l-.217.4-.4.219.4.219.217.4.22-.4.4-.219-.4-.219Z"/><path class="cb" d="M287.621,260.823l-.219.4-.4.219.4.219.219.4.22-.4.4-.219-.4-.219Z"/><path class="cb" d="M240.5,308.581l-.219.4-.4.219.4.218.219.4.219-.4.4-.218-.4-.219Z"/><path class="cb" d="M469.875,302.822l-.22.4-.4.219.4.219.22.4.219-.4.4-.219-.4-.219Z"/><path class="cb" d="M409.917,359.585l-.22.4-.4.219.4.218.22.4.219-.4.4-.218-.4-.219Z"/><path class="cb" d="M338.174,364.708l-.22.4-.4.219.4.219.22.4.217-.4.4-.219-.4-.219Z"/><path class="cb" d="M323.511,341.69l-.219.4-.4.219.4.219.219.4.22-.4.4-.219-.4-.219Z"/><path class="cb" d="M318.008,370.235l-.22.4-.4.219.4.218.22.4.219-.4.4-.218-.4-.219Z"/><path class="cb" d="M244.475,389.866l-.22.4-.4.219.4.219.22.4.217-.4.4-.219-.4-.219Z"/><path class="cb" d="M359.426,275.463l-.392.717-.719.392.719.392.392.717.391-.717.717-.392-.717-.392Z"/><path class="cb" d="M336.534,308.71l-.393.717-.716.393.716.392.393.717.392-.717.717-.392-.717-.393Z"/><path class="cb" d="M324.075,216.439l-1.159,2.119-2.119,1.159,2.119,1.159,1.159,2.119,1.158-2.119,2.12-1.159-2.12-1.159Z"/><path class="cb" d="M288.883,226.046l-.392.717-.719.392.719.392.392.717.391-.717.717-.392-.717-.392Z"/><path class="cb" d="M273.506,214.709l-.219.4-.4.218.4.219.219.4.219-.4.4-.219-.4-.218Z"/><path class="cb" d="M299.615,228.755l-.22.4-.4.219.4.219.22.4.219-.4.4-.219-.4-.219Z"/><path class="cb" d="M307.126,215.819l-.219.4-.4.219.4.218.219.4.221-.4.4-.218-.4-.219Z"/><path class="cb" d="M318.587,229.864l-.219.4-.4.219.4.219.219.4.219-.4.4-.219-.4-.219Z"/><path class="cb" d="M288.406,195.017l-.392.717-.719.392.719.392.392.717.392-.717.717-.392-.717-.392Z"/><path class="cb" d="M265.514,228.264l-.393.717-.716.393.716.392.393.717.392-.717.717-.392-.717-.393Z"/><path class="cb" d="M366.477,247.968l-.392.717-.719.392.719.392.392.717.392-.717.717-.392-.717-.392Z"/><path class="cb" d="M351.1,236.631l-.219.4-.4.218.4.219.219.4.219-.4.4-.219-.4-.218Z"/><path class="cb" d="M377.209,250.676l-.22.4-.4.22.4.218.22.4.219-.4.4-.218-.4-.22Z"/><path class="cb" d="M366,216.939l-.391.717-.719.392.719.392.391.717.392-.717.717-.392-.717-.392Z"/><path class="cb" d="M343.108,250.186l-.393.717L342,251.3l.716.391.393.717.392-.717.717-.391-.717-.393Z"/><path class="cb" d="M411.115,269.319l-.392.717-.719.392.719.392.392.717.391-.717.717-.392-.717-.392Z"/><path class="cb" d="M395.738,257.982l-.219.4-.4.218.4.219.219.4.219-.4.4-.219-.4-.218Z"/><path class="cb" d="M421.848,272.028l-.22.4-.4.22.4.218.22.4.219-.4.4-.218-.4-.22Z"/><path class="cb" d="M410.638,238.29l-.392.717-.719.392.719.392.392.717.391-.717.717-.392-.717-.392Z"/><path class="cb" d="M387.746,271.537l-.393.717-.716.393.716.392.393.717.392-.717.717-.392-.717-.393Z"/><path class="cb" d="M287.621,277.192l-.391.717-.717.392.717.392.391.717.393-.717.717-.392-.717-.392Z"/><path class="cb" d="M239.877,296.395l-.391.717-.717.392.717.392.391.717.392-.717.717-.392-.717-.392Z"/><path class="cb" d="M274.133,337.3l-.391.717-.717.393.717.392.391.717.393-.717.717-.392-.717-.393Z"/><path class="cb" d="M374.08,352.257l-.392.717-.717.392.717.392.392.717.392-.717.717-.392-.717-.392Z"/><path class="cb" d="M439.154,284.855l-.392.717-.717.392.717.391.392.717.393-.717.717-.391-.717-.392Z"/><path class="cb" d="M406.281,312.46l-.393.717-.717.392.717.392.393.717.391-.717.717-.392-.717-.392Z"/><path class="cb" d="M392.37,344.478l-.393.717-.717.392.717.392.393.717.392-.717.717-.392-.717-.392Z"/><path class="cb" d="M383.576,334.549l-.392.717-.717.392.717.392.392.717.392-.717.717-.392-.717-.392Z"/><path class="cb" d="M447.742,362.46l-.392.717-.717.392.717.392.392.717.392-.717.717-.392-.717-.392Z"/><path class="cb" d="M312.78,307.6l-.392.717-.717.392.717.392.392.717.393-.717.717-.392-.717-.392Z"/><path class="cb" d="M354.653,329.012l-.391.717-.719.392.719.392.391.717.392-.717.717-.392-.717-.392Z"/><g class="cc"><path class="cd" d="M452.815,90.116a10.419,10.419,0,0,1,1.6-1.026l1.935-1.187,3.871-2.375,3.367-2.066c3.676-2.255,80.262-58.78,81.254-59.388-1.561,1.506-78.032,61.2-81.081,64.146L459.8,92.043a34.425,34.425,0,0,1-2.732,2.619,3.152,3.152,0,0,1-4.714-3.986A2.223,2.223,0,0,1,452.815,90.116Z"/><path class="ce" d="M453.419,91.1c.675-.633,82.973-60.392,83.62-60.789-1.019.984-80.192,63.275-80.832,63.767a2.073,2.073,0,0,1-3.313-1.36,2.045,2.045,0,0,1,.323-1.39A1.54,1.54,0,0,1,453.419,91.1Z"/><path class="cf" d="M455.791,94.006s-1.869.639-1.942-.9"/></g><g class="cc"><path class="cg" d="M606.488,39.477a10.469,10.469,0,0,1,1.6-1.026l1.935-1.187,3.871-2.375,3.368-2.066c3.675-2.255,80.262-58.78,81.253-59.388-1.56,1.506-78.032,61.2-81.081,64.146L613.477,41.4a34.585,34.585,0,0,1-2.731,2.619,3.152,3.152,0,0,1-4.715-3.986A2.227,2.227,0,0,1,606.488,39.477Z"/><path class="ch" d="M607.092,40.459c.675-.633,82.973-60.392,83.621-60.789-1.019.984-80.193,63.275-80.833,63.767a2.073,2.073,0,0,1-3.313-1.36,2.044,2.044,0,0,1,.323-1.39A1.666,1.666,0,0,1,607.092,40.459Z"/><path class="ci" d="M609.464,43.366s-1.868.64-1.942-.9"/></g><path class="cj" d="M656.71,258.569a13.124,13.124,0,0,1,2.006-1.283l2.421-1.485,4.843-2.971,4.213-2.585c4.6-2.821,21.872-14.6,23.112-15.355-1.952,1.884-19.081,17.626-22.9,21.308l-4.956,4.783a43.269,43.269,0,0,1-3.417,3.276,3.943,3.943,0,0,1-5.9-4.986A2.765,2.765,0,0,1,656.71,258.569Z"/><path class="ck" d="M657.465,259.8c.844-.792,25.264-16.612,26.073-17.108-1.274,1.23-21.784,20.219-22.585,20.834a2.593,2.593,0,0,1-4.144-1.7,2.546,2.546,0,0,1,.4-1.739A1.927,1.927,0,0,1,657.465,259.8Z"/><path class="cl" d="M660.433,263.436s-2.338.8-2.43-1.122"/><path class="cm" d="M383.191,215.306a13.1,13.1,0,0,1,2.006-1.284l2.421-1.485,4.843-2.971,4.213-2.585c4.6-2.821,88.213-65.707,89.453-66.468-1.951,1.884-85.422,68.739-89.237,72.421l-4.956,4.783a43.093,43.093,0,0,1-3.417,3.276,3.943,3.943,0,0,1-5.9-4.986A2.783,2.783,0,0,1,383.191,215.306Z"/><path class="cn" d="M383.946,216.534c.844-.791,91.6-67.724,92.415-68.221-1.275,1.231-88.126,71.332-88.927,71.948a2.593,2.593,0,0,1-4.144-1.7,2.548,2.548,0,0,1,.4-1.739A1.932,1.932,0,0,1,383.946,216.534Z"/><path class="co" d="M386.914,220.172s-2.338.8-2.43-1.122"/><path class="cp" d="M679.322,252.619a28.858,28.858,0,1,1-40.382-5.9A28.858,28.858,0,0,1,679.322,252.619Z"/><circle class="cq" cx="25.837" cy="25.837" r="25.837" transform="matrix(0.145, -0.989, 0.989, 0.145, 626.861, 291.665)"/><path class="cr" d="M638.243,279.143c-2.256-1.081-3.877-3.844-4.593-5.99-1.517-4.542-.343-9.5,1.558-13.732,5.942-13.242,22.341-14.547,26.619-10.789s1.564,9.458-5.591,12.558-6.706,13.271-10.892,16.422a8.062,8.062,0,0,1-5.522,1.975A4.619,4.619,0,0,1,638.243,279.143Z"/><g class="cs"><path class="ct" d="M636.439,269.319a52,52,0,0,1-4.473-3.5,24.435,24.435,0,0,0,13.625,25.992,24.456,24.456,0,0,1-9.152-22.489Z"/><path class="cu" d="M654.46,245.363A24.429,24.429,0,0,0,632.3,264.117a48.845,48.845,0,0,0,4.411,3.567,24.431,24.431,0,0,1,20.755-19.341A25.42,25.42,0,0,0,654.46,245.363Z"/><path class="cv" d="M665.275,248.583a25.765,25.765,0,0,0-1.752-2.1,24.614,24.614,0,0,0-7.452-1.166,28.869,28.869,0,0,1,2.71,2.9A24.573,24.573,0,0,1,665.275,248.583Z"/><path class="cw" d="M666.882,248.949a24.374,24.374,0,0,1,4.254,1.549,24.215,24.215,0,0,0-5.5-3.235Q666.291,248.082,666.882,248.949Z"/></g><path class="cx" d="M659.14,244.7A20.689,20.689,0,1,1,631.3,274.427c-.026-.035-.049-.072-.075-.107A25.379,25.379,0,1,0,659.14,244.7Z"/><path class="cy" d="M673.261,252.408l.066.088c8.339,11.193,6.293,26.827-4.569,34.919-10.054,7.491-24.137,5.894-32.79-3.26,8.356,11.114,23.865,13.591,34.7,5.521,10.863-8.092,12.908-23.727,4.57-34.92A26.5,26.5,0,0,0,673.261,252.408Z"/><path class="cz" d="M649.237,248.047c.952,1.279-.457,3.939-3.146,5.943s-5.643,2.592-6.6,1.314.457-3.939,3.146-5.942S648.284,246.769,649.237,248.047Z"/><path class="da" d="M640.639,255.935c1.363.233,3.477-.474,5.452-1.945,2.187-1.63,3.527-3.694,3.439-5.1-1.362-.232-3.477.475-5.451,1.945C641.891,252.469,640.551,254.534,640.639,255.935Z"/><path class="db" d="M678.951,266.064c-1.439.684-3.774-1.216-5.215-4.245s-1.442-6.04,0-6.724,3.774,1.216,5.215,4.245S680.39,265.379,678.951,266.064Z"/><path class="dc" d="M672.891,256.093c-.494,1.291-.213,3.5.845,5.726,1.172,2.463,2.935,4.18,4.327,4.367.494-1.291.213-3.5-.845-5.726C676.046,258,674.283,256.279,672.891,256.093Z"/><path class="dd" d="M663.37,286.961c-1.029-1.217.211-3.959,2.771-6.127s5.471-2.937,6.5-1.721-.21,3.96-2.771,6.127S664.4,288.177,663.37,286.961Z"/><path class="de" d="M671.461,278.554c-1.374-.147-3.441.69-5.32,2.28-2.082,1.763-3.291,3.906-3.116,5.3,1.374.147,3.441-.689,5.32-2.28C670.427,282.091,671.637,279.948,671.461,278.554Z"/><path class="df" d="M646.958,280.326c-.172-3.374,2.945-6.276,6.962-6.48s7.412,2.364,7.584,5.738-2.944,6.275-6.961,6.48S647.131,283.7,646.958,280.326Z"/><path class="dg" d="M653.92,273.846c-3.624.185-6.514,2.564-6.919,5.505.708,2.878,3.821,4.945,7.44,4.76s6.513-2.564,6.918-5.505C660.651,275.728,657.538,273.661,653.92,273.846Z"/><path class="dh" d="M654.212,257.413c.857,2-.377,4.446-2.756,5.466s-5,.227-5.859-1.771.377-4.446,2.756-5.466S653.355,255.415,654.212,257.413Z"/><path class="di" d="M651.456,262.879a3.5,3.5,0,1,0-5.553-1.214A4.519,4.519,0,0,0,651.456,262.879Z"/><path class="dj" d="M666.936,274.477c-2.646-.668-4.146-3.763-3.351-6.913s3.585-5.162,6.231-4.494,4.146,3.763,3.351,6.913S669.582,275.145,666.936,274.477Z"/><path class="dk" d="M663.585,267.564c-.717,2.842.434,5.638,2.608,6.649,2.39.136,4.725-1.777,5.442-4.614s-.434-5.638-2.609-6.649C666.636,262.814,664.3,264.727,663.585,267.564Z"/><path class="dl" d="M636.794,264.112c1.256-.01,2.292,2.125,2.314,4.769s-.979,4.8-2.235,4.806-2.293-2.124-2.314-4.768S635.538,264.123,636.794,264.112Z"/><path class="dm" d="M637.807,273.254a6.371,6.371,0,0,0,1.3-4.373c-.017-2.15-.706-3.964-1.639-4.561a6.373,6.373,0,0,0-1.3,4.373C636.185,270.844,636.874,272.658,637.807,273.254Z"/><path class="dn" d="M641.97,288.139c.618-1.469,3.625-1.606,6.717-.3s5.1,3.545,4.479,5.015-3.625,1.605-6.717.3S641.352,289.608,641.97,288.139Z"/><path class="do" d="M653.13,291.544c-.491-1.292-2.174-2.756-4.443-3.71-2.515-1.058-4.973-1.165-6.136-.378.491,1.292,2.173,2.756,4.442,3.71C649.508,292.224,651.967,292.331,653.13,291.544Z"/><path class="dp" d="M657.575,246.833c.106.9-1.337,1.8-3.222,2.026s-3.5-.323-3.606-1.219,1.337-1.8,3.222-2.026S657.469,245.937,657.575,246.833Z"/><path class="dq" d="M651.129,248.272a4.579,4.579,0,0,0,3.224.587c1.533-.182,2.774-.816,3.126-1.528a4.57,4.57,0,0,0-3.223-.586C652.722,246.926,651.482,247.56,651.129,248.272Z"/><path class="dr" d="M673.02,285.988c-.7-.571-.292-2.226.909-3.7s2.741-2.2,3.44-1.629.291,2.225-.91,3.7S673.718,286.558,673.02,285.988Z"/><path class="ds" d="M676.654,280.473a4.574,4.574,0,0,0-2.725,1.819c-.977,1.2-1.428,2.514-1.187,3.271a4.573,4.573,0,0,0,2.725-1.818C676.444,282.549,676.9,281.231,676.654,280.473Z"/><path class="dt" d="M636.444,281.876c.7-.574,2.24.147,3.448,1.612s1.624,3.117.928,3.691-2.24-.147-3.448-1.612S635.749,282.45,636.444,281.876Z"/><path class="du" d="M641.145,286.515a4.577,4.577,0,0,0-1.253-3.027c-.982-1.191-2.187-1.891-2.977-1.8a4.58,4.58,0,0,0,1.252,3.028C639.15,285.9,640.355,286.605,641.145,286.515Z"/><path class="dv" d="M662.788,292.392c-.361-.827.758-2.112,2.5-2.871s3.444-.7,3.8.124-.758,2.113-2.5,2.871S663.148,293.219,662.788,292.392Z"/><path class="dw" d="M668.542,289.15a4.583,4.583,0,0,0-3.256.371c-1.415.617-2.42,1.583-2.551,2.367a4.575,4.575,0,0,0,3.255-.371C667.406,290.9,668.41,289.934,668.542,289.15Z"/><path class="dx" d="M674.369,253.649c-.371.585-1.669.425-2.9-.356s-1.926-1.888-1.555-2.473,1.67-.425,2.9.357S674.74,253.065,674.369,253.649Z"/><path class="dy" d="M669.836,251.382a3.51,3.51,0,0,0,1.634,1.911,3.164,3.164,0,0,0,2.6.607,3.509,3.509,0,0,0-1.634-1.911A3.163,3.163,0,0,0,669.836,251.382Z"/><path class="dz" d="M679.411,272.394c-.692-.035-1.192-1.243-1.118-2.7s.694-2.606,1.385-2.571,1.192,1.243,1.118,2.7S680.1,272.429,679.411,272.394Z"/><path class="ea" d="M679.151,267.333a3.5,3.5,0,0,0-.858,2.363,3.167,3.167,0,0,0,.753,2.562,3.509,3.509,0,0,0,.858-2.363A3.166,3.166,0,0,0,679.151,267.333Z"/><path class="eb" d="M642.13,283.562c.273-.385,1.151-.233,1.962.341s1.247,1.35.974,1.735-1.15.233-1.961-.34S641.858,283.948,642.13,283.562Z"/><path class="ec" d="M645.139,285.259a2.386,2.386,0,0,0-1.047-1.356,2.153,2.153,0,0,0-1.75-.5,2.389,2.389,0,0,0,1.047,1.356A2.161,2.161,0,0,0,645.139,285.259Z"/><path class="ed" d="M646.117,263.5a1.831,1.831,0,1,1-2.017,1.17A1.665,1.665,0,0,1,646.117,263.5Z"/><path class="ee" d="M645.495,266.937a1.849,1.849,0,0,0,1.388-1.233,1.794,1.794,0,0,0-.382-1.974,1.849,1.849,0,0,0-1.388,1.233A1.794,1.794,0,0,0,645.495,266.937Z"/><path class="ef" d="M653.522,251.108c.122.456-.556,1.033-1.515,1.291s-1.836.1-1.958-.36.556-1.034,1.515-1.291S653.4,250.652,653.522,251.108Z"/><path class="eg" d="M650.294,252.337a2.391,2.391,0,0,0,1.713.062,2.157,2.157,0,0,0,1.5-1.026,2.389,2.389,0,0,0-1.712-.061A2.158,2.158,0,0,0,650.294,252.337Z"/><path class="eh" d="M671.5,261.967a1.475,1.475,0,1,1,.557-1.726A1.3,1.3,0,0,1,671.5,261.967Z"/><path class="ei" d="M670.13,259.556a1.5,1.5,0,0,0-.168,1.449,1.436,1.436,0,0,0,1.205,1.015,1.492,1.492,0,0,0,.168-1.449A1.433,1.433,0,0,0,670.13,259.556Z"/><path class="ej" d="M634.3,260.147c.872.23,1.187,1.9.7,3.741s-1.584,3.137-2.456,2.908-1.187-1.9-.7-3.741S633.429,259.917,634.3,260.147Z"/><path class="ek" d="M633.277,266.672a4.582,4.582,0,0,0,1.728-2.784c.394-1.493.259-2.88-.275-3.469A4.571,4.571,0,0,0,633,263.2C632.609,264.7,632.744,266.082,633.277,266.672Z"/><path class="el" d="M675.658,275.5c.369.161.436.819.152,1.469s-.814,1.047-1.182.885-.436-.819-.152-1.469S675.29,275.337,675.658,275.5Z"/><path class="em" d="M675.441,273.129c.224.1.266.5.093.893s-.495.637-.719.539-.266-.5-.093-.894S675.217,273.031,675.441,273.129Z"/><path class="en" d="M650.682,287.33c-.2.4-.937.439-1.645.085s-1.119-.966-.919-1.367.938-.44,1.646-.085S650.883,286.929,650.682,287.33Z"/><path class="eo" d="M652.737,287.8c-.121.242-.567.265-.994.051s-.677-.584-.555-.827.566-.265.994-.051S652.858,287.561,652.737,287.8Z"/><path class="ep" d="M641.112,283.616c-.16.152-.508.046-.776-.236s-.356-.635-.2-.787.507-.046.776.236S641.272,283.464,641.112,283.616Z"/><path class="eq" d="M670.231,253.815c-.233.221-.739.067-1.129-.344s-.519-.923-.286-1.145.739-.067,1.129.344S670.464,253.594,670.231,253.815Z"/><path class="er" d="M671.106,255.61c-.153.145-.484.044-.739-.225s-.34-.6-.187-.75.483-.044.739.225S671.258,255.465,671.106,255.61Z"/><path class="es" d="M659.344,292.53c-.013.4-.6.709-1.307.686s-1.274-.367-1.261-.769.6-.709,1.307-.686S659.357,292.128,659.344,292.53Z"/><path class="et" d="M661.463,291.449c-.008.244-.364.431-.795.417s-.775-.223-.767-.468.364-.431.795-.417S661.471,291.2,661.463,291.449Z"/><path class="eu" d="M656.146,291.327c-.008.244-.364.431-.795.417s-.775-.223-.767-.467.364-.432.8-.418S656.154,291.082,656.146,291.327Z"/><path class="ev" d="M636.409,259.944c-.335-.222-.289-.881.1-1.473s.981-.891,1.316-.669.29.882-.1,1.473S636.744,260.166,636.409,259.944Zm.608,1.964c.238-.359.266-.761.062-.9s-.562.047-.8.407-.266.762-.062.9S636.778,262.268,637.017,261.908Zm2.9-4.46c.238-.36.266-.762.063-.9s-.563.048-.8.408-.267.761-.063.9S639.675,257.808,639.913,257.448Zm16.68-6.9c-.138-.378.289-.882.955-1.127s1.319-.137,1.458.241-.289.882-.956,1.126S656.732,250.92,656.593,250.543Zm4.3.063c.406-.149.666-.455.581-.685s-.481-.295-.886-.146-.665.455-.581.685S660.49,250.755,660.9,250.606Z"/><circle class="ew" cx="17.179" cy="17.179" r="17.179" transform="translate(613.126 95.783) rotate(-13.184)"/><circle class="ex" cx="15.381" cy="15.381" r="15.381" transform="translate(614.568 98.375) rotate(-16.985)"/><path class="ey" d="M621.906,106.644a6.261,6.261,0,0,1-.062-4.494c.891-2.707,3.214-4.655,5.628-6,7.546-4.208,15.839,1,16.545,4.317s-2.618,5.072-7.136,4.006-7.921,3.951-11.04,3.967a4.8,4.8,0,0,1-3.339-1.022A2.746,2.746,0,0,1,621.906,106.644Z"/><g class="cs"><path class="ez" d="M624.539,101.312a30.977,30.977,0,0,1-.89-3.263A14.548,14.548,0,0,0,620.91,115.3a14.558,14.558,0,0,1,3.629-13.992Z"/><path class="fa" d="M641.662,96.285a14.543,14.543,0,0,0-17.247,1.073,29.222,29.222,0,0,0,.837,3.272,14.544,14.544,0,0,1,16.787-1.852A15.053,15.053,0,0,0,641.662,96.285Z"/><path class="fb" d="M645.68,101.669a15.3,15.3,0,0,0-.089-1.627,14.615,14.615,0,0,0-3.142-3.207,17.345,17.345,0,0,1,.264,2.346A14.661,14.661,0,0,1,645.68,101.669Z"/><path class="fc" d="M646.317,102.415a14.609,14.609,0,0,1,1.48,2.252,14.4,14.4,0,0,0-1.474-3.5C646.337,101.584,646.334,102,646.317,102.415Z"/></g><path class="fd" d="M644.131,97.635a12.316,12.316,0,1,1-23.862,4.288c0-.027,0-.052,0-.078a15.108,15.108,0,1,0,23.86-4.21Z"/><path class="fe" d="M648.132,106.335v.065a14.583,14.583,0,0,1-29.095,1.827,14.606,14.606,0,1,0,29.2-.069A15.669,15.669,0,0,0,648.132,106.335Z"/><path class="ff" d="M638.214,95.709c0,.949-1.619,1.718-3.616,1.718s-3.615-.769-3.615-1.718,1.619-1.718,3.615-1.718S638.214,94.76,638.214,95.709Z"/><path class="fg" d="M631.3,96.417a4.814,4.814,0,0,0,3.294,1.01c1.625,0,3-.509,3.455-1.209a4.81,4.81,0,0,0-3.295-1.011C633.134,95.207,631.761,95.716,631.3,96.417Z"/><path class="fh" d="M645.992,114.878c-.931-.185-1.37-1.923-.98-3.881s1.459-3.4,2.39-3.211,1.369,1.922.98,3.881S646.922,115.063,645.992,114.878Z"/><path class="fi" d="M646.645,107.963A4.807,4.807,0,0,0,645.012,111c-.317,1.593-.086,3.039.512,3.623a4.8,4.8,0,0,0,1.633-3.033C647.474,109.994,647.243,108.547,646.645,107.963Z"/><path class="fj" d="M631.121,119.313c-.059-.947,1.509-1.815,3.5-1.94s3.656.544,3.715,1.491-1.509,1.815-3.5,1.939S631.18,120.26,631.121,119.313Z"/><path class="fk" d="M637.974,118.177a4.813,4.813,0,0,0-3.351-.8c-1.621.1-2.961.695-3.372,1.422a4.808,4.808,0,0,0,3.35.8C636.222,119.5,637.562,118.9,637.974,118.177Z"/><path class="fl" d="M625.646,110.308c1.118-1.672,3.638-1.949,5.628-.618s2.7,3.765,1.58,5.437-3.637,1.949-5.628.618S624.528,111.98,625.646,110.308Z"/><path class="fm" d="M631.274,109.69a4.18,4.18,0,0,0-5.261.168,4.523,4.523,0,0,0,7.119,4.751A4.181,4.181,0,0,0,631.274,109.69Z"/><path class="fn" d="M637.258,101.95a2.833,2.833,0,1,1-2.167-2.93A2.6,2.6,0,0,1,637.258,101.95Z"/><path class="fo" d="M634,103.579a2.689,2.689,0,0,0,3.138-1.276,2.911,2.911,0,0,0-5.358-1.279A2.692,2.692,0,0,0,634,103.579Z"/><path class="fp" d="M637.263,114.621a3.555,3.555,0,1,1,4.573.071A3.259,3.259,0,0,1,637.263,114.621Z"/><path class="fq" d="M638.122,110.129a3.376,3.376,0,0,0-1.119,4.1,3.653,3.653,0,0,0,5.358-4.369A3.378,3.378,0,0,0,638.122,110.129Z"/><path class="fr" d="M626.56,98.953c.6.442.339,1.83-.591,3.1s-2.173,1.942-2.777,1.5-.338-1.83.592-3.1S625.957,98.511,626.56,98.953Z"/><path class="fs" d="M623.792,103.677a3.788,3.788,0,0,0,2.177-1.625,3.42,3.42,0,0,0,.84-2.76,3.791,3.791,0,0,0-2.177,1.625A3.417,3.417,0,0,0,623.792,103.677Z"/><path class="ft" d="M620.486,112.264c.817-.482,2.3.523,3.315,2.243s1.172,3.506.355,3.987-2.3-.523-3.316-2.243S619.668,112.745,620.486,112.264Z"/><path class="fu" d="M624.6,117.858a4.8,4.8,0,0,0-.8-3.351c-.824-1.4-1.96-2.325-2.8-2.362a4.815,4.815,0,0,0,.8,3.351C622.632,116.895,623.767,117.82,624.6,117.858Z"/><path class="fv" d="M642.627,98.1c-.269.465-1.28.385-2.259-.179s-1.556-1.4-1.288-1.864,1.279-.386,2.259.178S642.9,97.629,642.627,98.1Z"/><path class="fw" d="M639.037,96.489a2.727,2.727,0,0,0,1.331,1.427,2.457,2.457,0,0,0,2.036.383,2.722,2.722,0,0,0-1.331-1.427A2.457,2.457,0,0,0,639.037,96.489Z"/><path class="fx" d="M636.074,122.28c-.131-.521.652-1.166,1.748-1.441s2.091-.075,2.222.446-.652,1.166-1.749,1.441S636.2,122.8,636.074,122.28Z"/><path class="fy" d="M639.77,120.94a2.721,2.721,0,0,0-1.948-.1,2.453,2.453,0,0,0-1.73,1.14,2.727,2.727,0,0,0,1.948.1A2.454,2.454,0,0,0,639.77,120.94Z"/><path class="fz" d="M620.076,107.309c.536-.027,1.016.867,1.072,2s-.333,2.065-.87,2.092-1.016-.867-1.072-2S619.539,107.335,620.076,107.309Z"/><path class="ga" d="M620.669,111.195a2.72,2.72,0,0,0,.479-1.89,2.454,2.454,0,0,0-.78-1.919,2.72,2.72,0,0,0-.479,1.89A2.453,2.453,0,0,0,620.669,111.195Z"/><path class="gb" d="M628.911,121.7c.122-.523,1.114-.739,2.214-.481s1.894.889,1.772,1.412-1.113.738-2.214.481S628.789,122.221,628.911,121.7Z"/><path class="gc" d="M632.811,122.2a2.72,2.72,0,0,0-1.686-.98,2.447,2.447,0,0,0-2.059.222,2.721,2.721,0,0,0,1.685.98A2.453,2.453,0,0,0,632.811,122.2Z"/><path class="gd" d="M648.219,107.322c-.385.147-.947-.391-1.257-1.2s-.248-1.587.137-1.734.948.391,1.258,1.2S648.6,107.175,648.219,107.322Z"/><path class="ge" d="M646.862,104.627a2.09,2.09,0,0,0,.1,1.494,1.883,1.883,0,0,0,1.026,1.214,2.087,2.087,0,0,0-.1-1.493A1.888,1.888,0,0,0,646.862,104.627Z"/><path class="gf" d="M643.96,118.064c-.318-.263-.127-1.018.425-1.686s1.259-1,1.576-.735.127,1.018-.425,1.686S644.277,118.326,643.96,118.064Z"/><path class="gg" d="M645.636,115.555a2.088,2.088,0,0,0-1.251.823,1.885,1.885,0,0,0-.551,1.491,2.091,2.091,0,0,0,1.25-.823A1.885,1.885,0,0,0,645.636,115.555Z"/><path class="gh" d="M622.19,110.136c.267-.087.632.3.815.86s.116,1.088-.151,1.175-.633-.3-.816-.86S621.923,110.223,622.19,110.136Z"/><path class="gi" d="M623.023,112.016a1.42,1.42,0,0,0-.018-1.02,1.283,1.283,0,0,0-.657-.861,1.419,1.419,0,0,0,.018,1.02A1.283,1.283,0,0,0,623.023,112.016Z"/><path class="gj" d="M631.228,101.977a1.09,1.09,0,1,1-1.379-.158A.991.991,0,0,1,631.228,101.977Z"/><path class="gk" d="M629.71,103.4a1.1,1.1,0,0,0,1.1-.1,1.067,1.067,0,0,0,.519-1.078,1.1,1.1,0,0,0-1.1.1A1.066,1.066,0,0,0,629.71,103.4Z"/><path class="gl" d="M639.171,98.694c-.1.261-.633.3-1.182.077s-.911-.607-.807-.868.633-.295,1.182-.077S639.275,98.433,639.171,98.694Z"/><path class="gm" d="M637.193,98.133a1.42,1.42,0,0,0,.8.638,1.28,1.28,0,0,0,1.082.045,1.421,1.421,0,0,0-.795-.638A1.287,1.287,0,0,0,637.193,98.133Z"/><path class="gn" d="M643.891,110.272a.879.879,0,1,1,.879-.627A.775.775,0,0,1,643.891,110.272Z"/><path class="go" d="M644.095,108.634a.889.889,0,0,0-.595.632.852.852,0,0,0,.214.913.89.89,0,0,0,.6-.632A.854.854,0,0,0,644.095,108.634Z"/><path class="gp" d="M626.781,96.173c.334.421-.111,1.332-.995,2.036s-1.872.935-2.207.515.111-1.332.995-2.036S626.446,95.753,626.781,96.173Z"/><path class="gq" d="M623.971,98.924a2.725,2.725,0,0,0,1.815-.715,2.455,2.455,0,0,0,1.1-1.753,2.718,2.718,0,0,0-1.815.714A2.457,2.457,0,0,0,623.971,98.924Z"/><path class="gr" d="M641.064,118.211c.119.208-.083.546-.45.755s-.761.21-.879,0,.083-.546.45-.755S640.946,118,641.064,118.211Z"/><path class="gs" d="M641.8,117c.072.126-.05.332-.273.459s-.463.128-.535,0,.05-.332.273-.459S641.731,116.876,641.8,117Z"/><path class="gt" d="M624.932,114.976c-.238.12-.6-.124-.815-.544s-.19-.86.048-.98.6.124.815.545S625.171,114.856,624.932,114.976Z"/><path class="gu" d="M625.745,115.933c-.144.073-.365-.075-.493-.329s-.115-.52.029-.592.365.075.493.329S625.889,115.861,625.745,115.933Z"/><path class="gv" d="M621.685,109.8c-.131.016-.259-.158-.287-.388s.056-.43.187-.446.258.159.286.389S621.815,109.784,621.685,109.8Z"/><path class="gw" d="M646.185,105.929c-.19.023-.377-.23-.417-.565s.081-.626.271-.649.377.231.417.566S646.375,105.906,646.185,105.929Z"/><path class="gx" d="M645.964,107.1c-.124.015-.246-.151-.272-.37s.053-.41.177-.425.247.151.273.371S646.089,107.082,645.964,107.1Z"/><path class="gy" d="M627.219,120.539c-.149.187-.538.126-.869-.137s-.477-.628-.328-.816.538-.125.868.138S627.368,120.352,627.219,120.539Z"/><path class="gz" d="M628.615,120.777c-.091.114-.327.076-.529-.084s-.29-.382-.2-.5.327-.076.528.084S628.705,120.663,628.615,120.777Z"/><path class="ha" d="M626.12,118.828c-.091.113-.328.076-.529-.084s-.29-.382-.2-.5.327-.077.528.083S626.21,118.714,626.12,118.828Z"/><path class="hb" d="M627.859,96.826c-.081-.225.175-.524.573-.667s.785-.076.866.149-.175.524-.573.667S627.94,97.051,627.859,96.826Zm-.409,1.154c.242-.087.4-.269.349-.406s-.285-.177-.527-.09-.4.268-.349.406S627.209,98.067,627.45,97.98Zm2.97-1.1c.241-.088.4-.269.348-.406s-.285-.178-.527-.09-.4.268-.348.4S630.178,96.968,630.42,96.881Zm10.418,2.636c.068-.23.452-.318.857-.2s.678.4.61.633-.451.318-.857.2S640.77,99.746,640.838,99.517Zm2.032,1.56c.246.073.479.019.521-.12s-.125-.312-.372-.385-.479-.02-.521.12S642.623,101,642.87,101.077Z"/><path class="hc" d="M724.978,134.1,657.386,192.57a4.641,4.641,0,0,1-6.345-.385h0a4.171,4.171,0,0,1,.44-6.067L721.22,130Z"/><path class="hd" d="M654.384,186.279l.908,2.243,2.452.546-1.957,1.531.2,2.4-2.117-1.3-2.329.938.649-2.332-1.64-1.821,2.518-.145Z"/></g></g></svg>