<svg xmlns="http://www.w3.org/2000/svg" xmlns:xlink="http://www.w3.org/1999/xlink" viewBox="0 0 31 30">
  <defs>
    <style>
      .cls-1 {
        fill: none;
      }

      .cls-2 {
        clip-path: url(#clip-iPhone_6_7_8_2);
      }

      .cls-3 {
        clip-path: url(#clip-path);
      }

      .cls-4 {
        fill: url(#radial-gradient);
      }

      .cls-5 {
        fill: url(#radial-gradient-2);
      }

      .cls-6 {
        fill: url(#radial-gradient-3);
      }

      .cls-7 {
        opacity: 0.7;
      }

      .cls-8 {
        fill: url(#radial-gradient-4);
      }

      .cls-9 {
        fill: url(#radial-gradient-5);
      }

      .cls-10 {
        fill: url(#radial-gradient-6);
      }

      .cls-11 {
        fill: url(#radial-gradient-7);
      }

      .cls-12, .cls-13, .cls-14, .cls-15, .cls-16, .cls-17, .cls-18, .cls-19, .cls-20, .cls-21, .cls-22, .cls-23, .cls-24, .cls-25, .cls-26, .cls-27, .cls-28, .cls-29, .cls-30, .cls-31, .cls-32, .cls-33, .cls-34, .cls-35, .cls-36, .cls-37, .cls-38, .cls-39, .cls-40, .cls-41, .cls-42, .cls-43, .cls-44, .cls-45, .cls-46, .cls-47, .cls-48, .cls-49, .cls-50, .cls-51, .cls-52, .cls-53, .cls-54, .cls-55, .cls-56, .cls-57, .cls-58, .cls-59, .cls-60, .cls-61, .cls-62 {
        opacity: 0.5;
      }

      .cls-12 {
        fill: url(#radial-gradient-8);
      }

      .cls-13 {
        fill: url(#radial-gradient-9);
      }

      .cls-14 {
        fill: url(#radial-gradient-10);
      }

      .cls-15 {
        fill: url(#radial-gradient-11);
      }

      .cls-16 {
        fill: url(#radial-gradient-12);
      }

      .cls-17 {
        fill: url(#radial-gradient-13);
      }

      .cls-18 {
        fill: url(#radial-gradient-14);
      }

      .cls-19 {
        fill: url(#radial-gradient-15);
      }

      .cls-20 {
        fill: url(#radial-gradient-16);
      }

      .cls-21 {
        fill: url(#radial-gradient-17);
      }

      .cls-22 {
        fill: url(#radial-gradient-18);
      }

      .cls-23 {
        fill: url(#radial-gradient-19);
      }

      .cls-24 {
        fill: url(#radial-gradient-20);
      }

      .cls-25 {
        fill: url(#radial-gradient-21);
      }

      .cls-26 {
        fill: url(#radial-gradient-22);
      }

      .cls-27 {
        fill: url(#radial-gradient-23);
      }

      .cls-28 {
        fill: url(#radial-gradient-24);
      }

      .cls-29 {
        fill: url(#radial-gradient-25);
      }

      .cls-30 {
        fill: url(#radial-gradient-26);
      }

      .cls-31 {
        fill: url(#radial-gradient-27);
      }

      .cls-32 {
        fill: url(#radial-gradient-28);
      }

      .cls-33 {
        fill: url(#radial-gradient-29);
      }

      .cls-34 {
        fill: url(#radial-gradient-30);
      }

      .cls-35 {
        fill: url(#radial-gradient-31);
      }

      .cls-36 {
        fill: url(#radial-gradient-32);
      }

      .cls-37 {
        fill: url(#radial-gradient-33);
      }

      .cls-38 {
        fill: url(#radial-gradient-34);
      }

      .cls-39 {
        fill: url(#radial-gradient-35);
      }

      .cls-40 {
        fill: url(#radial-gradient-36);
      }

      .cls-41 {
        fill: url(#radial-gradient-37);
      }

      .cls-42 {
        fill: url(#radial-gradient-38);
      }

      .cls-43 {
        fill: url(#radial-gradient-39);
      }

      .cls-44 {
        fill: url(#radial-gradient-40);
      }

      .cls-45 {
        fill: url(#radial-gradient-41);
      }

      .cls-46 {
        fill: url(#radial-gradient-42);
      }

      .cls-47 {
        fill: url(#radial-gradient-43);
      }

      .cls-48 {
        fill: url(#radial-gradient-44);
      }

      .cls-49 {
        fill: url(#radial-gradient-45);
      }

      .cls-50 {
        fill: url(#radial-gradient-46);
      }

      .cls-51 {
        fill: url(#radial-gradient-47);
      }

      .cls-52 {
        fill: url(#radial-gradient-48);
      }

      .cls-53 {
        fill: url(#radial-gradient-49);
      }

      .cls-54 {
        fill: url(#radial-gradient-50);
      }

      .cls-55 {
        fill: url(#radial-gradient-51);
      }

      .cls-56 {
        fill: url(#radial-gradient-52);
      }

      .cls-57 {
        fill: url(#radial-gradient-53);
      }

      .cls-58 {
        fill: url(#radial-gradient-54);
      }

      .cls-59 {
        fill: url(#radial-gradient-55);
      }

      .cls-60 {
        fill: url(#radial-gradient-56);
      }

      .cls-61 {
        fill: url(#radial-gradient-57);
      }

      .cls-62 {
        fill: url(#radial-gradient-58);
      }
    </style>
    <clipPath id="clip-path">
      <rect class="cls-1" width="27.818" height="25.818"/>
    </clipPath>
    <radialGradient id="radial-gradient" cx="183.832" cy="-58.285" r="12.843" gradientTransform="matrix(0.802, -0.597, 0.597, 0.802, 100.944, 17.997)" gradientUnits="userSpaceOnUse">
      <stop offset="0" stop-color="#f20074"/>
      <stop offset="0.141" stop-color="#ed0276"/>
      <stop offset="0.307" stop-color="#de0a7c"/>
      <stop offset="0.486" stop-color="#c61787"/>
      <stop offset="0.674" stop-color="#a52a95"/>
      <stop offset="0.868" stop-color="#7b41a8"/>
      <stop offset="0.898" stop-color="#7446ac"/>
    </radialGradient>
    <radialGradient id="radial-gradient-2" cx="19.171" cy="5.09" r="22.391" gradientTransform="matrix(0.708, 0.706, -0.706, 0.708, 9.194, -12.053)" xlink:href="#radial-gradient"/>
    <radialGradient id="radial-gradient-3" cx="155.239" cy="-18.047" r="27.134" gradientTransform="matrix(0.987, -0.39, 0.342, 0.866, 36.582, 3.978)" xlink:href="#radial-gradient"/>
    <radialGradient id="radial-gradient-4" cx="445.994" cy="-53.559" r="8.938" gradientTransform="matrix(1.495, -1.114, 1.114, 1.495, 4.954, 438.261)" xlink:href="#radial-gradient"/>
    <radialGradient id="radial-gradient-5" cx="153.775" cy="-69.769" r="18.783" gradientTransform="matrix(0.711, -0.53, 0.53, 0.711, 92.753, -20.402)" xlink:href="#radial-gradient"/>
    <radialGradient id="radial-gradient-6" cx="40.84" cy="-86.698" r="46.901" gradientTransform="matrix(0.285, -0.212, 0.212, 0.285, 14.186, -110.878)" xlink:href="#radial-gradient"/>
    <radialGradient id="radial-gradient-7" cx="96.63" cy="-89.618" r="28.321" gradientTransform="matrix(0.472, -0.351, 0.351, 0.472, 44.464, -66.33)" xlink:href="#radial-gradient"/>
    <radialGradient id="radial-gradient-8" cx="183.503" cy="-66.848" r="19.516" gradientTransform="matrix(0.805, -0.6, 0.6, 0.805, 106.423, 15.458)" xlink:href="#radial-gradient"/>
    <radialGradient id="radial-gradient-9" cx="174.405" cy="-66.647" r="15.224" gradientTransform="matrix(0.759, -0.565, 0.565, 0.759, 103.118, -1.277)" xlink:href="#radial-gradient"/>
    <radialGradient id="radial-gradient-10" cx="147.595" cy="-72.331" r="5.992" gradientTransform="matrix(0.668, -0.497, 0.497, 0.668, 80.56, -30.129)" xlink:href="#radial-gradient"/>
    <radialGradient id="radial-gradient-11" cx="143.132" cy="-73.727" r="6.231" gradientTransform="matrix(0.642, -0.478, 0.478, 0.642, 75.606, -35.667)" xlink:href="#radial-gradient"/>
    <radialGradient id="radial-gradient-12" cx="-197.354" cy="413.391" r="3.272" gradientTransform="matrix(0.655, 1.377, -1.377, 0.655, 328.405, 486.837)" xlink:href="#radial-gradient"/>
    <radialGradient id="radial-gradient-13" cx="-223.894" cy="495.859" r="2.79" gradientTransform="matrix(0.768, 1.615, -1.615, 0.768, 559.196, 557.329)" xlink:href="#radial-gradient"/>
    <radialGradient id="radial-gradient-14" cx="-196.867" cy="90.257" r="5.541" gradientTransform="matrix(-0.687, 0.582, -0.582, -0.687, -397.642, 205.888)" xlink:href="#radial-gradient"/>
    <radialGradient id="radial-gradient-15" cx="-188.252" cy="105.806" r="5.552" gradientTransform="matrix(-0.686, 0.581, -0.581, -0.686, -324.793, 248.614)" xlink:href="#radial-gradient"/>
    <radialGradient id="radial-gradient-16" cx="-125.245" cy="-146.281" r="7.116" gradientTransform="matrix(-0.84, 0.043, -0.076, -1.484, -385.234, -484.595)" xlink:href="#radial-gradient"/>
    <radialGradient id="radial-gradient-17" cx="122.169" cy="-77.412" r="10.628" gradientTransform="matrix(0.575, -0.428, 0.428, 0.575, 70.389, -67.172)" xlink:href="#radial-gradient"/>
    <radialGradient id="radial-gradient-18" cx="157.245" cy="74.662" r="4.341" gradientTransform="matrix(0.815, -0.35, 0.618, 1.441, 18.248, 20.558)" xlink:href="#radial-gradient"/>
    <radialGradient id="radial-gradient-19" cx="-167.661" cy="127.695" r="6.09" gradientTransform="matrix(-0.439, 0.675, -0.675, -0.439, -211.223, 256.645)" xlink:href="#radial-gradient"/>
    <radialGradient id="radial-gradient-20" cx="-386.845" cy="161.479" r="4.147" gradientTransform="matrix(-0.285, 1.13, -1.998, -0.504, -406.489, 613.829)" xlink:href="#radial-gradient"/>
    <radialGradient id="radial-gradient-21" cx="129.649" cy="-337.76" r="4.623" gradientTransform="matrix(-0.446, -1.254, 1.254, -0.446, 539.73, -512.347)" xlink:href="#radial-gradient"/>
    <radialGradient id="radial-gradient-22" cx="356.565" cy="-344.145" r="1.87" gradientTransform="matrix(-0.017, -2.103, 2.103, -0.017, 1071.918, 153.343)" xlink:href="#radial-gradient"/>
    <radialGradient id="radial-gradient-23" cx="529.427" cy="-542.242" r="1.296" gradientTransform="matrix(-0.025, -3.036, 3.036, -0.025, 2173.885, 704.444)" xlink:href="#radial-gradient"/>
    <radialGradient id="radial-gradient-24" cx="42.853" cy="-27.169" r="8.02" gradientTransform="matrix(-0.574, -0.241, 0.241, -0.574, -20.769, -24.018)" xlink:href="#radial-gradient"/>
    <radialGradient id="radial-gradient-25" cx="94.946" cy="-33.521" r="10.315" gradientTransform="matrix(-0.446, -0.188, 0.188, -0.446, 54.505, 206.099)" xlink:href="#radial-gradient"/>
    <radialGradient id="radial-gradient-26" cx="13.711" cy="-16.207" r="5.778" gradientTransform="matrix(0.485, -0.057, 0.057, 0.485, -37.874, -58.933)" xlink:href="#radial-gradient"/>
    <radialGradient id="radial-gradient-27" cx="3.295" cy="-36.822" r="8.106" gradientTransform="matrix(0.346, -0.041, 0.041, 0.346, -66.429, -86.955)" xlink:href="#radial-gradient"/>
    <radialGradient id="radial-gradient-28" cx="-279.472" cy="168.922" r="2.488" gradientTransform="matrix(-0.718, 0.879, -0.879, -0.718, -252.566, 500.981)" xlink:href="#radial-gradient"/>
    <radialGradient id="radial-gradient-29" cx="-327.646" cy="171.894" r="2.243" gradientTransform="matrix(-0.797, 0.975, -0.975, -0.797, -223.237, 583.783)" xlink:href="#radial-gradient"/>
    <radialGradient id="radial-gradient-30" cx="94.276" cy="-178.517" r="2.503" gradientTransform="matrix(-0.718, -0.87, 0.87, -0.718, 207.741, -185.848)" xlink:href="#radial-gradient"/>
    <radialGradient id="radial-gradient-31" cx="115.267" cy="-204.342" r="2.48" gradientTransform="matrix(-0.725, -0.879, 0.879, -0.725, 249.697, -76.527)" xlink:href="#radial-gradient"/>
    <radialGradient id="radial-gradient-32" cx="-237.142" cy="-70.61" r="4.475" gradientTransform="matrix(-0.579, 0.252, -0.252, -0.579, -50.242, 658.829)" xlink:href="#radial-gradient"/>
    <radialGradient id="radial-gradient-33" cx="-373.648" cy="-398.486" r="5.354" gradientTransform="matrix(-0.484, 0.211, -0.211, -0.484, 309.081, 1313.268)" xlink:href="#radial-gradient"/>
    <radialGradient id="radial-gradient-34" cx="-41.304" cy="160.143" r="2.855" gradientTransform="matrix(0.641, 0.407, -0.407, 0.641, -6.971, 68.514)" xlink:href="#radial-gradient"/>
    <radialGradient id="radial-gradient-35" cx="-52.768" cy="126.582" r="3.371" gradientTransform="matrix(0.543, 0.345, -0.345, 0.543, -20.8, 56.687)" xlink:href="#radial-gradient"/>
    <radialGradient id="radial-gradient-36" cx="1.825" cy="1.617" r="4.562" gradientTransform="matrix(-0.475, 0, 0, -0.475, 2.693, 2.386)" xlink:href="#radial-gradient"/>
    <radialGradient id="radial-gradient-37" cx="-682.781" cy="400.594" r="0.716" gradientTransform="matrix(-0.153, 3.023, -3.023, -0.153, 435.767, 2078.393)" xlink:href="#radial-gradient"/>
    <radialGradient id="radial-gradient-38" cx="48.62" cy="-1083.205" r="1.83" gradientTransform="matrix(-0.659, -0.466, 0.466, -0.659, 679.765, 1890.67)" xlink:href="#radial-gradient"/>
    <radialGradient id="radial-gradient-39" cx="-40.193" cy="-1927.01" r="2.106" gradientTransform="matrix(-0.573, -0.405, 0.405, -0.573, 538.737, 4132.944)" xlink:href="#radial-gradient"/>
    <radialGradient id="radial-gradient-40" cx="0.338" cy="-0.608" r="1.79" gradientTransform="matrix(0.825, 0, 0, 1.434, 0.059, 0.264)" xlink:href="#radial-gradient"/>
    <radialGradient id="radial-gradient-41" cx="1111.851" cy="171.982" r="0.939" gradientTransform="matrix(0.547, -1.475, 2.562, 0.95, -600.166, 757.933)" xlink:href="#radial-gradient"/>
    <radialGradient id="radial-gradient-42" cx="112.611" cy="12.307" r="2.732" gradientTransform="matrix(0.522, -0.14, 0.14, 0.522, 42.394, -19.047)" xlink:href="#radial-gradient"/>
    <radialGradient id="radial-gradient-43" cx="48.75" cy="-16.943" r="3.571" gradientTransform="matrix(0.4, -0.107, 0.107, 0.4, 199.046, -18.064)" xlink:href="#radial-gradient"/>
    <radialGradient id="radial-gradient-44" cx="-58.887" cy="814.24" r="0.972" gradientTransform="matrix(0.415, 1.137, -1.862, 0.679, 890.755, -424.306)" xlink:href="#radial-gradient"/>
    <radialGradient id="radial-gradient-45" cx="-99.694" cy="1172.189" r="0.759" gradientTransform="matrix(0.53, 1.454, -2.382, 0.869, 1558.641, -986.362)" xlink:href="#radial-gradient"/>
    <radialGradient id="radial-gradient-46" cx="361.911" cy="-289.585" r="1.523" gradientTransform="matrix(0.473, -1.793, 1.793, 0.473, 701.136, 298.648)" xlink:href="#radial-gradient"/>
    <radialGradient id="radial-gradient-47" cx="526.605" cy="-427.665" r="1.11" gradientTransform="matrix(0.649, -2.461, 2.461, 0.649, 1231.972, 839.948)" xlink:href="#radial-gradient"/>
    <radialGradient id="radial-gradient-48" cx="450.692" cy="-516.469" r="4.546" gradientTransform="matrix(0.577, -1.319, 1.096, 0.48, 325.545, 567.436)" xlink:href="#radial-gradient"/>
    <radialGradient id="radial-gradient-49" cx="690.88" cy="-1206.951" r="4.545" gradientTransform="matrix(0.577, -1.319, 1.096, 0.48, -207.863, 1619.441)" xlink:href="#radial-gradient"/>
    <radialGradient id="radial-gradient-50" cx="-119.492" cy="74.364" r="10.038" gradientTransform="matrix(0.65, 0.326, -0.27, 0.54, -28.693, 89.23)" xlink:href="#radial-gradient"/>
    <radialGradient id="radial-gradient-51" cx="-168.419" cy="-21.523" r="6.073" gradientTransform="matrix(0.65, 0.325, -0.27, 0.54, 56.67, 192.17)" xlink:href="#radial-gradient"/>
    <radialGradient id="radial-gradient-52" cx="-850.341" cy="-4.285" r="3.5" gradientTransform="matrix(0.707, 0.744, -0.619, 0.588, 1018.14, 176.667)" xlink:href="#radial-gradient"/>
    <radialGradient id="radial-gradient-53" cx="-466.501" cy="194.326" r="5.095" gradientTransform="matrix(0.707, 0.744, -0.618, 0.587, 377.223, 274.603)" xlink:href="#radial-gradient"/>
    <radialGradient id="radial-gradient-54" cx="-945.915" cy="-64.33" r="3.336" gradientTransform="matrix(0.707, 0.744, -0.619, 0.588, 1207.452, 169.835)" xlink:href="#radial-gradient"/>
    <radialGradient id="radial-gradient-55" cx="11.364" cy="-31.561" r="11.523" gradientTransform="matrix(0.568, 0.018, -0.015, 0.472, -95.742, -62.1)" xlink:href="#radial-gradient"/>
    <radialGradient id="radial-gradient-56" cx="102.565" cy="-38.227" r="11.53" gradientTransform="matrix(0.567, 0.018, -0.015, 0.471, -281.826, -62.436)" xlink:href="#radial-gradient"/>
    <radialGradient id="radial-gradient-57" cx="102.667" cy="-38.46" r="11.556" gradientTransform="matrix(0.566, 0.018, -0.015, 0.47, -285.127, -62.652)" xlink:href="#radial-gradient"/>
    <radialGradient id="radial-gradient-58" cx="32.909" cy="-150.452" r="76.918" gradientTransform="matrix(0.054, -0.512, 0.512, 0.054, 43.392, -241.471)" xlink:href="#radial-gradient"/>
    <clipPath id="clip-iPhone_6_7_8_2">
      <rect width="31" height="30"/>
    </clipPath>
  </defs>
  <g id="iPhone_6_7_8_2" data-name="iPhone 6/7/8 – 2" class="cls-2">
    <g id="Repeat_Grid_1" data-name="Repeat Grid 1" class="cls-3" transform="translate(2 2)">
      <g transform="translate(-39 -15)">
        <g id="Symbol_5_2" data-name="Symbol 5 – 2" transform="translate(-65.838 -72.908)">
          <path id="Path_1357" data-name="Path 1357" class="cls-4" d="M127.933,93.228a12.7,12.7,0,1,1-17.774-2.6A12.7,12.7,0,0,1,127.933,93.228Z"/>
          <circle id="Ellipse_86" data-name="Ellipse 86" class="cls-5" cx="11.372" cy="11.372" r="11.372" transform="translate(104.838 110.409) rotate(-81.616)"/>
          <path id="Path_1358" data-name="Path 1358" class="cls-6" d="M109.852,104.9a4.624,4.624,0,0,1-2.022-2.637,8.453,8.453,0,0,1,.686-6.044c2.615-5.828,9.833-6.4,11.716-4.749s.689,4.163-2.461,5.528-2.951,5.841-4.794,7.228a3.549,3.549,0,0,1-2.43.869A2.03,2.03,0,0,1,109.852,104.9Z"/>
          <g id="Group_543" data-name="Group 543" class="cls-7">
            <path id="Path_1359" data-name="Path 1359" class="cls-8" d="M109.058,100.578a22.713,22.713,0,0,1-1.969-1.541,10.756,10.756,0,0,0,6,11.44,10.766,10.766,0,0,1-4.028-9.9Z"/>
            <path id="Path_1360" data-name="Path 1360" class="cls-9" d="M116.99,90.034a10.752,10.752,0,0,0-9.752,8.255,21.336,21.336,0,0,0,1.941,1.57,10.752,10.752,0,0,1,9.136-8.513A11.317,11.317,0,0,0,116.99,90.034Z"/>
            <path id="Path_1361" data-name="Path 1361" class="cls-10" d="M121.75,91.452a11.708,11.708,0,0,0-.771-.926,10.843,10.843,0,0,0-3.28-.513,12.77,12.77,0,0,1,1.193,1.274A10.819,10.819,0,0,1,121.75,91.452Z"/>
            <path id="Path_1362" data-name="Path 1362" class="cls-11" d="M122.457,91.613a10.782,10.782,0,0,1,1.872.681,10.64,10.64,0,0,0-2.419-1.423Q122.2,91.231,122.457,91.613Z"/>
          </g>
          <path id="Path_1363" data-name="Path 1363" class="cls-12" d="M119.049,89.744a9.106,9.106,0,1,1-12.254,13.083c-.011-.016-.021-.032-.033-.047a11.17,11.17,0,1,0,12.287-13.036Z"/>
          <g id="Group_544" data-name="Group 544">
            <path id="Path_1364" data-name="Path 1364" class="cls-13" d="M125.265,93.136l.029.038a10.782,10.782,0,0,1-16.443,13.935,10.8,10.8,0,1,0,17.282-12.94A11.475,11.475,0,0,0,125.265,93.136Z"/>
          </g>
          <g id="Group_545" data-name="Group 545">
            <path id="Path_1365" data-name="Path 1365" class="cls-14" d="M114.691,91.216c.419.563-.2,1.734-1.385,2.616s-2.484,1.141-2.9.578.2-1.734,1.385-2.616S114.271,90.654,114.691,91.216Z"/>
            <path id="Path_1366" data-name="Path 1366" class="cls-15" d="M110.906,94.688a3.561,3.561,0,0,0,2.4-.856,3.208,3.208,0,0,0,1.514-2.243,3.556,3.556,0,0,0-2.4.856A3.209,3.209,0,0,0,110.906,94.688Z"/>
          </g>
          <g id="Group_546" data-name="Group 546">
            <path id="Path_1367" data-name="Path 1367" class="cls-16" d="M127.769,99.146c-.633.3-1.661-.535-2.295-1.868s-.635-2.659,0-2.96,1.661.535,2.295,1.868S128.4,98.844,127.769,99.146Z"/>
            <path id="Path_1368" data-name="Path 1368" class="cls-17" d="M125.1,94.757a3.558,3.558,0,0,0,.372,2.521c.516,1.084,1.292,1.84,1.9,1.922a3.557,3.557,0,0,0-.371-2.521C126.491,95.6,125.715,94.839,125.1,94.757Z"/>
          </g>
          <g id="Group_547" data-name="Group 547">
            <path id="Path_1369" data-name="Path 1369" class="cls-18" d="M120.912,108.344c-.454-.536.092-1.743,1.219-2.7s2.408-1.293,2.861-.757-.093,1.742-1.22,2.7S121.365,108.879,120.912,108.344Z"/>
            <path id="Path_1370" data-name="Path 1370" class="cls-19" d="M124.473,104.644a3.556,3.556,0,0,0-2.342,1,3.2,3.2,0,0,0-1.371,2.333,3.558,3.558,0,0,0,2.341-1A3.206,3.206,0,0,0,124.473,104.644Z"/>
          </g>
          <g id="Group_549" data-name="Group 549">
            <g id="Group_548" data-name="Group 548">
              <path id="Path_1371" data-name="Path 1371" class="cls-20" d="M113.688,105.423a3.254,3.254,0,1,1,3.338,2.526A2.982,2.982,0,0,1,113.688,105.423Z"/>
            </g>
            <path id="Path_1372" data-name="Path 1372" class="cls-21" d="M116.752,102.571a3.09,3.09,0,0,0-3.045,2.423,3.344,3.344,0,0,0,6.319-.328A3.092,3.092,0,0,0,116.752,102.571Z"/>
          </g>
          <g id="Group_551" data-name="Group 551">
            <g id="Group_550" data-name="Group 550">
              <path id="Path_1373" data-name="Path 1373" class="cls-22" d="M116.881,95.338a2.095,2.095,0,1,1-2.579-.779A1.92,1.92,0,0,1,116.881,95.338Z"/>
            </g>
            <path id="Path_1374" data-name="Path 1374" class="cls-23" d="M115.668,97.744a1.989,1.989,0,0,0,1.3-2.142,2.152,2.152,0,1,0-1.3,2.142Z"/>
          </g>
          <g id="Group_553" data-name="Group 553">
            <g id="Group_552" data-name="Group 552">
              <path id="Path_1375" data-name="Path 1375" class="cls-24" d="M122.481,102.849a2.629,2.629,0,1,1,2.742-1.978A2.409,2.409,0,0,1,122.481,102.849Z"/>
            </g>
            <path id="Path_1376" data-name="Path 1376" class="cls-25" d="M121.006,99.806a2.5,2.5,0,0,0,1.148,2.927,2.7,2.7,0,0,0,1.247-4.958A2.5,2.5,0,0,0,121.006,99.806Z"/>
          </g>
          <g id="Group_554" data-name="Group 554">
            <path id="Path_1377" data-name="Path 1377" class="cls-26" d="M109.214,98.287c.553,0,1.009.935,1.019,2.1s-.431,2.111-.984,2.115-1.009-.935-1.019-2.1S108.661,98.292,109.214,98.287Z"/>
            <path id="Path_1378" data-name="Path 1378" class="cls-27" d="M109.66,102.311a2.807,2.807,0,0,0,.573-1.925,2.528,2.528,0,0,0-.722-2.008,2.807,2.807,0,0,0-.573,1.925A2.528,2.528,0,0,0,109.66,102.311Z"/>
          </g>
          <g id="Group_555" data-name="Group 555">
            <path id="Path_1379" data-name="Path 1379" class="cls-28" d="M111.492,108.862c.272-.646,1.6-.707,2.957-.134s2.243,1.56,1.971,2.207-1.6.707-2.956.134S111.22,109.509,111.492,108.862Z"/>
            <path id="Path_1380" data-name="Path 1380" class="cls-29" d="M116.4,110.361a3.556,3.556,0,0,0-1.955-1.633,3.2,3.2,0,0,0-2.7-.166,3.556,3.556,0,0,0,1.955,1.633A3.211,3.211,0,0,0,116.4,110.361Z"/>
          </g>
          <g id="Group_556" data-name="Group 556">
            <path id="Path_1381" data-name="Path 1381" class="cls-30" d="M118.361,90.681c.046.395-.589.794-1.419.892s-1.54-.142-1.587-.536.589-.794,1.419-.892S118.314,90.287,118.361,90.681Z"/>
            <path id="Path_1382" data-name="Path 1382" class="cls-31" d="M115.524,91.315a2.009,2.009,0,0,0,1.418.258,1.821,1.821,0,0,0,1.377-.672,2.013,2.013,0,0,0-1.419-.258A1.813,1.813,0,0,0,115.524,91.315Z"/>
          </g>
          <g id="Group_557" data-name="Group 557">
            <path id="Path_1383" data-name="Path 1383" class="cls-32" d="M125.159,107.915c-.308-.251-.129-.979.4-1.626s1.206-.969,1.514-.717.128.979-.4,1.626S125.466,108.167,125.159,107.915Z"/>
            <path id="Path_1384" data-name="Path 1384" class="cls-33" d="M126.758,105.488a2.018,2.018,0,0,0-1.2.8,1.815,1.815,0,0,0-.523,1.439,2.01,2.01,0,0,0,1.2-.8A1.811,1.811,0,0,0,126.758,105.488Z"/>
          </g>
          <g id="Group_558" data-name="Group 558">
            <path id="Path_1385" data-name="Path 1385" class="cls-34" d="M109.06,106.105c.306-.252.986.066,1.518.71s.714,1.372.408,1.625-.986-.065-1.518-.71S108.754,106.358,109.06,106.105Z"/>
            <path id="Path_1386" data-name="Path 1386" class="cls-35" d="M111.129,108.148a2.015,2.015,0,0,0-.551-1.333,1.818,1.818,0,0,0-1.311-.793,2.012,2.012,0,0,0,.552,1.333A1.815,1.815,0,0,0,111.129,108.148Z"/>
          </g>
          <g id="Group_559" data-name="Group 559">
            <path id="Path_1387" data-name="Path 1387" class="cls-36" d="M120.655,110.734c-.159-.364.334-.929,1.1-1.263s1.516-.31,1.674.054-.334.93-1.1,1.264S120.814,111.1,120.655,110.734Z"/>
            <path id="Path_1388" data-name="Path 1388" class="cls-37" d="M123.188,109.307a2.018,2.018,0,0,0-1.433.164,1.814,1.814,0,0,0-1.123,1.041,2.012,2.012,0,0,0,1.433-.163A1.815,1.815,0,0,0,123.188,109.307Z"/>
          </g>
          <g id="Group_560" data-name="Group 560">
            <path id="Path_1389" data-name="Path 1389" class="cls-38" d="M125.753,93.682c-.164.257-.735.187-1.276-.157s-.848-.831-.685-1.088.735-.187,1.276.156S125.916,93.425,125.753,93.682Z"/>
            <path id="Path_1390" data-name="Path 1390" class="cls-39" d="M123.758,92.684a1.54,1.54,0,0,0,.719.841,1.392,1.392,0,0,0,1.144.267,1.54,1.54,0,0,0-.719-.841A1.388,1.388,0,0,0,123.758,92.684Z"/>
          </g>
          <g id="Group_561" data-name="Group 561">
            <ellipse id="Ellipse_87" data-name="Ellipse 87" class="cls-40" cx="1.161" cy="0.552" rx="1.161" ry="0.552" transform="translate(127.421 101.904) rotate(-87.095)"/>
            <path id="Path_1391" data-name="Path 1391" class="cls-41" d="M127.857,99.7a1.551,1.551,0,0,0-.378,1.041,1.393,1.393,0,0,0,.332,1.127,1.546,1.546,0,0,0,.378-1.04A1.4,1.4,0,0,0,127.857,99.7Z"/>
          </g>
          <g id="Group_562" data-name="Group 562">
            <path id="Path_1392" data-name="Path 1392" class="cls-42" d="M111.563,106.848c.12-.17.506-.1.863.15s.549.594.429.763-.506.1-.863-.149S111.443,107.017,111.563,106.848Z"/>
            <path id="Path_1393" data-name="Path 1393" class="cls-43" d="M112.887,107.6a1.049,1.049,0,0,0-.461-.6.949.949,0,0,0-.77-.221,1.049,1.049,0,0,0,.461.6A.953.953,0,0,0,112.887,107.6Z"/>
          </g>
          <g id="Group_563" data-name="Group 563">
            <ellipse id="Ellipse_88" data-name="Ellipse 88" class="cls-44" cx="0.791" cy="0.653" rx="0.791" ry="0.653" transform="translate(112.155 99.275) rotate(-69.648)"/>
            <path id="Path_1394" data-name="Path 1394" class="cls-45" d="M113.044,99.53a.816.816,0,0,0,.611-.542.79.79,0,0,0-.169-.869.812.812,0,0,0-.61.542A.788.788,0,0,0,113.044,99.53Z"/>
          </g>
          <g id="Group_564" data-name="Group 564">
            <path id="Path_1395" data-name="Path 1395" class="cls-46" d="M116.577,92.563c.054.2-.245.455-.667.568s-.808.042-.862-.158.245-.455.667-.568S116.523,92.362,116.577,92.563Z"/>
            <path id="Path_1396" data-name="Path 1396" class="cls-47" d="M115.156,93.1a1.053,1.053,0,0,0,.754.027.951.951,0,0,0,.662-.451,1.053,1.053,0,0,0-.754-.027A.948.948,0,0,0,115.156,93.1Z"/>
          </g>
          <g id="Group_565" data-name="Group 565">
            <path id="Path_1397" data-name="Path 1397" class="cls-48" d="M124.489,97.343a.65.65,0,1,1,.245-.76A.574.574,0,0,1,124.489,97.343Z"/>
            <path id="Path_1398" data-name="Path 1398" class="cls-49" d="M123.887,96.281a.656.656,0,0,0-.074.638.631.631,0,0,0,.53.447.656.656,0,0,0,.074-.638A.631.631,0,0,0,123.887,96.281Z"/>
          </g>
          <g id="Group_566" data-name="Group 566">
            <path id="Path_1399" data-name="Path 1399" class="cls-50" d="M108.117,96.542c.384.1.523.838.309,1.646s-.7,1.381-1.081,1.28-.522-.838-.309-1.646S107.733,96.44,108.117,96.542Z"/>
            <path id="Path_1400" data-name="Path 1400" class="cls-51" d="M107.666,99.413a2.008,2.008,0,0,0,.76-1.225,1.817,1.817,0,0,0-.12-1.527,2.013,2.013,0,0,0-.761,1.225A1.815,1.815,0,0,0,107.666,99.413Z"/>
          </g>
          <path id="Path_1401" data-name="Path 1401" class="cls-52" d="M126.32,103.3c.162.071.192.361.067.647s-.358.461-.521.39-.192-.361-.066-.647S126.158,103.227,126.32,103.3Z"/>
          <path id="Path_1402" data-name="Path 1402" class="cls-53" d="M126.225,102.256c.1.043.116.219.04.393s-.218.28-.316.237-.117-.219-.041-.393S126.126,102.212,126.225,102.256Z"/>
          <g id="Group_567" data-name="Group 567">
            <path id="Path_1403" data-name="Path 1403" class="cls-54" d="M115.327,108.506c-.089.177-.413.194-.724.038s-.493-.426-.4-.6.413-.194.725-.038S115.415,108.33,115.327,108.506Z"/>
            <path id="Path_1404" data-name="Path 1404" class="cls-55" d="M116.231,108.715c-.053.106-.249.117-.437.022s-.3-.257-.245-.364.25-.116.438-.022S116.285,108.608,116.231,108.715Z"/>
          </g>
          <path id="Path_1405" data-name="Path 1405" class="cls-56" d="M111.114,106.871c-.07.067-.223.021-.341-.1s-.157-.279-.086-.346.223-.02.341.1S111.185,106.805,111.114,106.871Z"/>
          <path id="Path_1406" data-name="Path 1406" class="cls-57" d="M123.931,93.755c-.1.1-.325.029-.5-.152s-.228-.406-.126-.5.325-.029.5.152S124.034,93.657,123.931,93.755Z"/>
          <path id="Path_1407" data-name="Path 1407" class="cls-58" d="M124.316,94.545c-.067.063-.213.019-.325-.1s-.15-.267-.082-.331.212-.019.325.1S124.383,94.481,124.316,94.545Z"/>
          <g id="Group_568" data-name="Group 568">
            <path id="Path_1408" data-name="Path 1408" class="cls-59" d="M119.139,110.795c0,.177-.263.312-.575.3s-.561-.162-.555-.339.263-.312.575-.3S119.145,110.618,119.139,110.795Z"/>
            <path id="Path_1409" data-name="Path 1409" class="cls-60" d="M120.072,110.319c0,.107-.16.19-.35.184s-.341-.1-.338-.206.161-.19.35-.184S120.076,110.211,120.072,110.319Z"/>
            <path id="Path_1410" data-name="Path 1410" class="cls-61" d="M117.732,110.265c0,.108-.16.19-.35.184s-.341-.1-.338-.206.16-.19.35-.183S117.735,110.158,117.732,110.265Z"/>
          </g>
          <path id="Path_1411" data-name="Path 1411" class="cls-62" d="M109.045,96.453c-.148-.1-.128-.389.045-.649s.432-.392.579-.295.128.389-.045.649S109.192,96.55,109.045,96.453Zm.267.864c.105-.159.117-.335.028-.4s-.248.021-.353.18-.117.335-.027.394S109.207,97.475,109.312,97.317Zm1.275-1.963c.105-.159.117-.335.027-.395s-.247.021-.352.179-.117.335-.028.395S110.482,95.512,110.587,95.354Zm7.342-3.04c-.061-.166.127-.388.42-.5s.58-.061.641.105-.127.388-.42.5S117.99,92.481,117.929,92.314Zm1.893.028c.178-.065.293-.2.256-.3s-.212-.13-.39-.065-.293.2-.256.3S119.644,92.408,119.822,92.342Z"/>
        </g>
      </g>
    </g>
  </g>
</svg>
