<svg xmlns="http://www.w3.org/2000/svg" xmlns:xlink="http://www.w3.org/1999/xlink" viewBox="0 0 34 33">
  <defs>
    <style>
      .cls-1 {
        clip-path: url(#clip-iPhone_6_7_8_4);
      }

      .cls-2 {
        fill: url(#radial-gradient);
      }

      .cls-3 {
        fill: url(#radial-gradient-2);
      }

      .cls-4 {
        fill: url(#radial-gradient-3);
      }

      .cls-5, .cls-7 {
        opacity: 0.34;
      }

      .cls-5 {
        fill: url(#radial-gradient-4);
      }

      .cls-6, .cls-8 {
        opacity: 0.45;
      }

      .cls-6 {
        fill: url(#radial-gradient-5);
      }

      .cls-7 {
        fill: url(#radial-gradient-6);
      }

      .cls-8 {
        fill: url(#radial-gradient-7);
      }

      .cls-9 {
        fill: url(#radial-gradient-8);
      }

      .cls-10 {
        fill: url(#radial-gradient-9);
      }
    </style>
    <radialGradient id="radial-gradient" cx="15.651" cy="15.379" r="15.884" gradientUnits="userSpaceOnUse">
      <stop offset="0.059" stop-color="#fce085"/>
      <stop offset="0.411" stop-color="#fbdf85" stop-opacity="0.992"/>
      <stop offset="0.537" stop-color="#fbdc89" stop-opacity="0.965"/>
      <stop offset="0.627" stop-color="#fad88e" stop-opacity="0.918"/>
      <stop offset="0.7" stop-color="#f9d296" stop-opacity="0.851"/>
      <stop offset="0.763" stop-color="#f7cba1" stop-opacity="0.765"/>
      <stop offset="0.818" stop-color="#f5c1ae" stop-opacity="0.655"/>
      <stop offset="0.868" stop-color="#f3b6bd" stop-opacity="0.529"/>
      <stop offset="0.915" stop-color="#f0a9cf" stop-opacity="0.376"/>
      <stop offset="0.957" stop-color="#ec9ae4" stop-opacity="0.208"/>
      <stop offset="0.995" stop-color="#e98af9" stop-opacity="0.024"/>
      <stop offset="1" stop-color="#e988fd" stop-opacity="0"/>
    </radialGradient>
    <radialGradient id="radial-gradient-2" cx="18.812" cy="9.859" r="25.292" gradientTransform="matrix(0.231, 0.973, -0.973, 0.231, 24.056, -10.722)" gradientUnits="userSpaceOnUse">
      <stop offset="0.059" stop-color="#fce085"/>
      <stop offset="0.963" stop-color="#e988fd"/>
    </radialGradient>
    <radialGradient id="radial-gradient-3" cx="195.153" cy="24.545" r="40.617" gradientTransform="translate(0.007 0.001)" gradientUnits="userSpaceOnUse">
      <stop offset="0.059" stop-color="#66b0d8"/>
      <stop offset="1" stop-color="#3f1f7d"/>
    </radialGradient>
    <radialGradient id="radial-gradient-4" cx="177.929" cy="32.729" r="20.595" gradientTransform="translate(-0.637 0.134) scale(0.945 0.945)" xlink:href="#radial-gradient-2"/>
    <radialGradient id="radial-gradient-5" cx="135.11" cy="21.464" r="25.335" gradientTransform="translate(-9.534 -0.448) scale(0.825 0.825)" xlink:href="#radial-gradient-2"/>
    <radialGradient id="radial-gradient-6" cx="187.073" cy="35.145" r="16.644" gradientTransform="translate(-0.118 0.087) scale(0.97 0.97)" xlink:href="#radial-gradient-2"/>
    <radialGradient id="radial-gradient-7" cx="-67.256" cy="260.895" r="37.471" gradientTransform="matrix(0.388, 0.755, -0.662, 0.341, -6.55, 343.19)" xlink:href="#radial-gradient-2"/>
    <radialGradient id="radial-gradient-8" cx="22.374" cy="44.446" r="13.002" gradientTransform="matrix(0.579, 0.161, -0.161, 0.579, -64.369, 32.853)" xlink:href="#radial-gradient-2"/>
    <radialGradient id="radial-gradient-9" cx="-50.747" cy="162.553" r="4.739" gradientTransform="matrix(0.696, 0.584, -0.584, 0.696, -6.739, 167.445)" xlink:href="#radial-gradient-2"/>
    <clipPath id="clip-iPhone_6_7_8_4">
      <rect width="34" height="33"/>
    </clipPath>
  </defs>
  <g id="iPhone_6_7_8_4" data-name="iPhone 6/7/8 – 4" class="cls-1">
    <g id="Symbol_6_2" data-name="Symbol 6 – 2" transform="translate(-187.208 -20.765)">
      <circle id="Ellipse_72" data-name="Ellipse 72" class="cls-2" cx="15.593" cy="15.593" r="15.593" transform="translate(187.997 21.554)"/>
      <circle id="Ellipse_73" data-name="Ellipse 73" class="cls-3" cx="13.606" cy="13.606" r="13.606" transform="translate(187.208 47.24) rotate(-76.638)"/>
      <path id="Path_1170" data-name="Path 1170" class="cls-4" d="M211.909,38.4c-.118.285-.192.431.235.5a2.215,2.215,0,0,0,1.373-.6,11.451,11.451,0,0,0,1.381-1.332l2.074-2.213c.018.1.031.2.046.306l-1.842,2.156a11.553,11.553,0,0,1-1.387,1.425,4.74,4.74,0,0,1-.781.527,1.625,1.625,0,0,1-.9.219.8.8,0,0,1-.767-.507.969.969,0,0,1,.092-.68c.117-.28.2-.432.2-.432a9.937,9.937,0,0,1,.931-1.427c.615-.81,1.5-1.8,2.264-2.874.438-.6.845-1.214,1.21-1.794.049.109.1.218.142.329-.315.547-.669,1.12-1.047,1.678-.739,1.12-1.606,2.152-2.178,2.949a9.565,9.565,0,0,0-.853,1.38S212.024,38.146,211.909,38.4ZM191.7,31.558a12.011,12.011,0,0,1,3.544-.45c.648.016,1.311.09,1.953.063a3.726,3.726,0,0,0,1.726-.451,5.375,5.375,0,0,0,.992-.767l.327-.328a12.024,12.024,0,0,0,1.076-1.291,14.488,14.488,0,0,0,1.774-3.22,13.6,13.6,0,0,0,.509-1.572h-.014c-.107,0-.209.013-.315.016a13.864,13.864,0,0,1-.525,1.414,14.55,14.55,0,0,1-1.817,3.071,11.882,11.882,0,0,1-1.068,1.218l-.307.322a4.893,4.893,0,0,1-.878.719,3.273,3.273,0,0,1-1.5.433c-.6.045-1.253-.006-1.925,0a11.353,11.353,0,0,0-3.609.627c-.161.057-.3.113-.434.169-.032.071-.07.139-.1.211C191.285,31.683,191.483,31.62,191.7,31.558Zm8.27,15.585c.192-.165.3-.268.3-.268a1.225,1.225,0,0,0,.257-.4.666.666,0,0,0-.087-.656,1.169,1.169,0,0,0-.6-.352,5.2,5.2,0,0,0-3.084.13c-1.063.329-2.053.773-2.839.974l-.1.026c.054.056.1.118.157.173.819-.146,1.851-.544,2.885-.813a4.851,4.851,0,0,1,2.828-.03.736.736,0,0,1,.356.2.154.154,0,0,1,.005.161.818.818,0,0,1-.161.223s-.088.085-.254.237a3.663,3.663,0,0,1-.76.541,9.566,9.566,0,0,1-2.775.91l-.329.067c.142.1.286.2.432.293a9.569,9.569,0,0,0,2.9-.843A4.123,4.123,0,0,0,199.973,47.143Zm-3.217-21.62c-.146.271-.169.475-.139.484.054.025.41-.685,1.1-.952a2.1,2.1,0,0,1,.935-.184c.054,0,.144.013.15.014l0,.007,0,0h0a.023.023,0,0,1,.012,0l0,.007s.006,0-.05.071a4.212,4.212,0,0,1-.684.66c-.539.431-1.2.65-1.184.717a2.409,2.409,0,0,0,1.382-.419,4.157,4.157,0,0,0,.835-.638,2.618,2.618,0,0,0,.2-.224l.189-.235.206-.266-.288-.079s-.091-.025-.249-.054c-.077-.013-.167-.036-.275-.048a13.4,13.4,0,0,0-2.012.926A1.621,1.621,0,0,0,196.756,25.523Zm19.276,17.116a11.7,11.7,0,0,1-2.979.6,17.059,17.059,0,0,0-3.355.56,9.254,9.254,0,0,0-1.46.565,9.133,9.133,0,0,0-1.34.809,10.423,10.423,0,0,0-2.434,2.4,32.685,32.685,0,0,1-1.978,2.705c-.131.147-.257.274-.377.387.074.008.148.013.222.02.1-.084.2-.162.3-.264A25.775,25.775,0,0,0,204.76,47.8a10.309,10.309,0,0,1,2.413-2.227,9,9,0,0,1,1.3-.736,9.091,9.091,0,0,1,1.376-.575,17.513,17.513,0,0,1,3.254-.653,11.983,11.983,0,0,0,2.782-.663C215.931,42.845,215.985,42.744,216.032,42.639Zm-9.576,5.442c-.011-.011-.125.067-.284.248a2.731,2.731,0,0,0-.5.865c-.031.131-.279.593.136.678a1.216,1.216,0,0,0,.8-.213c.45-.231.929-.478,1.408-.726l2.628-1.374a9.818,9.818,0,0,0,.871-.494,3.48,3.48,0,0,0,.32-.233,2.254,2.254,0,0,0,.222-.207,2.3,2.3,0,0,0,.313-.394,2.075,2.075,0,0,0,.172-.341.662.662,0,0,0-.045-.642.565.565,0,0,0-.44-.2,1.393,1.393,0,0,0-.44.078,7.977,7.977,0,0,0-.946.33,8.433,8.433,0,0,0-2.1,1.26,7.937,7.937,0,0,0-1.5,1.609,2.981,2.981,0,0,0-.464.833,12.254,12.254,0,0,1,2.16-2.188,8.351,8.351,0,0,1,2.062-1.108,3.215,3.215,0,0,1,1.261-.3c.035-.023-.064.285-.158.4a1.741,1.741,0,0,1-.249.3,1.862,1.862,0,0,1-.187.169,6.586,6.586,0,0,1-1.087.706l-2.574,1.473-1.37.8a3.123,3.123,0,0,1-.311.17.571.571,0,0,1-.245.059c-.171-.015-.084-.167-.043-.374A4.575,4.575,0,0,1,206.456,48.081Zm-7.706.8a10.709,10.709,0,0,0,4.244-3.424,2.307,2.307,0,0,0,.443-1.022,1.428,1.428,0,0,0-.186-.9,1.819,1.819,0,0,0-.374-.446,1.5,1.5,0,0,0-.16-.124,1.9,1.9,0,0,0-.173-.106,2.06,2.06,0,0,0-.53-.2,4.1,4.1,0,0,0-1.874.1,47.637,47.637,0,0,0-5.152,1.683,24.649,24.649,0,0,1-2.372.727c.066.09.132.179.2.267.756-.173,1.528-.384,2.291-.64a49.957,49.957,0,0,1,5.138-1.563,3.646,3.646,0,0,1,1.648-.073,1.355,1.355,0,0,1,.524.238,1.182,1.182,0,0,1,.389.4,1.215,1.215,0,0,1-.212,1.388,10.409,10.409,0,0,1-4,3.36,8.4,8.4,0,0,1-1.491.566c.146.079.3.142.449.216A8.331,8.331,0,0,0,198.75,48.883Zm-5.412-20.45a1.079,1.079,0,0,1-.051-.156q.243-.284.5-.552c-.018.118-.024.183-.024.183a.673.673,0,0,0,.035.293c.033.061.058.1.223.141a5.811,5.811,0,0,0,.606.1,5.589,5.589,0,0,0,5.551-3.074,13.152,13.152,0,0,0,.562-1.463s.006.011.007.028a.462.462,0,0,0,0-.065c0-.006-.006-.014-.007-.02.035-.008.069-.02.1-.027,0,.012.007.026.008.038a.455.455,0,0,1-.129.354c-.006.041-.012.082-.021.131a5.083,5.083,0,0,1-.34,1.111A5.778,5.778,0,0,1,198.05,28.1a6.037,6.037,0,0,1-3.463.823,6.222,6.222,0,0,1-.677-.09A.783.783,0,0,1,193.338,28.433ZM200.748,24l0,.037C200.748,24.03,200.746,24.016,200.748,24Zm3.115,2.254c-.257.306-.505.617-.735.944a1.993,1.993,0,0,0-.433,1.177,1.975,1.975,0,0,0,1.424,1.634,3.287,3.287,0,0,0,1.533.122A3.427,3.427,0,0,0,206.22,30a5.163,5.163,0,0,0,1.765-1.062,18.943,18.943,0,0,0,2.857-3.292c-.106-.067-.213-.131-.321-.195a19.153,19.153,0,0,1-2.849,3.116,4.6,4.6,0,0,1-1.615.932,2.978,2.978,0,0,1-.487.123,2.8,2.8,0,0,1-1.3-.073,1.539,1.539,0,0,1-1.142-1.192c-.029-.606.569-1.254,1.02-1.866a26.561,26.561,0,0,0,2.046-2.7c-.091-.018-.186-.026-.278-.042A31.411,31.411,0,0,1,203.863,26.258Zm2.5-.115c.241-.357.5-.738.753-1.119l.563-.854c-.1-.033-.212-.056-.317-.087l-.552.728-.808,1.086a3.028,3.028,0,0,0-.365.56.69.69,0,0,0,.12.778.9.9,0,0,0,1.077.092,1.216,1.216,0,0,0,.3-.236,2.58,2.58,0,0,0,.221-.268l.486-.684c.3-.425.664-.961,1.039-1.53-.129-.054-.266-.094-.4-.145-.376.515-.738,1-1.033,1.389-.209.271-.382.5-.5.656a1.958,1.958,0,0,1-.188.214c.014-.028-.3.407-.662.163-.052-.05-.079-.112-.029-.254A2.97,2.97,0,0,1,206.366,26.143Zm6.936,6.563a37.868,37.868,0,0,1-3.566,4.358,11.208,11.208,0,0,0-1.113,1.551,4.33,4.33,0,0,0-.319.676,2.909,2.909,0,0,0-.178.744,2.386,2.386,0,0,0,.6,1.931,1.854,1.854,0,0,0,1.282.541,3.274,3.274,0,0,0,1.442-.341,17.212,17.212,0,0,0,2.565-1.677,32.934,32.934,0,0,0,3.149-2.7c.006-.122.016-.242.019-.364a35.907,35.907,0,0,1-3.389,2.768,17.486,17.486,0,0,1-2.522,1.578,2.867,2.867,0,0,1-1.246.277,1.382,1.382,0,0,1-.952-.417,1.9,1.9,0,0,1-.435-1.528,2.561,2.561,0,0,1,.161-.627,3.8,3.8,0,0,1,.276-.606,10.778,10.778,0,0,1,1.037-1.494,36.86,36.86,0,0,0,3.506-4.467A18.756,18.756,0,0,0,215.1,29.92c-.063-.1-.119-.206-.185-.3A19.075,19.075,0,0,1,213.3,32.706Zm-19.7,4.228a2.039,2.039,0,0,0,.4-.649,1.515,1.515,0,0,0,.078-.288,1,1,0,0,0,.006-.322,1.025,1.025,0,0,0-.117-.372.669.669,0,0,0-.468-.343,1.083,1.083,0,0,0-.554.094l-.475.182c-.327.133-.67.289-1.005.46a11.155,11.155,0,0,0-1.45.876c0,.1-.013.192-.015.289a14.047,14.047,0,0,1,1.625-.828c.335-.145.675-.276,1-.388a2.755,2.755,0,0,1,.789-.207c.094.013.153.172.159.29a.561.561,0,0,1-.014.184,1.3,1.3,0,0,1-.324.709,5.285,5.285,0,0,1-1.561,1.149c-.561.323-1.134.609-1.6.837.008.078.025.152.035.229a17.477,17.477,0,0,0,1.743-.735A5.438,5.438,0,0,0,193.6,36.934Zm-2.24-2.725c1.218-.4,2.447-.751,3.374-1,.484-.158.711-.1.858.047a.726.726,0,0,1,.183.273.85.85,0,0,1,.084.334,1.952,1.952,0,0,1-.279.977,22.375,22.375,0,0,1-1.857,2.95,8.294,8.294,0,0,1-2.59,2.269,6.306,6.306,0,0,1-.745.338c.011.044.023.088.034.132a5,5,0,0,0,.8-.286,8.113,8.113,0,0,0,2.789-2.218,21.651,21.651,0,0,0,2-2.956,2.435,2.435,0,0,0,.366-1.231,1.306,1.306,0,0,0-.117-.52,1.132,1.132,0,0,0-.319-.445,1.026,1.026,0,0,0-.608-.261,2.078,2.078,0,0,0-.73.129c-.926.277-2.153.672-3.362,1.115-.313.114-.625.231-.93.349-.028.127-.055.253-.079.381C190.6,34.459,190.981,34.332,191.363,34.209Zm6.993,7.3c1.716-.27,3.482-.143,4.824-.505a5.311,5.311,0,0,0,2.037-1.027,11.151,11.151,0,0,0,1.549-1.617c.838-1.022,1.918-2.411,2.945-3.84s2-2.895,2.694-4.015c.346-.561.627-1.033.817-1.368a2.682,2.682,0,0,0,.273-.54,2.771,2.771,0,0,0-.364.484c-.217.317-.526.769-.9,1.311-.746,1.083-1.759,2.514-2.822,3.906s-2.166,2.753-3.017,3.75a10.657,10.657,0,0,1-1.509,1.519,4.738,4.738,0,0,1-.462.346,4.641,4.641,0,0,1-1.369.622c-1.213.363-3.007.286-4.754.606a22.107,22.107,0,0,0-4.667,1.318c-.612.251-1.108.49-1.45.666a2.664,2.664,0,0,0-.522.309,2.832,2.832,0,0,0,.566-.212c.356-.144.862-.352,1.479-.571A23.938,23.938,0,0,1,198.356,41.506Zm-5.566-.1a10.765,10.765,0,0,0,3.914-3.345c.549-.772,1.005-1.59,1.481-2.31a8.243,8.243,0,0,1,1.492-1.774,6.471,6.471,0,0,1,1.351-.9,5.686,5.686,0,0,1,.563-.252s.205-.09.58-.209a6.632,6.632,0,0,1,1.6-.281c.67-.047,1.467.094,2.37.115a4.161,4.161,0,0,0,2.677-.864,8.994,8.994,0,0,0,1.891-2.039A23.191,23.191,0,0,0,212,27.52c.149-.265.279-.509.4-.737-.042-.036-.08-.076-.123-.112-.133.228-.281.475-.449.744-.369.59-.824,1.263-1.351,1.954a8.875,8.875,0,0,1-1.872,1.912,3.763,3.763,0,0,1-2.449.729c-.844-.036-1.666-.2-2.4-.163a7.049,7.049,0,0,0-1.727.271c-.406.121-.629.215-.629.215a5.926,5.926,0,0,0-.6.281,6.985,6.985,0,0,0-1.437,1,8.611,8.611,0,0,0-1.537,1.9c-.472.748-.907,1.573-1.421,2.335a10.881,10.881,0,0,1-3.7,3.376,12.309,12.309,0,0,1-1.793.808c.01.024.018.049.027.073.082-.02.174-.044.28-.075A9.34,9.34,0,0,0,192.79,41.4Zm11.047-6.175c-.293.185-.391.261-.525.357-.25.182-.41.315-.392.346s.213-.041.495-.169c.131-.058.344-.164.382-.17.086-.074.087.093.064.136a1.121,1.121,0,0,1-.247.362,2.175,2.175,0,0,1-.37.292c-.233.142-.445.222-.435.225l-.436.255c-.093.053-.079.051-.089.061l-.043.037c-.025.017-.138.121-.116.055a.362.362,0,0,1,.045-.167,2.353,2.353,0,0,1,.267-.37c.193-.226.354-.355.333-.388s-.219.042-.475.239a2.149,2.149,0,0,0-.418.422,3.229,3.229,0,0,0-.415.795c-.268.464.168.162.349.137l.791-.392.469-.227.123-.072a2.654,2.654,0,0,0,.329-.212,2.485,2.485,0,0,0,.418-.4,1.235,1.235,0,0,0,.3-.685.78.78,0,0,0-.1-.433C204.1,35.061,203.948,35.186,203.837,35.227Zm1.882-2.1a1.027,1.027,0,0,1,.806,1.018,2.238,2.238,0,0,1-.323,1.1,8.262,8.262,0,0,1-.514.818,7.388,7.388,0,0,1-.953,1.086,4.458,4.458,0,0,1-.411.363,7.613,7.613,0,0,1-1.7,1.032,7.818,7.818,0,0,1-1.946.588,8.166,8.166,0,0,1-1.143.1l-.593-.02a.836.836,0,0,1-.653-.307.655.655,0,0,1,.052-.742,1.788,1.788,0,0,1,.449-.445l.756-.545a2.269,2.269,0,0,1,.359-.387c.242-.237.6-.561,1.054-.929a21.829,21.829,0,0,1,3.562-2.352A2.114,2.114,0,0,1,205.719,33.128Zm-.065.4a1.877,1.877,0,0,0-.963.309,24.333,24.333,0,0,0-3.606,2.182c-.477.348-.86.65-1.125.859l1.348-.962,1.151-.8a2.17,2.17,0,0,1,.457-.276,2.1,2.1,0,0,1-.393.361l-1.092.878L199.873,37.3l-.881.685c-.273.193-.534.561-.394.706.1.173.582.125.93.133A8.064,8.064,0,0,0,200.6,38.7a7.452,7.452,0,0,0,1.819-.6,7.238,7.238,0,0,0,1.571-1,4.259,4.259,0,0,0,.391-.332,6.951,6.951,0,0,0,.913-.995,3.42,3.42,0,0,0,.791-1.621A.617.617,0,0,0,205.654,33.529Z"/>
      <path id="Path_1171" data-name="Path 1171" class="cls-5" d="M198.018,30.307a13.515,13.515,0,0,0-7.148,2.045,13.584,13.584,0,0,0,19.867,16.356,13.577,13.577,0,0,0-12.719-18.4Z"/>
      <path id="Path_1172" data-name="Path 1172" class="cls-6" d="M202.159,25.812A13.136,13.136,0,0,1,214.005,44.67a13.15,13.15,0,1,0-22.664-13.181A13.137,13.137,0,0,1,202.159,25.812Z"/>
      <path id="Path_1173" data-name="Path 1173" class="cls-7" d="M191.8,34.047a12.365,12.365,0,0,0,2.936,11.946c5.163,5.366,12.662,3.363,14.025.973s-3.192-6.541-7.748-6.136-3.341-6.479-5.67-8S192.21,33.136,191.8,34.047Z"/>
      <g id="Group_456" data-name="Group 456">
        <path id="Path_1174" data-name="Path 1174" class="cls-8" d="M198.046,28.115c.321-.715,2.725-4.623,9.388-2.392s8.074,10.071,6.468,12.311-4.482,1.2-6.317-2.1-6.714-2.6-8.432-4.464S197.711,28.859,198.046,28.115Z"/>
        <path id="Path_1175" data-name="Path 1175" class="cls-9" d="M207.915,28.173c-.222.8-1.6,1.115-3.084.7s-2.5-1.393-2.28-2.193,1.6-1.115,3.084-.7S208.137,27.373,207.915,28.173Z"/>
        <path id="Path_1176" data-name="Path 1176" class="cls-10" d="M211.326,30.213c-.295.351-1.06.193-1.71-.352s-.937-1.272-.643-1.623,1.06-.193,1.709.352S211.62,29.862,211.326,30.213Z"/>
      </g>
    </g>
  </g>
</svg>
