<svg xmlns="http://www.w3.org/2000/svg" xmlns:xlink="http://www.w3.org/1999/xlink" viewBox="0 0 54 54">
  <defs>
    <style>
      .cls-1 {
        clip-path: url(#clip-iPhone_6_7_8_3);
      }

      .cls-2 {
        fill: url(#radial-gradient);
      }

      .cls-3 {
        fill: url(#radial-gradient-2);
      }

      .cls-4 {
        fill: #e0a326;
      }

      .cls-5, .cls-7 {
        opacity: 0.34;
      }

      .cls-5 {
        fill: url(#radial-gradient-3);
      }

      .cls-6, .cls-8 {
        opacity: 0.45;
      }

      .cls-6 {
        fill: url(#radial-gradient-4);
      }

      .cls-7 {
        fill: url(#radial-gradient-5);
      }

      .cls-8 {
        fill: url(#radial-gradient-6);
      }

      .cls-9 {
        fill: url(#radial-gradient-7);
      }

      .cls-10 {
        fill: url(#radial-gradient-8);
      }
    </style>
    <radialGradient id="radial-gradient" cx="26.04" cy="25.588" r="26.427" gradientUnits="userSpaceOnUse">
      <stop offset="0" stop-color="#8ee1ee"/>
      <stop offset="0.617" stop-color="#5e8dec"/>
      <stop offset="0.697" stop-color="#5e8ceb" stop-opacity="0.988"/>
      <stop offset="0.75" stop-color="#5f89e8" stop-opacity="0.953"/>
      <stop offset="0.796" stop-color="#6085e4" stop-opacity="0.886"/>
      <stop offset="0.836" stop-color="#627edf" stop-opacity="0.796"/>
      <stop offset="0.874" stop-color="#6576d7" stop-opacity="0.682"/>
      <stop offset="0.909" stop-color="#686cce" stop-opacity="0.537"/>
      <stop offset="0.943" stop-color="#6b60c3" stop-opacity="0.369"/>
      <stop offset="0.975" stop-color="#7052b7" stop-opacity="0.176"/>
      <stop offset="1" stop-color="#7446ac" stop-opacity="0"/>
    </radialGradient>
    <radialGradient id="radial-gradient-2" cx="18.574" cy="12.77" r="42.081" gradientUnits="userSpaceOnUse">
      <stop offset="0" stop-color="#8ee1ee"/>
      <stop offset="0.617" stop-color="#5e8dec"/>
      <stop offset="0.63" stop-color="#5f88e7"/>
      <stop offset="0.745" stop-color="#6a64c7"/>
      <stop offset="0.839" stop-color="#714eb3"/>
      <stop offset="0.898" stop-color="#7446ac"/>
    </radialGradient>
    <radialGradient id="radial-gradient-3" cx="61.573" cy="64.635" r="34.265" gradientTransform="translate(0.5 0.153) scale(0.945 0.945)" gradientUnits="userSpaceOnUse">
      <stop offset="0.059" stop-color="#66b0d8"/>
      <stop offset="1" stop-color="#3f1f7d"/>
    </radialGradient>
    <radialGradient id="radial-gradient-4" cx="52.84" cy="43.158" r="42.153" gradientTransform="translate(-0.303 -1.443) scale(0.825 0.825)" gradientUnits="userSpaceOnUse">
      <stop offset="0.052" stop-color="#e0a326"/>
      <stop offset="0.414" stop-color="#dfa227" stop-opacity="0.992"/>
      <stop offset="0.545" stop-color="#df9e2b" stop-opacity="0.961"/>
      <stop offset="0.638" stop-color="#de9832" stop-opacity="0.91"/>
      <stop offset="0.714" stop-color="#dc8f3d" stop-opacity="0.831"/>
      <stop offset="0.778" stop-color="#da834b" stop-opacity="0.733"/>
      <stop offset="0.835" stop-color="#d8755c" stop-opacity="0.612"/>
      <stop offset="0.887" stop-color="#d56471" stop-opacity="0.467"/>
      <stop offset="0.934" stop-color="#d25089" stop-opacity="0.302"/>
      <stop offset="0.977" stop-color="#ce3aa3" stop-opacity="0.118"/>
      <stop offset="1" stop-color="#cc2db4" stop-opacity="0"/>
    </radialGradient>
    <radialGradient id="radial-gradient-5" cx="63.605" cy="69.227" r="27.693" gradientTransform="translate(0.266 0.124) scale(0.97 0.97)" xlink:href="#radial-gradient-3"/>
    <radialGradient id="radial-gradient-6" cx="-50.545" cy="56.892" r="62.347" gradientTransform="matrix(0.388, 0.755, -0.662, 0.341, -67.039, 87.503)" xlink:href="#radial-gradient-4"/>
    <radialGradient id="radial-gradient-7" cx="-6.821" cy="15.532" r="21.634" gradientTransform="matrix(0.579, 0.161, -0.161, 0.579, -36.732, -4.421)" xlink:href="#radial-gradient-4"/>
    <radialGradient id="radial-gradient-8" cx="-72.504" cy="76.403" r="7.886" gradientTransform="matrix(0.696, 0.584, -0.584, 0.696, -35.289, 88.287)" xlink:href="#radial-gradient-4"/>
    <clipPath id="clip-iPhone_6_7_8_3">
      <rect width="54" height="54"/>
    </clipPath>
  </defs>
  <g id="iPhone_6_7_8_3" data-name="iPhone 6/7/8 – 3" class="cls-1">
    <g id="Symbol_4_2" data-name="Symbol 4 – 2" transform="translate(-49.292 -47.306)">
      <circle id="Ellipse_64" data-name="Ellipse 64" class="cls-2" cx="25.944" cy="25.944" r="25.944" transform="translate(49.292 47.306)"/>
      <circle id="Ellipse_65" data-name="Ellipse 65" class="cls-3" cx="22.637" cy="22.637" r="22.637" transform="translate(52.598 50.613)"/>
      <path id="Path_1142" data-name="Path 1142" class="cls-4" d="M89.076,75.336c-.195.474-.319.717.392.829a3.683,3.683,0,0,0,2.284-1.006,19.166,19.166,0,0,0,2.3-2.215L97.5,69.262c.03.169.052.34.078.509l-3.065,3.587A19.13,19.13,0,0,1,92.2,75.729a7.885,7.885,0,0,1-1.3.877,2.7,2.7,0,0,1-1.493.365,1.33,1.33,0,0,1-1.277-.844A1.616,1.616,0,0,1,88.288,75c.2-.465.33-.718.33-.718A16.512,16.512,0,0,1,90.167,71.9c1.023-1.347,2.487-2.987,3.766-4.782.729-1,1.407-2.02,2.015-2.985.08.183.16.364.235.549-.524.909-1.112,1.863-1.741,2.791-1.23,1.864-2.673,3.58-3.625,4.907a15.841,15.841,0,0,0-1.419,2.3S89.267,74.912,89.076,75.336ZM55.458,63.952a19.922,19.922,0,0,1,5.9-.749c1.079.026,2.182.15,3.249.1a6.184,6.184,0,0,0,2.873-.751,8.882,8.882,0,0,0,1.649-1.276l.545-.545a20.07,20.07,0,0,0,1.79-2.147,24.1,24.1,0,0,0,2.951-5.358,22.2,22.2,0,0,0,.846-2.616h-.023c-.176,0-.347.022-.523.026a23.163,23.163,0,0,1-.873,2.353A24.175,24.175,0,0,1,70.815,58.1a19.77,19.77,0,0,1-1.776,2.026l-.511.536a8.158,8.158,0,0,1-1.461,1.2,5.461,5.461,0,0,1-2.5.722c-.993.075-2.085-.01-3.2,0a18.894,18.894,0,0,0-6.005,1.044c-.268.094-.491.187-.721.28-.054.119-.118.232-.17.352C54.762,64.159,55.093,64.055,55.458,63.952ZM69.219,89.881c.319-.274.5-.445.5-.445a2.121,2.121,0,0,0,.427-.658A1.106,1.106,0,0,0,70,87.688a1.944,1.944,0,0,0-.995-.587,8.643,8.643,0,0,0-5.131.217c-1.77.546-3.415,1.285-4.724,1.62l-.173.044c.09.093.171.195.262.286,1.362-.242,3.08-.9,4.8-1.352a8.083,8.083,0,0,1,4.705-.05,1.219,1.219,0,0,1,.591.332.248.248,0,0,1,.009.267,1.4,1.4,0,0,1-.267.372s-.147.142-.423.394a6.126,6.126,0,0,1-1.264.9,15.87,15.87,0,0,1-4.618,1.513l-.548.113c.237.167.476.329.72.487a15.91,15.91,0,0,0,4.832-1.4A6.944,6.944,0,0,0,69.219,89.881ZM63.866,53.91c-.243.451-.282.791-.232.806.091.041.683-1.14,1.834-1.585a3.526,3.526,0,0,1,1.555-.306c.09,0,.241.022.25.024a.012.012,0,0,1,0,.012l-.006.008h0a.027.027,0,0,1,.019,0l.008.012s.009,0-.084.119a7.026,7.026,0,0,1-1.139,1.1c-.9.719-2,1.083-1.969,1.194a4,4,0,0,0,2.3-.7A6.84,6.84,0,0,0,67.8,53.529a4.22,4.22,0,0,0,.334-.371l.314-.392.343-.443-.48-.131s-.151-.042-.413-.09c-.129-.021-.279-.06-.459-.081a22.57,22.57,0,0,0-3.347,1.541A2.907,2.907,0,0,0,63.866,53.91Zm32.07,28.478a19.448,19.448,0,0,1-4.955,1,28.337,28.337,0,0,0-5.582.932,15.482,15.482,0,0,0-2.43.939,15.289,15.289,0,0,0-2.229,1.346A17.337,17.337,0,0,0,76.691,90.6,54.608,54.608,0,0,1,73.4,95.1c-.218.245-.428.455-.627.643.122.014.245.023.368.034.166-.14.327-.269.5-.439a43.061,43.061,0,0,0,3.538-4.362A17.133,17.133,0,0,1,81.2,87.274a14.86,14.86,0,0,1,2.159-1.224,15.056,15.056,0,0,1,2.289-.957,29.113,29.113,0,0,1,5.414-1.086,19.985,19.985,0,0,0,4.629-1.1C95.769,82.731,95.859,82.563,95.936,82.388ZM80,91.442c-.019-.019-.209.111-.473.413a4.544,4.544,0,0,0-.837,1.438c-.052.219-.465.987.226,1.128a2.028,2.028,0,0,0,1.332-.353L82.6,92.86l4.373-2.286a16.522,16.522,0,0,0,1.448-.822,5.719,5.719,0,0,0,.532-.388,3.745,3.745,0,0,0,.371-.345,3.873,3.873,0,0,0,.52-.656,3.426,3.426,0,0,0,.286-.567,1.1,1.1,0,0,0-.074-1.067.941.941,0,0,0-.733-.339,2.262,2.262,0,0,0-.731.129,13.166,13.166,0,0,0-1.574.549,13.986,13.986,0,0,0-3.492,2.1,13.291,13.291,0,0,0-2.5,2.677,5,5,0,0,0-.772,1.387,20.317,20.317,0,0,1,3.6-3.641,13.859,13.859,0,0,1,3.43-1.844,5.347,5.347,0,0,1,2.1-.5c.058-.038-.106.475-.263.663a2.965,2.965,0,0,1-.414.5,2.839,2.839,0,0,1-.312.28,11.011,11.011,0,0,1-1.809,1.176L82.3,92.316l-2.28,1.322a5.1,5.1,0,0,1-.516.283.931.931,0,0,1-.409.1c-.283-.023-.139-.276-.071-.621A7.588,7.588,0,0,1,80,91.442ZM67.183,92.776a17.833,17.833,0,0,0,7.062-5.7,3.844,3.844,0,0,0,.737-1.7,2.383,2.383,0,0,0-.31-1.5,2.958,2.958,0,0,0-.623-.741,2.544,2.544,0,0,0-.266-.208,3.22,3.22,0,0,0-.287-.175,3.374,3.374,0,0,0-.882-.335,6.833,6.833,0,0,0-3.118.168,79.3,79.3,0,0,0-8.573,2.8c-1.32.479-2.652.881-3.945,1.209.11.149.22.3.332.444,1.258-.289,2.543-.639,3.812-1.065a83.009,83.009,0,0,1,8.548-2.6,6.045,6.045,0,0,1,2.743-.121,2.244,2.244,0,0,1,.871.4,1.963,1.963,0,0,1,.648.664,2.025,2.025,0,0,1-.353,2.31,17.33,17.33,0,0,1-6.656,5.59,13.965,13.965,0,0,1-2.48.942c.242.131.5.237.747.36A13.825,13.825,0,0,0,67.183,92.776Zm-9-34.024a2.085,2.085,0,0,1-.084-.26q.4-.471.833-.918c-.03.2-.039.3-.039.3a1.116,1.116,0,0,0,.058.489c.055.1.1.164.371.234a9.886,9.886,0,0,0,1.008.16,9.288,9.288,0,0,0,9.235-5.114,22.224,22.224,0,0,0,.937-2.434s.009.019.011.046a.744.744,0,0,0,0-.106c0-.011-.01-.024-.012-.035.059-.013.115-.033.175-.045,0,.02.013.044.013.064a.749.749,0,0,1-.215.588c-.01.069-.019.137-.034.218a8.4,8.4,0,0,1-.567,1.849A9.605,9.605,0,0,1,66.018,58.2a10.029,10.029,0,0,1-5.761,1.369,10.6,10.6,0,0,1-1.126-.149A1.309,1.309,0,0,1,58.178,58.752Zm12.329-7.369c0,.02,0,.04,0,.062A.606.606,0,0,0,70.507,51.383Zm5.183,3.751c-.427.508-.84,1.025-1.223,1.569a2.828,2.828,0,0,0,1.649,4.678,5.479,5.479,0,0,0,2.551.2,5.767,5.767,0,0,0,.944-.22A8.582,8.582,0,0,0,82.548,59.6,31.478,31.478,0,0,0,87.3,54.12c-.176-.111-.355-.218-.535-.324a31.739,31.739,0,0,1-4.74,5.183A7.643,7.643,0,0,1,79.34,60.53a4.941,4.941,0,0,1-.81.205,4.653,4.653,0,0,1-2.156-.121,2.564,2.564,0,0,1-1.9-1.983c-.047-1.008.947-2.088,1.7-3.1a44.276,44.276,0,0,0,3.4-4.487c-.153-.03-.31-.044-.463-.071A52.53,52.53,0,0,1,75.69,55.134Zm4.165-.192,1.252-1.861.938-1.422c-.173-.055-.353-.094-.528-.144L80.6,52.726l-1.344,1.807a5.043,5.043,0,0,0-.607.931,1.146,1.146,0,0,0,.2,1.295,1.5,1.5,0,0,0,1.791.153,2.067,2.067,0,0,0,.5-.392,4.52,4.52,0,0,0,.368-.446c.195-.275.473-.668.808-1.139.5-.707,1.1-1.6,1.729-2.545-.216-.091-.443-.157-.662-.242-.626.856-1.229,1.664-1.72,2.311l-.838,1.092a3.5,3.5,0,0,1-.312.356c.023-.047-.5.677-1.1.271-.087-.083-.132-.187-.048-.422A4.829,4.829,0,0,1,79.855,54.942Zm11.54,10.92c-1.8,2.892-4.264,5.247-5.933,7.251a18.577,18.577,0,0,0-1.852,2.579,7.15,7.15,0,0,0-.531,1.125,4.9,4.9,0,0,0-.3,1.238,3.971,3.971,0,0,0,1,3.213,3.084,3.084,0,0,0,2.133.9,5.465,5.465,0,0,0,2.4-.567,28.738,28.738,0,0,0,4.266-2.79,54.971,54.971,0,0,0,5.241-4.5c.009-.2.026-.4.03-.606a59.29,59.29,0,0,1-5.638,4.6,29,29,0,0,1-4.195,2.626,4.772,4.772,0,0,1-2.073.461,2.3,2.3,0,0,1-1.584-.694,3.164,3.164,0,0,1-.724-2.543,4.222,4.222,0,0,1,.268-1.043,6.39,6.39,0,0,1,.458-1.009,18.047,18.047,0,0,1,1.727-2.485c1.577-1.966,4.064-4.438,5.832-7.432a31.054,31.054,0,0,0,2.471-4.966c-.106-.167-.2-.342-.308-.506A31.8,31.8,0,0,1,91.395,65.862ZM58.62,72.9a3.413,3.413,0,0,0,.657-1.079,2.553,2.553,0,0,0,.129-.48,1.65,1.65,0,0,0,.011-.536,1.682,1.682,0,0,0-.195-.62,1.108,1.108,0,0,0-.778-.569,1.813,1.813,0,0,0-.922.155l-.791.3c-.544.222-1.115.481-1.671.766a18.446,18.446,0,0,0-2.413,1.458c-.007.16-.021.319-.025.48a23.483,23.483,0,0,1,2.7-1.377c.558-.242,1.124-.46,1.662-.646a4.569,4.569,0,0,1,1.312-.344c.156.022.254.286.263.482a.978.978,0,0,1-.021.307A2.174,2.174,0,0,1,58,72.375a8.776,8.776,0,0,1-2.6,1.912c-.934.537-1.887,1.012-2.671,1.393.014.129.042.253.058.381a28.777,28.777,0,0,0,2.9-1.224A9.077,9.077,0,0,0,58.62,72.9Zm-3.726-4.534c2.025-.659,4.071-1.25,5.612-1.664.806-.262,1.184-.172,1.428.078a1.213,1.213,0,0,1,.3.454,1.391,1.391,0,0,1,.14.556,3.246,3.246,0,0,1-.463,1.626,37.256,37.256,0,0,1-3.091,4.908A13.79,13.79,0,0,1,54.516,78.1a10.456,10.456,0,0,1-1.24.562c.018.074.037.147.056.22a8.355,8.355,0,0,0,1.335-.476,13.47,13.47,0,0,0,4.64-3.691,35.778,35.778,0,0,0,3.321-4.918,4.021,4.021,0,0,0,.608-2.046,2.158,2.158,0,0,0-.193-.866,1.889,1.889,0,0,0-.532-.74,1.7,1.7,0,0,0-1.012-.434,3.41,3.41,0,0,0-1.214.214c-1.541.461-3.582,1.118-5.593,1.855-.521.19-1.039.385-1.548.581-.047.21-.091.42-.132.633C53.63,68.778,54.257,68.567,54.894,68.362ZM66.528,80.5c2.855-.45,5.793-.239,8.025-.841a8.536,8.536,0,0,0,2.54-1.1,8.65,8.65,0,0,0,.849-.612,18.562,18.562,0,0,0,2.578-2.691c1.394-1.7,3.192-4.011,4.9-6.389s3.325-4.817,4.482-6.68c.576-.933,1.043-1.718,1.359-2.275a4.542,4.542,0,0,0,.456-.9,4.534,4.534,0,0,0-.606.805c-.361.527-.877,1.279-1.5,2.182-1.242,1.8-2.926,4.182-4.695,6.5s-3.6,4.58-5.02,6.239a17.713,17.713,0,0,1-2.51,2.528,8.175,8.175,0,0,1-.768.575,7.737,7.737,0,0,1-2.28,1.035c-2.016.6-5,.476-7.909,1.008a36.748,36.748,0,0,0-7.764,2.193c-1.018.418-1.844.816-2.413,1.109a4.413,4.413,0,0,0-.868.514,4.74,4.74,0,0,0,.942-.354c.591-.239,1.434-.585,2.461-.95A39.787,39.787,0,0,1,66.528,80.5Zm-9.261-.173a17.9,17.9,0,0,0,6.512-5.565c.914-1.284,1.672-2.647,2.465-3.845a13.708,13.708,0,0,1,2.481-2.951,10.849,10.849,0,0,1,2.248-1.5,9.44,9.44,0,0,1,.937-.418s.342-.151.965-.348a10.963,10.963,0,0,1,2.659-.467c1.115-.079,2.44.155,3.943.19a6.921,6.921,0,0,0,4.455-1.437A14.969,14.969,0,0,0,87.077,60.6a38,38,0,0,0,2.148-3.369c.248-.44.464-.847.658-1.225-.071-.06-.135-.127-.206-.186-.221.378-.467.79-.746,1.236-.615.983-1.371,2.1-2.249,3.253a14.766,14.766,0,0,1-3.113,3.18A6.262,6.262,0,0,1,79.493,64.7c-1.4-.059-2.771-.327-3.99-.27a11.706,11.706,0,0,0-2.873.452,11.048,11.048,0,0,0-1.047.357,10.172,10.172,0,0,0-1,.467,11.631,11.631,0,0,0-2.391,1.655,14.384,14.384,0,0,0-2.558,3.163c-.785,1.246-1.508,2.618-2.363,3.885a18.1,18.1,0,0,1-6.161,5.617,20.181,20.181,0,0,1-2.983,1.344c.016.04.029.082.045.122.135-.033.288-.074.465-.125A15.357,15.357,0,0,0,57.267,80.33Zm18.38-10.274c-.488.308-.65.433-.874.593-.416.3-.681.524-.651.576s.354-.069.823-.28c.218-.1.573-.274.635-.284.144-.122.144.155.108.227a1.883,1.883,0,0,1-.413.6,3.5,3.5,0,0,1-.615.485c-.387.237-.74.371-.724.375l-.725.425c-.154.088-.132.084-.148.1l-.071.063c-.042.028-.23.2-.193.09a.614.614,0,0,1,.074-.277,4.069,4.069,0,0,1,.444-.616c.321-.376.59-.59.555-.645s-.365.069-.79.4a3.587,3.587,0,0,0-.7.7,5.371,5.371,0,0,0-.691,1.322c-.446.773.28.27.582.228l1.316-.653.779-.376.205-.12a4.454,4.454,0,0,0,.547-.354,4.02,4.02,0,0,0,.695-.665,2.039,2.039,0,0,0,.5-1.139,1.309,1.309,0,0,0-.171-.722C76.079,69.779,75.832,69.988,75.647,70.056Zm3.131-3.493a1.711,1.711,0,0,1,1.341,1.694,3.709,3.709,0,0,1-.538,1.832,13.5,13.5,0,0,1-.855,1.361,12.365,12.365,0,0,1-1.584,1.807,7.479,7.479,0,0,1-.685.6,12.709,12.709,0,0,1-2.826,1.717,13.038,13.038,0,0,1-3.238.978,13.812,13.812,0,0,1-1.9.165l-.986-.034a1.385,1.385,0,0,1-1.086-.51,1.09,1.09,0,0,1,.085-1.235,3,3,0,0,1,.747-.74l1.259-.907a3.847,3.847,0,0,1,.6-.644c.4-.4,1-.933,1.754-1.546a36.466,36.466,0,0,1,5.927-3.914A3.525,3.525,0,0,1,78.778,66.563Zm-.107.668a3.12,3.12,0,0,0-1.6.513,40.538,40.538,0,0,0-6,3.632c-.793.578-1.43,1.08-1.872,1.428l2.244-1.6,1.914-1.329a3.562,3.562,0,0,1,.761-.458,3.565,3.565,0,0,1-.655.6l-1.816,1.461c-.758.6-1.643,1.288-2.592,2.031l-1.466,1.14c-.455.322-.888.933-.656,1.175.174.288.969.207,1.547.221a13.38,13.38,0,0,0,1.79-.206,12.4,12.4,0,0,0,3.025-.994,12.11,12.11,0,0,0,2.615-1.667,7.019,7.019,0,0,0,.651-.551,11.706,11.706,0,0,0,1.517-1.656,5.684,5.684,0,0,0,1.317-2.7A1.025,1.025,0,0,0,78.671,67.231Z"/>
      <path id="Path_1143" data-name="Path 1143" class="cls-5" d="M65.965,61.87a22.492,22.492,0,0,0-11.893,3.4A22.6,22.6,0,0,0,87.128,92.485,22.589,22.589,0,0,0,65.965,61.87Z"/>
      <path id="Path_1144" data-name="Path 1144" class="cls-6" d="M72.855,54.391A21.853,21.853,0,0,1,92.564,85.767,21.879,21.879,0,1,0,54.856,63.836,21.859,21.859,0,0,1,72.855,54.391Z"/>
      <path id="Path_1145" data-name="Path 1145" class="cls-7" d="M55.628,68.092a20.575,20.575,0,0,0,4.885,19.876c8.591,8.928,21.068,5.6,23.335,1.619S78.536,78.7,70.957,79.378,65.4,68.6,61.524,66.071,56.3,66.577,55.628,68.092Z"/>
      <g id="Group_448" data-name="Group 448">
        <path id="Path_1146" data-name="Path 1146" class="cls-8" d="M66.011,58.223c.536-1.19,4.535-7.691,15.621-3.979S95.066,71,92.393,74.726s-7.458,2.005-10.51-3.485-11.171-4.323-14.03-7.428S65.454,59.462,66.011,58.223Z"/>
        <path id="Path_1147" data-name="Path 1147" class="cls-9" d="M82.432,58.319c-.37,1.331-2.667,1.855-5.132,1.17s-4.162-2.317-3.793-3.648,2.667-1.855,5.131-1.171S82.8,56.988,82.432,58.319Z"/>
        <path id="Path_1148" data-name="Path 1148" class="cls-10" d="M88.106,61.713c-.489.584-1.763.321-2.844-.586s-1.56-2.116-1.07-2.7,1.763-.322,2.844.586S88.6,61.129,88.106,61.713Z"/>
      </g>
    </g>
  </g>
</svg>
