<svg xmlns="http://www.w3.org/2000/svg" xmlns:xlink="http://www.w3.org/1999/xlink" viewBox="0 0 59 60">
  <defs>
    <style>
      .cls-1 {
        clip-path: url(#clip-iPhone_6_7_8_5);
      }

      .cls-2 {
        fill: url(#radial-gradient);
      }

      .cls-3 {
        fill: url(#radial-gradient-2);
      }

      .cls-4 {
        fill: url(#radial-gradient-3);
      }

      .cls-5 {
        opacity: 0.7;
      }

      .cls-6 {
        fill: url(#radial-gradient-4);
      }

      .cls-7 {
        fill: url(#radial-gradient-5);
      }

      .cls-8 {
        fill: url(#radial-gradient-6);
      }

      .cls-9 {
        fill: url(#radial-gradient-7);
      }

      .cls-10, .cls-11, .cls-12, .cls-13, .cls-14, .cls-15, .cls-16, .cls-17, .cls-18, .cls-19, .cls-20, .cls-21, .cls-22, .cls-23, .cls-24, .cls-25, .cls-26, .cls-27, .cls-28, .cls-29, .cls-30, .cls-31, .cls-32, .cls-33, .cls-34, .cls-35, .cls-36, .cls-37, .cls-38, .cls-39, .cls-40, .cls-41, .cls-42, .cls-43, .cls-44, .cls-45, .cls-46, .cls-47, .cls-48, .cls-49, .cls-50, .cls-51, .cls-52, .cls-53, .cls-54, .cls-55, .cls-56, .cls-57, .cls-58, .cls-59, .cls-60 {
        opacity: 0.5;
      }

      .cls-10 {
        fill: url(#radial-gradient-8);
      }

      .cls-11 {
        fill: url(#radial-gradient-9);
      }

      .cls-12 {
        fill: url(#radial-gradient-10);
      }

      .cls-13 {
        fill: url(#radial-gradient-11);
      }

      .cls-14 {
        fill: url(#radial-gradient-12);
      }

      .cls-15 {
        fill: url(#radial-gradient-13);
      }

      .cls-16 {
        fill: url(#radial-gradient-14);
      }

      .cls-17 {
        fill: url(#radial-gradient-15);
      }

      .cls-18 {
        fill: url(#radial-gradient-16);
      }

      .cls-19 {
        fill: url(#radial-gradient-17);
      }

      .cls-20 {
        fill: url(#radial-gradient-18);
      }

      .cls-21 {
        fill: url(#radial-gradient-19);
      }

      .cls-22 {
        fill: url(#radial-gradient-20);
      }

      .cls-23 {
        fill: url(#radial-gradient-21);
      }

      .cls-24 {
        fill: url(#radial-gradient-22);
      }

      .cls-25 {
        fill: url(#radial-gradient-23);
      }

      .cls-26 {
        fill: url(#radial-gradient-24);
      }

      .cls-27 {
        fill: url(#radial-gradient-25);
      }

      .cls-28 {
        fill: url(#radial-gradient-26);
      }

      .cls-29 {
        fill: url(#radial-gradient-27);
      }

      .cls-30 {
        fill: url(#radial-gradient-28);
      }

      .cls-31 {
        fill: url(#radial-gradient-29);
      }

      .cls-32 {
        fill: url(#radial-gradient-30);
      }

      .cls-33 {
        fill: url(#radial-gradient-31);
      }

      .cls-34 {
        fill: url(#radial-gradient-32);
      }

      .cls-35 {
        fill: url(#radial-gradient-33);
      }

      .cls-36 {
        fill: url(#radial-gradient-34);
      }

      .cls-37 {
        fill: url(#radial-gradient-35);
      }

      .cls-38 {
        fill: url(#radial-gradient-36);
      }

      .cls-39 {
        fill: url(#radial-gradient-37);
      }

      .cls-40 {
        fill: url(#radial-gradient-38);
      }

      .cls-41 {
        fill: url(#radial-gradient-39);
      }

      .cls-42 {
        fill: url(#radial-gradient-40);
      }

      .cls-43 {
        fill: url(#radial-gradient-41);
      }

      .cls-44 {
        fill: url(#radial-gradient-42);
      }

      .cls-45 {
        fill: url(#radial-gradient-43);
      }

      .cls-46 {
        fill: url(#radial-gradient-44);
      }

      .cls-47 {
        fill: url(#radial-gradient-45);
      }

      .cls-48 {
        fill: url(#radial-gradient-46);
      }

      .cls-49 {
        fill: url(#radial-gradient-47);
      }

      .cls-50 {
        fill: url(#radial-gradient-48);
      }

      .cls-51 {
        fill: url(#radial-gradient-49);
      }

      .cls-52 {
        fill: url(#radial-gradient-50);
      }

      .cls-53 {
        fill: url(#radial-gradient-51);
      }

      .cls-54 {
        fill: url(#radial-gradient-52);
      }

      .cls-55 {
        fill: url(#radial-gradient-53);
      }

      .cls-56 {
        fill: url(#radial-gradient-54);
      }

      .cls-57 {
        fill: url(#radial-gradient-55);
      }

      .cls-58 {
        fill: url(#radial-gradient-56);
      }

      .cls-59 {
        fill: url(#radial-gradient-57);
      }

      .cls-60 {
        fill: url(#radial-gradient-58);
      }
    </style>
    <radialGradient id="radial-gradient" cx="24.008" cy="23.988" r="24.443" gradientTransform="matrix(0.926, 0.377, -0.377, 0.926, 10.818, -7.283)" gradientUnits="userSpaceOnUse">
      <stop offset="0.059" stop-color="#fce085"/>
      <stop offset="0.411" stop-color="#fbdf85" stop-opacity="0.992"/>
      <stop offset="0.537" stop-color="#fbdc89" stop-opacity="0.965"/>
      <stop offset="0.627" stop-color="#fad88e" stop-opacity="0.918"/>
      <stop offset="0.7" stop-color="#f9d296" stop-opacity="0.851"/>
      <stop offset="0.763" stop-color="#f7cba1" stop-opacity="0.765"/>
      <stop offset="0.818" stop-color="#f5c1ae" stop-opacity="0.655"/>
      <stop offset="0.868" stop-color="#f3b6bd" stop-opacity="0.529"/>
      <stop offset="0.915" stop-color="#f0a9cf" stop-opacity="0.376"/>
      <stop offset="0.957" stop-color="#ec9ae4" stop-opacity="0.208"/>
      <stop offset="0.995" stop-color="#e98af9" stop-opacity="0.024"/>
      <stop offset="1" stop-color="#e988fd" stop-opacity="0"/>
    </radialGradient>
    <radialGradient id="radial-gradient-2" cx="30.713" cy="4.881" r="42.616" gradientTransform="matrix(0.926, 0.378, -0.378, 0.926, 4.118, -11.238)" gradientUnits="userSpaceOnUse">
      <stop offset="0.059" stop-color="#fce085"/>
      <stop offset="0.963" stop-color="#e988fd"/>
    </radialGradient>
    <radialGradient id="radial-gradient-3" cx="70.973" cy="106.66" r="89.583" gradientTransform="matrix(0.591, 0.16, -0.14, 0.518, -125.273, 80.709)" xlink:href="#radial-gradient-2"/>
    <radialGradient id="radial-gradient-4" cx="2313.833" cy="277.363" r="9.773" gradientTransform="translate(-4200.032 -507.539) scale(3.245 3.245)" xlink:href="#radial-gradient-2"/>
    <radialGradient id="radial-gradient-5" cx="-67.85" cy="-9.154" r="83.714" gradientTransform="translate(-280.718 -33.938) scale(0.379 0.379)" xlink:href="#radial-gradient-2"/>
    <radialGradient id="radial-gradient-6" cx="870.071" cy="96.499" r="21.194" gradientTransform="translate(-199.149 -23.303) scale(1.496 1.496)" xlink:href="#radial-gradient-2"/>
    <radialGradient id="radial-gradient-7" cx="1784.785" cy="199.093" r="13.414" gradientTransform="translate(-1622.007 -195.669) scale(2.364 2.364)" xlink:href="#radial-gradient-2"/>
    <radialGradient id="radial-gradient-8" cx="315.461" cy="39.154" r="43.179" gradientTransform="translate(-11.471 -1.566) scale(0.864 0.864)" xlink:href="#radial-gradient-2"/>
    <radialGradient id="radial-gradient-9" cx="87.893" cy="11.25" r="47.468" gradientTransform="translate(-129.582 -21.814) scale(0.578 0.578)" xlink:href="#radial-gradient-2"/>
    <radialGradient id="radial-gradient-10" cx="2.177" cy="-2.251" r="19.988" gradientTransform="translate(1.142 -1.181) scale(0.475 0.475)" xlink:href="#radial-gradient-2"/>
    <radialGradient id="radial-gradient-11" cx="-80.761" cy="-20.134" r="28.882" gradientTransform="translate(-287.941 -45.22) scale(0.329 0.329)" xlink:href="#radial-gradient-2"/>
    <radialGradient id="radial-gradient-12" cx="-1030.349" cy="1421.119" r="4.871" gradientTransform="matrix(-0.38, 1.912, -1.912, -0.38, 615.213, 4485.842)" xlink:href="#radial-gradient-2"/>
    <radialGradient id="radial-gradient-13" cx="-1281.132" cy="1957.079" r="3.466" gradientTransform="matrix(-0.534, 2.687, -2.687, -0.534, 2512.789, 7200.794)" xlink:href="#radial-gradient-2"/>
    <radialGradient id="radial-gradient-14" cx="-676.572" cy="58.509" r="19.826" gradientTransform="matrix(-0.478, 0.03, -0.03, -0.478, -1491.952, 67.954)" xlink:href="#radial-gradient-2"/>
    <radialGradient id="radial-gradient-15" cx="-518.626" cy="85.961" r="28.317" gradientTransform="matrix(-0.335, 0.021, -0.021, -0.335, -1123.7, 198.845)" xlink:href="#radial-gradient-2"/>
    <radialGradient id="radial-gradient-16" cx="-878.979" cy="-456.862" r="12.168" gradientTransform="matrix(-0.778, -0.52, 0.92, -1.375, -1742.364, -1823.263)" xlink:href="#radial-gradient-2"/>
    <radialGradient id="radial-gradient-17" cx="322.184" cy="47.157" r="16.318" gradientTransform="translate(-9.413 -2.154) scale(0.888 0.888)" xlink:href="#radial-gradient-2"/>
    <radialGradient id="radial-gradient-18" cx="256.918" cy="246.99" r="8.56" gradientTransform="matrix(0.833, 0.2, -0.353, 1.472, 36.586, -49.692)" xlink:href="#radial-gradient-2"/>
    <radialGradient id="radial-gradient-19" cx="-868.246" cy="155.453" r="12.467" gradientTransform="matrix(-0.702, 0.26, -0.26, -0.702, -2010.411, 511.567)" xlink:href="#radial-gradient-2"/>
    <radialGradient id="radial-gradient-20" cx="-1078.545" cy="311.095" r="9.528" gradientTransform="matrix(-0.749, 0.609, -1.077, -1.324, -2232.015, 1442.957)" xlink:href="#radial-gradient-2"/>
    <radialGradient id="radial-gradient-21" cx="-101.532" cy="-685.947" r="12.46" gradientTransform="matrix(0.276, -0.898, 0.898, 0.276, 274.464, -955.536)" xlink:href="#radial-gradient-2"/>
    <radialGradient id="radial-gradient-22" cx="207.652" cy="-674.872" r="6.172" gradientTransform="matrix(0.717, -0.979, 0.979, 0.717, 614.891, -364.134)" xlink:href="#radial-gradient-2"/>
    <radialGradient id="radial-gradient-23" cx="285.489" cy="-765.624" r="5.407" gradientTransform="matrix(0.818, -1.117, 1.117, 0.818, 837.865, -245.969)" xlink:href="#radial-gradient-2"/>
    <radialGradient id="radial-gradient-24" cx="-753.73" cy="-828.087" r="6.92" gradientTransform="matrix(-0.697, -1.183, 1.183, -0.697, -842.422, -2752.736)" xlink:href="#radial-gradient-2"/>
    <radialGradient id="radial-gradient-25" cx="-787.543" cy="-885.637" r="6.229" gradientTransform="matrix(-0.774, -1.314, 1.314, -0.774, -788.265, -3090.858)" xlink:href="#radial-gradient-2"/>
    <radialGradient id="radial-gradient-26" cx="53.748" cy="307.949" r="7.465" gradientTransform="matrix(0.624, 0.359, -0.359, 0.624, -44.913, 211.679)" xlink:href="#radial-gradient-2"/>
    <radialGradient id="radial-gradient-27" cx="-22.996" cy="236.424" r="9.02" gradientTransform="matrix(0.516, 0.297, -0.297, 0.516, -141.721, 200.994)" xlink:href="#radial-gradient-2"/>
    <radialGradient id="radial-gradient-28" cx="-628.097" cy="94.097" r="10.075" gradientTransform="matrix(-0.518, 0.13, -0.13, -0.518, -1421.173, 347.56)" xlink:href="#radial-gradient-2"/>
    <radialGradient id="radial-gradient-29" cx="-471.576" cy="7.256" r="13.293" gradientTransform="matrix(-0.392, 0.098, -0.098, -0.392, -1077.165, 507.351)" xlink:href="#radial-gradient-2"/>
    <radialGradient id="radial-gradient-30" cx="-360.361" cy="-1344.53" r="2.567" gradientTransform="matrix(-0.104, -2.091, 2.091, -0.104, 2067.525, -2900.115)" xlink:href="#radial-gradient-2"/>
    <radialGradient id="radial-gradient-31" cx="-360.538" cy="-1926.641" r="1.792" gradientTransform="matrix(-0.148, -2.996, 2.996, -0.148, 5015.069, -4179.308)" xlink:href="#radial-gradient-2"/>
    <radialGradient id="radial-gradient-32" cx="-605.412" cy="39.707" r="10.216" gradientTransform="matrix(-0.512, -0.12, 0.12, -0.512, -1485.528, 33.585)" xlink:href="#radial-gradient-2"/>
    <radialGradient id="radial-gradient-33" cx="-368.503" cy="-16.78" r="14.186" gradientTransform="matrix(-0.369, -0.086, 0.086, -0.369, -1220.586, 416.67)" xlink:href="#radial-gradient-2"/>
    <radialGradient id="radial-gradient-34" cx="-269.869" cy="1277.075" r="2.474" gradientTransform="matrix(0.595, 1.558, -1.558, 0.595, 1552.266, 1378.884)" xlink:href="#radial-gradient-2"/>
    <radialGradient id="radial-gradient-35" cx="-264.602" cy="1588.802" r="2.011" gradientTransform="matrix(0.732, 1.917, -1.917, 0.732, 2641.138, 1440.195)" xlink:href="#radial-gradient-2"/>
    <radialGradient id="radial-gradient-36" cx="-962.674" cy="387.031" r="3.662" gradientTransform="matrix(-0.718, 0.868, -0.868, -0.718, -1861.682, 1717.004)" xlink:href="#radial-gradient-2"/>
    <radialGradient id="radial-gradient-37" cx="-986.671" cy="361.228" r="3.312" gradientTransform="matrix(-0.794, 0.96, -0.96, -0.794, -1957.877, 1889.644)" xlink:href="#radial-gradient-2"/>
    <radialGradient id="radial-gradient-38" cx="-456.471" cy="-551.639" r="1.601" gradientTransform="matrix(-0.544, -1.67, 1.67, -0.544, -240.597, -2063.176)" xlink:href="#radial-gradient-2"/>
    <radialGradient id="radial-gradient-39" cx="-472.961" cy="-641.992" r="1.263" gradientTransform="matrix(-0.69, -2.117, 2.117, -0.69, 96.551, -2639.093)" xlink:href="#radial-gradient-2"/>
    <radialGradient id="radial-gradient-40" cx="186.964" cy="-303.532" r="3.039" gradientTransform="matrix(0.776, -0.504, 0.875, 1.348, 202.523, -5.856)" xlink:href="#radial-gradient-2"/>
    <radialGradient id="radial-gradient-41" cx="100.747" cy="-271.115" r="3.362" gradientTransform="matrix(0.702, -0.455, 0.791, 1.219, 102.051, -82.377)" xlink:href="#radial-gradient-2"/>
    <radialGradient id="radial-gradient-42" cx="144.446" cy="163.547" r="4.62" gradientTransform="matrix(0.566, 0.225, -0.225, 0.566, -64.04, 86.408)" xlink:href="#radial-gradient-2"/>
    <radialGradient id="radial-gradient-43" cx="119.934" cy="107.585" r="6" gradientTransform="matrix(0.436, 0.173, -0.173, 0.436, -74.441, 53.096)" xlink:href="#radial-gradient-2"/>
    <radialGradient id="radial-gradient-44" cx="-973.442" cy="528.509" r="1.817" gradientTransform="matrix(-0.353, 1.18, -1.933, -0.578, -277.065, 2095.556)" xlink:href="#radial-gradient-2"/>
    <radialGradient id="radial-gradient-45" cx="-1274.836" cy="562.637" r="1.304" gradientTransform="matrix(-0.491, 1.643, -2.692, -0.805, -68.335, 3163.433)" xlink:href="#radial-gradient-2"/>
    <radialGradient id="radial-gradient-46" cx="150.483" cy="-369.532" r="6.198" gradientTransform="matrix(0.678, -0.54, 0.54, 0.678, 121.724, -246.314)" xlink:href="#radial-gradient-2"/>
    <radialGradient id="radial-gradient-47" cx="133.224" cy="-352.829" r="6.319" gradientTransform="matrix(0.665, -0.53, 0.53, 0.665, 98.158, -247.845)" xlink:href="#radial-gradient-2"/>
    <radialGradient id="radial-gradient-48" cx="184.736" cy="-221.099" r="16.297" gradientTransform="matrix(0.664, -0.379, 0.315, 0.552, 3.023, -166.525)" xlink:href="#radial-gradient-2"/>
    <radialGradient id="radial-gradient-49" cx="191.534" cy="-167.555" r="16.301" gradientTransform="matrix(0.664, -0.378, 0.315, 0.552, -7.968, -106.679)" xlink:href="#radial-gradient-2"/>
    <radialGradient id="radial-gradient-50" cx="-318.89" cy="814.617" r="10.124" gradientTransform="matrix(0.617, 1.226, -1.019, 0.513, 513.658, 1014.193)" xlink:href="#radial-gradient-2"/>
    <radialGradient id="radial-gradient-51" cx="-549.384" cy="568.101" r="6.119" gradientTransform="matrix(0.617, 1.226, -1.019, 0.513, 442.432, 1056.708)" xlink:href="#radial-gradient-2"/>
    <radialGradient id="radial-gradient-52" cx="-1224.262" cy="-141.567" r="3.952" gradientTransform="matrix(0.206, 1.718, -1.428, 0.171, 74.702, 2613.938)" xlink:href="#radial-gradient-2"/>
    <radialGradient id="radial-gradient-53" cx="-971.228" cy="604.005" r="5.757" gradientTransform="matrix(0.206, 1.717, -1.427, 0.171, 297.744, 2543.523)" xlink:href="#radial-gradient-2"/>
    <radialGradient id="radial-gradient-54" cx="-1346.701" cy="-312.314" r="3.77" gradientTransform="matrix(0.206, 1.717, -1.427, 0.171, 50.817, 2873.431)" xlink:href="#radial-gradient-2"/>
    <radialGradient id="radial-gradient-55" cx="-38.04" cy="367.244" r="13.992" gradientTransform="matrix(0.697, 0.555, -0.461, 0.579, 13.281, 294.933)" xlink:href="#radial-gradient-2"/>
    <radialGradient id="radial-gradient-56" cx="-119.083" cy="259.329" r="13.988" gradientTransform="matrix(0.697, 0.555, -0.461, 0.579, 24.454, 288.658)" xlink:href="#radial-gradient-2"/>
    <radialGradient id="radial-gradient-57" cx="-118.199" cy="258.183" r="13.989" gradientTransform="matrix(0.697, 0.555, -0.461, 0.579, 25.786, 287.084)" xlink:href="#radial-gradient-2"/>
    <radialGradient id="radial-gradient-58" cx="-125.223" cy="-28.068" r="118.721" gradientTransform="translate(-348.548 -53.202) scale(0.305 0.305)" xlink:href="#radial-gradient-2"/>
    <clipPath id="clip-iPhone_6_7_8_5">
      <rect width="59" height="60"/>
    </clipPath>
  </defs>
  <g id="iPhone_6_7_8_5" data-name="iPhone 6/7/8 – 5" class="cls-1">
    <g id="Symbol_3_2" data-name="Symbol 3 – 2" transform="translate(-390.962 -34.568)">
      <circle id="Ellipse_79" data-name="Ellipse 79" class="cls-2" cx="24.175" cy="24.175" r="24.175" transform="translate(390.962 52.801) rotate(-22.154)"/>
      <circle id="Ellipse_80" data-name="Ellipse 80" class="cls-3" cx="21.645" cy="21.645" r="21.645" transform="matrix(0.926, -0.378, 0.378, 0.926, 394.253, 54.209)"/>
      <path id="Path_1190" data-name="Path 1190" class="cls-4" d="M405.773,63.334c-.975-1.855-.681-4.523-.088-6.323,1.255-3.81,4.523-6.55,7.92-8.445,10.619-5.922,22.289,1.409,23.282,6.074s-3.683,7.138-10.041,5.639S415.7,65.838,411.309,65.86a6.754,6.754,0,0,1-4.7-1.437A3.888,3.888,0,0,1,405.773,63.334Z"/>
      <g id="Group_462" data-name="Group 462" class="cls-5">
        <path id="Path_1191" data-name="Path 1191" class="cls-6" d="M409.478,55.831a43.385,43.385,0,0,1-1.252-4.592,20.471,20.471,0,0,0-3.855,24.282,20.487,20.487,0,0,1,5.107-19.69Z"/>
        <path id="Path_1192" data-name="Path 1192" class="cls-7" d="M433.574,48.758a20.463,20.463,0,0,0-24.27,1.509,40.989,40.989,0,0,0,1.177,4.6,20.468,20.468,0,0,1,23.624-2.6A21.467,21.467,0,0,0,433.574,48.758Z"/>
        <path id="Path_1193" data-name="Path 1193" class="cls-8" d="M439.228,56.334a21.406,21.406,0,0,0-.125-2.29,20.6,20.6,0,0,0-4.422-4.513,24.375,24.375,0,0,1,.372,3.3A20.564,20.564,0,0,1,439.228,56.334Z"/>
        <path id="Path_1194" data-name="Path 1194" class="cls-9" d="M440.124,57.384a20.455,20.455,0,0,1,2.083,3.169,20.344,20.344,0,0,0-2.073-4.924Q440.161,56.505,440.124,57.384Z"/>
      </g>
      <path id="Path_1195" data-name="Path 1195" class="cls-10" d="M437.048,50.656a17.332,17.332,0,1,1-33.58,6.034c0-.036,0-.072,0-.109a21.262,21.262,0,1,0,33.577-5.925Z"/>
      <g id="Group_463" data-name="Group 463">
        <path id="Path_1196" data-name="Path 1196" class="cls-11" d="M442.678,62.9c0,.031,0,.061,0,.092,0,11.693-9.2,21.172-20.547,21.172a20.777,20.777,0,0,1-20.4-18.6c.051,11.649,9.23,21.076,20.546,21.076,11.348,0,20.547-9.48,20.547-21.173A21.934,21.934,0,0,0,442.678,62.9Z"/>
      </g>
      <g id="Group_464" data-name="Group 464">
        <ellipse id="Ellipse_81" data-name="Ellipse 81" class="cls-12" cx="5.088" cy="2.418" rx="5.088" ry="2.418" transform="translate(418.546 45.529)"/>
        <path id="Path_1197" data-name="Path 1197" class="cls-13" d="M419,48.943a6.77,6.77,0,0,0,4.636,1.421c2.285,0,4.219-.716,4.861-1.7a6.772,6.772,0,0,0-4.636-1.421C421.574,47.241,419.64,47.957,419,48.943Z"/>
      </g>
      <g id="Group_465" data-name="Group 465">
        <path id="Path_1198" data-name="Path 1198" class="cls-14" d="M439.666,74.922c-1.309-.261-1.926-2.706-1.378-5.462s2.054-4.779,3.363-4.519,1.927,2.706,1.379,5.462S440.976,75.182,439.666,74.922Z"/>
        <path id="Path_1199" data-name="Path 1199" class="cls-15" d="M440.586,65.19a6.768,6.768,0,0,0-2.3,4.27c-.446,2.242-.121,4.277.721,5.1a6.765,6.765,0,0,0,2.3-4.269C441.753,68.048,441.428,66.013,440.586,65.19Z"/>
      </g>
      <g id="Group_466" data-name="Group 466">
        <path id="Path_1200" data-name="Path 1200" class="cls-16" d="M418.741,81.163c-.083-1.333,2.123-2.555,4.927-2.729s5.146.764,5.228,2.1-2.123,2.555-4.927,2.729S418.824,82.5,418.741,81.163Z"/>
        <path id="Path_1201" data-name="Path 1201" class="cls-17" d="M428.383,79.565a6.762,6.762,0,0,0-4.715-1.131c-2.281.141-4.166.976-4.745,2a6.768,6.768,0,0,0,4.715,1.131C425.919,81.423,427.8,80.588,428.383,79.565Z"/>
      </g>
      <g id="Group_468" data-name="Group 468">
        <g id="Group_467" data-name="Group 467">
          <path id="Path_1202" data-name="Path 1202" class="cls-18" d="M411.036,68.491c1.573-2.353,5.119-2.742,7.92-.869s3.8,5.3,2.223,7.65-5.119,2.742-7.92.87S409.463,70.844,411.036,68.491Z"/>
        </g>
        <path id="Path_1203" data-name="Path 1203" class="cls-19" d="M418.956,67.622c-2.527-1.69-5.659-1.538-7.4.235-.965,2.288.092,5.235,2.615,6.922s5.659,1.537,7.4-.236C422.536,72.255,421.479,69.308,418.956,67.622Z"/>
      </g>
      <g id="Group_470" data-name="Group 470">
        <g id="Group_469" data-name="Group 469">
          <path id="Path_1204" data-name="Path 1204" class="cls-20" d="M427.377,56.729c-.425,1.771-2.478,2.8-4.587,2.292s-3.475-2.351-3.05-4.122,2.478-2.8,4.587-2.293S427.8,54.957,427.377,56.729Z"/>
        </g>
        <path id="Path_1205" data-name="Path 1205" class="cls-21" d="M422.79,59.021a3.784,3.784,0,0,0,4.416-1.795,4.1,4.1,0,0,0-7.54-1.8A3.787,3.787,0,0,0,422.79,59.021Z"/>
      </g>
      <g id="Group_472" data-name="Group 472">
        <g id="Group_471" data-name="Group 471">
          <path id="Path_1206" data-name="Path 1206" class="cls-22" d="M427.384,74.56c-1.443-1.773-.9-4.6,1.209-6.321s4.991-1.673,6.435.1.9,4.6-1.209,6.322S428.827,76.333,427.384,74.56Z"/>
        </g>
        <path id="Path_1207" data-name="Path 1207" class="cls-23" d="M428.593,68.239a4.751,4.751,0,0,0-1.576,5.772,5.141,5.141,0,0,0,7.54-6.148A4.751,4.751,0,0,0,428.593,68.239Z"/>
      </g>
      <g id="Group_473" data-name="Group 473">
        <path id="Path_1208" data-name="Path 1208" class="cls-24" d="M412.322,52.511c.849.622.477,2.575-.832,4.362s-3.058,2.732-3.907,2.11-.477-2.574.832-4.362S411.473,51.89,412.322,52.511Z"/>
        <path id="Path_1209" data-name="Path 1209" class="cls-25" d="M408.427,59.16a5.336,5.336,0,0,0,3.063-2.287c1.065-1.453,1.51-3.016,1.182-3.884a5.34,5.34,0,0,0-3.064,2.286C408.544,56.729,408.1,58.292,408.427,59.16Z"/>
      </g>
      <g id="Group_474" data-name="Group 474">
        <path id="Path_1210" data-name="Path 1210" class="cls-26" d="M403.774,71.243c1.151-.678,3.239.736,4.665,3.157s1.65,4.933.5,5.611-3.239-.736-4.665-3.157S402.624,71.921,403.774,71.243Z"/>
        <path id="Path_1211" data-name="Path 1211" class="cls-27" d="M409.567,79.116a6.767,6.767,0,0,0-1.128-4.716c-1.16-1.969-2.758-3.272-3.933-3.325a6.767,6.767,0,0,0,1.128,4.716C406.794,77.76,408.392,79.063,409.567,79.116Z"/>
      </g>
      <g id="Group_475" data-name="Group 475">
        <path id="Path_1212" data-name="Path 1212" class="cls-28" d="M434.931,51.3c-.377.655-1.8.542-3.178-.252s-2.19-1.968-1.813-2.623,1.8-.543,3.179.251S435.308,50.649,434.931,51.3Z"/>
        <path id="Path_1213" data-name="Path 1213" class="cls-29" d="M429.88,49.045a3.832,3.832,0,0,0,1.873,2.007,3.454,3.454,0,0,0,2.865.539,3.831,3.831,0,0,0-1.872-2.007A3.457,3.457,0,0,0,429.88,49.045Z"/>
      </g>
      <g id="Group_476" data-name="Group 476">
        <path id="Path_1214" data-name="Path 1214" class="cls-30" d="M425.71,85.338c-.184-.733.918-1.641,2.461-2.028s2.942-.106,3.126.627-.918,1.641-2.461,2.028S425.894,86.071,425.71,85.338Z"/>
        <path id="Path_1215" data-name="Path 1215" class="cls-31" d="M430.912,83.453a3.827,3.827,0,0,0-2.741-.143,3.456,3.456,0,0,0-2.435,1.6,3.833,3.833,0,0,0,2.741.142A3.455,3.455,0,0,0,430.912,83.453Z"/>
      </g>
      <g id="Group_477" data-name="Group 477">
        <path id="Path_1216" data-name="Path 1216" class="cls-32" d="M403.2,64.27c.755-.037,1.43,1.22,1.509,2.809s-.469,2.906-1.224,2.944-1.431-1.22-1.509-2.809S402.442,64.307,403.2,64.27Z"/>
        <path id="Path_1217" data-name="Path 1217" class="cls-33" d="M404.032,69.739a3.826,3.826,0,0,0,.674-2.66,3.458,3.458,0,0,0-1.1-2.7,3.829,3.829,0,0,0-.674,2.661A3.454,3.454,0,0,0,404.032,69.739Z"/>
      </g>
      <g id="Group_478" data-name="Group 478">
        <path id="Path_1218" data-name="Path 1218" class="cls-34" d="M415.631,84.519c.171-.736,1.566-1.039,3.115-.677s2.665,1.251,2.494,1.987-1.567,1.039-3.116.678S415.459,85.255,415.631,84.519Z"/>
        <path id="Path_1219" data-name="Path 1219" class="cls-35" d="M421.119,85.222a3.832,3.832,0,0,0-2.373-1.38,3.449,3.449,0,0,0-2.9.312,3.826,3.826,0,0,0,2.372,1.38A3.459,3.459,0,0,0,421.119,85.222Z"/>
      </g>
      <g id="Group_479" data-name="Group 479">
        <path id="Path_1220" data-name="Path 1220" class="cls-36" d="M442.8,64.289c-.542.206-1.334-.55-1.769-1.691s-.349-2.232.193-2.439,1.334.55,1.769,1.69S443.344,64.082,442.8,64.289Z"/>
        <path id="Path_1221" data-name="Path 1221" class="cls-37" d="M440.892,60.5a2.933,2.933,0,0,0,.141,2.1,2.648,2.648,0,0,0,1.443,1.709,2.933,2.933,0,0,0-.141-2.1A2.651,2.651,0,0,0,440.892,60.5Z"/>
      </g>
      <g id="Group_480" data-name="Group 480">
        <path id="Path_1222" data-name="Path 1222" class="cls-38" d="M436.807,79.4c-.447-.37-.179-1.432.6-2.373s1.771-1.4,2.218-1.034.179,1.432-.6,2.373S437.254,79.774,436.807,79.4Z"/>
        <path id="Path_1223" data-name="Path 1223" class="cls-39" d="M439.166,75.874a2.941,2.941,0,0,0-1.76,1.158,2.656,2.656,0,0,0-.776,2.1,2.943,2.943,0,0,0,1.76-1.159A2.654,2.654,0,0,0,439.166,75.874Z"/>
      </g>
      <g id="Group_481" data-name="Group 481">
        <path id="Path_1224" data-name="Path 1224" class="cls-40" d="M406.172,68.249c.376-.123.89.419,1.148,1.21s.162,1.531-.214,1.654-.89-.419-1.147-1.21S405.8,68.371,406.172,68.249Z"/>
        <path id="Path_1225" data-name="Path 1225" class="cls-41" d="M407.345,70.894a2.008,2.008,0,0,0-.025-1.435,1.809,1.809,0,0,0-.925-1.212,2,2,0,0,0,.025,1.435A1.8,1.8,0,0,0,407.345,70.894Z"/>
      </g>
      <g id="Group_482" data-name="Group 482">
        <path id="Path_1226" data-name="Path 1226" class="cls-42" d="M418.891,56.767a1.535,1.535,0,1,1-1.941-.223A1.4,1.4,0,0,1,418.891,56.767Z"/>
        <path id="Path_1227" data-name="Path 1227" class="cls-43" d="M416.754,58.764a1.546,1.546,0,0,0,1.549-.134,1.5,1.5,0,0,0,.732-1.517,1.55,1.55,0,0,0-1.55.133A1.5,1.5,0,0,0,416.754,58.764Z"/>
      </g>
      <g id="Group_483" data-name="Group 483">
        <path id="Path_1228" data-name="Path 1228" class="cls-44" d="M430.069,52.147c-.146.368-.891.416-1.664.109s-1.282-.854-1.136-1.222.891-.416,1.664-.108S430.215,51.78,430.069,52.147Z"/>
        <path id="Path_1229" data-name="Path 1229" class="cls-45" d="M427.285,51.358a2,2,0,0,0,1.12.9,1.805,1.805,0,0,0,1.523.063,2,2,0,0,0-1.12-.9A1.805,1.805,0,0,0,427.285,51.358Z"/>
      </g>
      <g id="Group_484" data-name="Group 484">
        <path id="Path_1230" data-name="Path 1230" class="cls-46" d="M436.71,68.44a1.236,1.236,0,1,1,1.238-.881A1.092,1.092,0,0,1,436.71,68.44Z"/>
        <path id="Path_1231" data-name="Path 1231" class="cls-47" d="M437,66.135a1.25,1.25,0,0,0-.838.889,1.2,1.2,0,0,0,.3,1.285,1.251,1.251,0,0,0,.839-.889A1.2,1.2,0,0,0,437,66.135Z"/>
      </g>
      <g id="Group_485" data-name="Group 485">
        <path id="Path_1232" data-name="Path 1232" class="cls-48" d="M412.632,48.6c.471.591-.155,1.874-1.4,2.865s-2.634,1.315-3.1.724.156-1.874,1.4-2.865S412.161,48.009,412.632,48.6Z"/>
        <path id="Path_1233" data-name="Path 1233" class="cls-49" d="M408.679,52.471a3.83,3.83,0,0,0,2.553-1.006A3.452,3.452,0,0,0,412.784,49,3.83,3.83,0,0,0,410.231,50,3.452,3.452,0,0,0,408.679,52.471Z"/>
      </g>
      <path id="Path_1234" data-name="Path 1234" class="cls-50" d="M432.733,79.612c.166.292-.117.768-.634,1.063s-1.07.295-1.237,0,.117-.769.633-1.063S432.566,79.319,432.733,79.612Z"/>
      <path id="Path_1235" data-name="Path 1235" class="cls-51" d="M433.773,77.912c.1.178-.071.467-.386.646s-.651.18-.752,0,.071-.467.385-.647S433.671,77.734,433.773,77.912Z"/>
      <g id="Group_486" data-name="Group 486">
        <path id="Path_1236" data-name="Path 1236" class="cls-52" d="M410.031,75.06c-.335.169-.849-.174-1.147-.766s-.268-1.21.067-1.379.85.175,1.148.767S410.367,74.891,410.031,75.06Z"/>
        <path id="Path_1237" data-name="Path 1237" class="cls-53" d="M411.175,76.407c-.2.1-.513-.106-.693-.464s-.162-.731.04-.833.514.106.694.464S411.378,76.305,411.175,76.407Z"/>
      </g>
      <path id="Path_1238" data-name="Path 1238" class="cls-54" d="M405.461,67.775c-.183.022-.364-.223-.4-.547s.079-.6.262-.627.364.223.4.547S405.645,67.753,405.461,67.775Z"/>
      <path id="Path_1239" data-name="Path 1239" class="cls-55" d="M439.939,62.328c-.268.033-.53-.324-.587-.795s.114-.88.381-.912.53.324.587.8S440.206,62.3,439.939,62.328Z"/>
      <path id="Path_1240" data-name="Path 1240" class="cls-56" d="M439.628,63.972c-.175.021-.347-.212-.384-.521s.075-.576.25-.6.347.212.384.521S439.8,63.951,439.628,63.972Z"/>
      <g id="Group_487" data-name="Group 487">
        <path id="Path_1241" data-name="Path 1241" class="cls-57" d="M413.249,82.888c-.21.264-.757.177-1.222-.193s-.673-.884-.463-1.147.757-.178,1.222.193S413.458,82.625,413.249,82.888Z"/>
        <path id="Path_1242" data-name="Path 1242" class="cls-58" d="M415.213,83.223c-.127.16-.46.107-.743-.118s-.409-.538-.281-.7.46-.108.743.118S415.341,83.062,415.213,83.223Z"/>
        <path id="Path_1243" data-name="Path 1243" class="cls-59" d="M411.7,80.48c-.127.16-.46.107-.743-.118s-.409-.538-.281-.7.46-.108.743.118S411.83,80.319,411.7,80.48Z"/>
      </g>
      <path id="Path_1244" data-name="Path 1244" class="cls-60" d="M414.149,49.519c-.114-.317.247-.737.807-.939s1.105-.107,1.219.21-.247.737-.806.938S414.264,49.836,414.149,49.519Zm-.574,1.623c.34-.122.56-.378.49-.57s-.4-.25-.741-.128-.56.378-.491.571S413.235,51.265,413.575,51.142Zm4.178-1.547c.34-.122.56-.378.491-.571s-.4-.249-.742-.127-.56.378-.491.571S417.413,49.718,417.753,49.6Zm14.662,3.71c.1-.323.635-.448,1.2-.279s.955.568.859.891-.636.448-1.206.279S432.319,53.628,432.415,53.305Zm2.858,2.2c.347.1.675.027.733-.17s-.175-.439-.522-.542-.675-.027-.733.17S434.927,55.4,435.273,55.5Z"/>
    </g>
  </g>
</svg>
