<?xml version="1.0" encoding="UTF-8"?>
<svg width="248px" height="334px" viewBox="0 0 248 334" version="1.1" xmlns="http://www.w3.org/2000/svg" xmlns:xlink="http://www.w3.org/1999/xlink">
    <!-- Generator: Sketch 56.3 (81716) - https://sketch.com -->
    <title>Artboard</title>
    <desc>Created with Sketch.</desc>
    <defs>
        <polygon id="path-1" points="0.99 0.603 49.47 0.603 49.47 86.536 0.99 86.536"></polygon>
        <polygon id="path-3" points="0.39 0.72 98.47 0.72 98.47 335 0.39 335"></polygon>
        <polygon id="path-5" points="0.66 0.499 149.39 0.499 149.39 74 0.66 74"></polygon>
    </defs>
    <g id="Artboard" stroke="none" stroke-width="1" fill="none" fill-rule="evenodd">
        <g id="Group-6" transform="translate(200.000000, 174.000000)">
            <mask id="mask-2" fill="white">
                <use xlink:href="#path-1"></use>
            </mask>
            <g id="Clip-4"></g>
            <polyline id="Fill-3" fill="#781F21" mask="url(#mask-2)" points="50.58 0.603 50.58 57.904 0.99 29.259 0.99 29.234 50.58 0.603"></polyline>
            <polyline id="Fill-5" fill="#781F21" mask="url(#mask-2)" points="50.58 57.904 50.58 57.947 1.05 86.536 0.99 86.499 0.99 29.259 50.58 57.904"></polyline>
        </g>
        <polyline id="Fill-7" fill="#781F21" points="200.99 203.321 200.99 260.499 200.94 260.524 151.43 231.929 200.99 203.321"></polyline>
        <polyline id="Fill-8" fill="#DB3C30" points="200.99 203.234 200.99 203.321 151.43 231.929 151.39 231.904 151.39 174.603 200.99 203.234"></polyline>
        <polyline id="Fill-9" fill="#00A49F" points="200.99 88.705 200.99 146.007 151.39 117.362 151.39 117.337 200.99 88.705"></polyline>
        <polyline id="Fill-10" fill="#092229" points="200.99 146.007 200.99 146.05 151.46 174.639 151.39 174.603 151.39 117.362 200.99 146.007"></polyline>
        <g id="Group-26" transform="translate(151.000000, -1.000000)">
            <mask id="mask-4" fill="white">
                <use xlink:href="#path-3"></use>
            </mask>
            <g id="Clip-12"></g>
            <polyline id="Fill-11" fill="#092229" mask="url(#mask-4)" points="49.99 147.05 49.99 204.234 0.46 175.639 49.99 147.05"></polyline>
            <polyline id="Fill-13" fill="#008083" mask="url(#mask-4)" points="99.54 175.627 49.99 204.234 49.99 147.05 50.02 147.031 99.54 175.627"></polyline>
            <polyline id="Fill-14" fill="#008083" mask="url(#mask-4)" points="99.58 118.424 99.58 175.603 99.54 175.627 50.02 147.031 99.58 118.424"></polyline>
            <polyline id="Fill-15" fill="#008083" mask="url(#mask-4)" points="82 0.72 82 17.323 81.99 17.33 67.61 9.027 82 0.72"></polyline>
            <polyline id="Fill-16" fill="#00A49F" mask="url(#mask-4)" points="99.58 61.01 99.58 61.097 50.02 89.705 49.99 89.68 49.99 32.378 99.58 61.01"></polyline>
            <polyline id="Fill-17" fill="#781F21" mask="url(#mask-4)" points="49.99 261.499 49.99 318.802 0.39 290.156 0.39 290.132 49.99 261.499"></polyline>
            <polyline id="Fill-18" fill="#781F21" mask="url(#mask-4)" points="49.99 318.802 49.99 318.845 0.46 347.434 0.39 347.396 0.39 290.156 49.99 318.802"></polyline>
            <polyline id="Fill-19" fill="#009D97" mask="url(#mask-4)" points="49.99 318.845 49.99 376.029 0.46 347.434 49.99 318.845"></polyline>
            <polyline id="Fill-20" fill="#009D97" mask="url(#mask-4)" points="99.54 347.422 49.99 376.029 49.99 318.845 50.02 318.826 99.54 347.422"></polyline>
            <polyline id="Fill-21" fill="#092229" mask="url(#mask-4)" points="99.58 290.219 99.58 347.396 99.54 347.422 50.02 318.826 99.58 290.219"></polyline>
            <polyline id="Fill-22" fill="#092229" mask="url(#mask-4)" points="99.58 290.132 99.58 290.219 50.02 318.826 49.99 318.802 49.99 261.499 99.58 290.132"></polyline>
            <polyline id="Fill-23" fill="#DB3C30" mask="url(#mask-4)" points="99.58 175.603 99.58 232.904 49.99 204.259 49.99 204.234 99.58 175.603"></polyline>
            <polyline id="Fill-24" fill="#DB3C30" mask="url(#mask-4)" points="99.58 232.904 99.58 232.947 50.05 261.536 49.99 261.499 49.99 204.259 99.58 232.904"></polyline>
            <polyline id="Fill-25" fill="#009D97" mask="url(#mask-4)" points="99.58 232.947 99.58 290.132 50.05 261.536 99.58 232.947"></polyline>
        </g>
        <polyline id="Fill-27" fill="#DB3C30" points="200.94 260.524 151.39 289.132 151.39 231.947 151.43 231.929 200.94 260.524"></polyline>
        <polyline id="Fill-28" fill="#DB3C30" points="200.99 203.321 200.99 260.499 200.94 260.524 151.43 231.929 200.99 203.321"></polyline>
        <polyline id="Fill-29" fill="#DB3C30" points="151.39 174.603 151.39 231.904 101.8 203.259 101.8 203.234 151.39 174.603"></polyline>
        <polyline id="Fill-30" fill="#E15E29" points="151.39 231.904 151.39 231.947 101.86 260.536 101.8 260.499 101.8 203.259 151.39 231.904"></polyline>
        <polyline id="Fill-31" fill="#EE9C45" points="200.99 203.234 200.99 203.321 151.43 231.929 151.39 231.904 151.39 174.603 200.99 203.234"></polyline>
        <polyline id="Fill-32" fill="#F8CD94" points="101.8 88.705 101.8 146.007 52.2 117.362 52.2 117.337 101.8 88.705"></polyline>
        <polyline id="Fill-33" fill="#E67745" points="151.35 174.627 101.8 203.234 101.8 146.05 101.83 146.031 151.35 174.627"></polyline>
        <polyline id="Fill-34" fill="#E67745" points="68 174.63 44.86 187.99 44.86 161.284 44.88 161.275 68 174.63"></polyline>
        <polyline id="Fill-35" fill="#F8CD94" points="67.58 93.122 51.78 102.249 51.78 84.006 51.79 84 67.58 93.122"></polyline>
        <polyline id="Fill-36" fill="#E67745" points="151.39 117.424 151.39 174.603 151.35 174.627 101.83 146.031 151.39 117.424"></polyline>
        <polyline id="Fill-37" fill="#EE9C45" points="151.39 117.337 151.39 117.424 101.83 146.031 101.8 146.007 101.8 88.705 151.39 117.337"></polyline>
        <g id="Group-43" transform="translate(2.000000, 260.000000)">
            <mask id="mask-6" fill="white">
                <use xlink:href="#path-5"></use>
            </mask>
            <g id="Clip-39"></g>
            <polyline id="Fill-38" fill="#E57253" mask="url(#mask-6)" points="99.8 0.499 99.8 57.802 50.2 29.156 50.2 29.132 99.8 0.499"></polyline>
            <polyline id="Fill-40" fill="#DD433F" mask="url(#mask-6)" points="149.35 86.422 99.8 115.029 99.8 57.845 99.83 57.826 149.35 86.422"></polyline>
            <polyline id="Fill-41" fill="#DD433F" mask="url(#mask-6)" points="50.2 86.422 0.66 115.029 0.66 57.845 0.69 57.826 50.2 86.422"></polyline>
            <polyline id="Fill-42" fill="#DD433F" mask="url(#mask-6)" points="149.39 29.219 149.39 86.396 149.35 86.422 99.83 57.826 149.39 29.219"></polyline>
        </g>
        <polyline id="Fill-44" fill="#DD433F" points="151.39 289.132 151.39 289.219 101.83 317.826 101.8 317.802 101.8 260.499 151.39 289.132"></polyline>
        <polyline id="Fill-45" fill="#EE9C45" points="151.39 174.603 151.39 231.904 101.8 203.259 101.8 203.234 151.39 174.603"></polyline>
        <polyline id="Fill-46" fill="#EE9C45" points="151.39 231.904 151.39 231.947 101.86 260.536 101.8 260.499 101.8 203.259 151.39 231.904"></polyline>
        <polyline id="Fill-47" fill="#E15E29" points="151.39 231.947 151.39 289.132 101.86 260.536 151.39 231.947"></polyline>
        <polyline id="Fill-48" fill="#781F21" points="200.94 260.524 151.39 289.132 151.39 231.947 151.43 231.929 200.94 260.524"></polyline>
    </g>
</svg>